  0
SECTION
  2
HEADER
  9
$ACADVER
  1
AC1015
  9
$ACADMAINTVER
 70
     6
  9
$DWGCODEPAGE
  3
ANSI_932
  9
$INSBASE
 10
0.0
 20
0.0
 30
0.0
  9
$EXTMIN
 10
1.000000000000000E+20
 20
1.000000000000000E+20
 30
1.000000000000000E+20
  9
$EXTMAX
 10
-1.000000000000000E+20
 20
-1.000000000000000E+20
 30
-1.000000000000000E+20
  9
$LIMMIN
 10
0.0
 20
0.0
  9
$LIMMAX
 10
12.0
 20
9.0
  9
$ORTHOMODE
 70
     0
  9
$REGENMODE
 70
     1
  9
$FILLMODE
 70
     1
  9
$QTEXTMODE
 70
     0
  9
$MIRRTEXT
 70
     1
  9
$LTSCALE
 40
1.0
  9
$ATTMODE
 70
     1
  9
$TEXTSIZE
 40
0.2
  9
$TRACEWID
 40
0.05
  9
$TEXTSTYLE
  7
Standard
  9
$CLAYER
  8
0
  9
$CELTYPE
  6
ByLayer
  9
$CECOLOR
 62
   256
  9
$CELTSCALE
 40
1.0
  9
$DISPSILH
 70
     0
  9
$DIMSCALE
 40
1.0
  9
$DIMASZ
 40
0.18
  9
$DIMEXO
 40
0.0625
  9
$DIMDLI
 40
0.38
  9
$DIMRND
 40
0.0
  9
$DIMDLE
 40
0.0
  9
$DIMEXE
 40
0.18
  9
$DIMTP
 40
0.0
  9
$DIMTM
 40
0.0
  9
$DIMTXT
 40
0.18
  9
$DIMCEN
 40
0.09
  9
$DIMTSZ
 40
0.0
  9
$DIMTOL
 70
     0
  9
$DIMLIM
 70
     0
  9
$DIMTIH
 70
     1
  9
$DIMTOH
 70
     1
  9
$DIMSE1
 70
     0
  9
$DIMSE2
 70
     0
  9
$DIMTAD
 70
     0
  9
$DIMZIN
 70
     0
  9
$DIMBLK
  1

  9
$DIMASO
 70
     1
  9
$DIMSHO
 70
     1
  9
$DIMPOST
  1

  9
$DIMAPOST
  1

  9
$DIMALT
 70
     0
  9
$DIMALTD
 70
     2
  9
$DIMALTF
 40
25.4
  9
$DIMLFAC
 40
1.0
  9
$DIMTOFL
 70
     0
  9
$DIMTVP
 40
0.0
  9
$DIMTIX
 70
     0
  9
$DIMSOXD
 70
     0
  9
$DIMSAH
 70
     0
  9
$DIMBLK1
  1

  9
$DIMBLK2
  1

  9
$DIMSTYLE
  2
Standard
  9
$DIMCLRD
 70
     0
  9
$DIMCLRE
 70
     0
  9
$DIMCLRT
 70
     0
  9
$DIMTFAC
 40
1.0
  9
$DIMGAP
 40
0.09
  9
$DIMJUST
 70
     0
  9
$DIMSD1
 70
     0
  9
$DIMSD2
 70
     0
  9
$DIMTOLJ
 70
     1
  9
$DIMTZIN
 70
     0
  9
$DIMALTZ
 70
     0
  9
$DIMALTTZ
 70
     0
  9
$DIMUPT
 70
     0
  9
$DIMDEC
 70
     4
  9
$DIMTDEC
 70
     4
  9
$DIMALTU
 70
     2
  9
$DIMALTTD
 70
     2
  9
$DIMTXSTY
  7
Standard
  9
$DIMAUNIT
 70
     0
  9
$DIMADEC
 70
     0
  9
$DIMALTRND
 40
0.0
  9
$DIMAZIN
 70
     0
  9
$DIMDSEP
 70
    46
  9
$DIMATFIT
 70
     3
  9
$DIMFRAC
 70
     0
  9
$DIMLDRBLK
  1

  9
$DIMLUNIT
 70
     2
  9
$DIMLWD
 70
    -2
  9
$DIMLWE
 70
    -2
  9
$DIMTMOVE
 70
     0
  9
$LUNITS
 70
     2
  9
$LUPREC
 70
     4
  9
$SKETCHINC
 40
0.1
  9
$FILLETRAD
 40
0.5
  9
$AUNITS
 70
     0
  9
$AUPREC
 70
     0
  9
$MENU
  1
.
  9
$ELEVATION
 40
0.0
  9
$PELEVATION
 40
0.0
  9
$THICKNESS
 40
0.0
  9
$LIMCHECK
 70
     0
  9
$CHAMFERA
 40
0.5
  9
$CHAMFERB
 40
0.5
  9
$CHAMFERC
 40
1.0
  9
$CHAMFERD
 40
0.0
  9
$SKPOLY
 70
     0
  9
$TDCREATE
 40
2457173.852743056
  9
$TDUCREATE
 40
2457173.811076389
  9
$TDUPDATE
 40
2457173.852743067
  9
$TDUUPDATE
 40
2457173.8110764
  9
$TDINDWG
 40
0.0000000116
  9
$TDUSRTIMER
 40
0.0000000116
  9
$USRTIMER
 70
     1
  9
$ANGBASE
 50
0.0
  9
$ANGDIR
 70
     0
  9
$PDMODE
 70
     0
  9
$PDSIZE
 40
0.0
  9
$PLINEWID
 40
0.0
  9
$SPLFRAME
 70
     0
  9
$SPLINETYPE
 70
     6
  9
$SPLINESEGS
 70
     8
  9
$HANDSEED
  5
74
  9
$SURFTAB1
 70
     6
  9
$SURFTAB2
 70
     6
  9
$SURFTYPE
 70
     6
  9
$SURFU
 70
     6
  9
$SURFV
 70
     6
  9
$UCSBASE
  2

  9
$UCSNAME
  2

  9
$UCSORG
 10
0.0
 20
0.0
 30
0.0
  9
$UCSXDIR
 10
1.0
 20
0.0
 30
0.0
  9
$UCSYDIR
 10
0.0
 20
1.0
 30
0.0
  9
$UCSORTHOREF
  2

  9
$UCSORTHOVIEW
 70
     0
  9
$UCSORGTOP
 10
0.0
 20
0.0
 30
0.0
  9
$UCSORGBOTTOM
 10
0.0
 20
0.0
 30
0.0
  9
$UCSORGLEFT
 10
0.0
 20
0.0
 30
0.0
  9
$UCSORGRIGHT
 10
0.0
 20
0.0
 30
0.0
  9
$UCSORGFRONT
 10
0.0
 20
0.0
 30
0.0
  9
$UCSORGBACK
 10
0.0
 20
0.0
 30
0.0
  9
$PUCSBASE
  2

  9
$PUCSNAME
  2

  9
$PUCSORG
 10
0.0
 20
0.0
 30
0.0
  9
$PUCSXDIR
 10
1.0
 20
0.0
 30
0.0
  9
$PUCSYDIR
 10
0.0
 20
1.0
 30
0.0
  9
$PUCSORTHOREF
  2

  9
$PUCSORTHOVIEW
 70
     0
  9
$PUCSORGTOP
 10
0.0
 20
0.0
 30
0.0
  9
$PUCSORGBOTTOM
 10
0.0
 20
0.0
 30
0.0
  9
$PUCSORGLEFT
 10
0.0
 20
0.0
 30
0.0
  9
$PUCSORGRIGHT
 10
0.0
 20
0.0
 30
0.0
  9
$PUCSORGFRONT
 10
0.0
 20
0.0
 30
0.0
  9
$PUCSORGBACK
 10
0.0
 20
0.0
 30
0.0
  9
$USERI1
 70
     0
  9
$USERI2
 70
     0
  9
$USERI3
 70
     0
  9
$USERI4
 70
     0
  9
$USERI5
 70
     0
  9
$USERR1
 40
0.0
  9
$USERR2
 40
0.0
  9
$USERR3
 40
0.0
  9
$USERR4
 40
0.0
  9
$USERR5
 40
0.0
  9
$WORLDVIEW
 70
     1
  9
$SHADEDGE
 70
     3
  9
$SHADEDIF
 70
    70
  9
$TILEMODE
 70
     1
  9
$MAXACTVP
 70
    64
  9
$PINSBASE
 10
0.0
 20
0.0
 30
0.0
  9
$PLIMCHECK
 70
     0
  9
$PEXTMIN
 10
1.000000000000000E+20
 20
1.000000000000000E+20
 30
1.000000000000000E+20
  9
$PEXTMAX
 10
-1.000000000000000E+20
 20
-1.000000000000000E+20
 30
-1.000000000000000E+20
  9
$PLIMMIN
 10
0.0
 20
0.0
  9
$PLIMMAX
 10
12.0
 20
9.0
  9
$UNITMODE
 70
     0
  9
$VISRETAIN
 70
     1
  9
$PLINEGEN
 70
     0
  9
$PSLTSCALE
 70
     1
  9
$TREEDEPTH
 70
  3020
  9
$CMLSTYLE
  2
Standard
  9
$CMLJUST
 70
     0
  9
$CMLSCALE
 40
1.0
  9
$PROXYGRAPHICS
 70
     1
  9
$MEASUREMENT
 70
     0
  9
$CELWEIGHT
370
    -1
  9
$ENDCAPS
280
     0
  9
$JOINSTYLE
280
     0
  9
$LWDISPLAY
290
     1
  9
$INSUNITS
 70
     1
  9
$HYPERLINKBASE
  1

  9
$STYLESHEET
  1

  9
$XEDIT
290
     1
  9
$CEPSNTYPE
380
     0
  9
$PSTYLEMODE
290
     1
  9
$FINGERPRINTGUID
  2
{FD5E6C4B-8316-12C1-C490-15799FCF512D}
  9
$VERSIONGUID
  2
{FAEB1C32-E019-11D5-929B-00C0DF256EC4}
  9
$EXTNAMES
290
     1
  9
$PSVPSCALE
 40
0.0
  9
$OLESTARTUP
290
     0
  0
ENDSEC
  0
SECTION
  2
CLASSES
  0
CLASS
  1
ACDBDICTIONARYWDFLT
  2
AcDbDictionaryWithDefault
  3
ObjectDBX Classes
 90
        0
280
     0
281
     0
  0
CLASS
  1
VISUALSTYLE
  2
AcDbVisualStyle
  3
ObjectDBX Classes
 90
     4095
280
     0
281
     0
  0
CLASS
  1
ACDBPLACEHOLDER
  2
AcDbPlaceHolder
  3
ObjectDBX Classes
 90
        0
280
     0
281
     0
  0
CLASS
  1
LAYOUT
  2
AcDbLayout
  3
ObjectDBX Classes
 90
        0
280
     0
281
     0
  0
ENDSEC
  0
SECTION
  2
TABLES
  0
TABLE
  2
VPORT
  5
8
330
0
100
AcDbSymbolTable
 70
     1
  0
VPORT
  5
29
330
8
100
AcDbSymbolTableRecord
100
AcDbViewportTableRecord
  2
*Active
 70
     0
 10
0.0
 20
0.0
 11
1.0
 21
1.0
 12
0.0
 22
0.0
 13
0.0
 23
0.0
 14
0.5
 24
0.5
 15
0.5
 25
0.5
 16
0.0
 26
0.0
 36
1.0
 17
87.53987628019837
 27
-133.6555799362042
 37
0.0
 40
180.0000379324306
 41
1.444444019124104
 42
50.0
 43
0.0
 44
0.0
 50
0.0
 51
0.0
 71
     0
 72
   100
 73
     1
 74
     3
 75
     0
 76
     0
 77
     0
 78
     0
281
     0
 65
     1
110
0.0
120
0.0
130
0.0
111
1.0
121
0.0
131
0.0
112
0.0
122
1.0
132
0.0
 79
     0
146
0.0
  0
ENDTAB
  0
TABLE
  2
LTYPE
  5
5
330
0
100
AcDbSymbolTable
 70
     1
  0
LTYPE
  5
14
330
5
100
AcDbSymbolTableRecord
100
AcDbLinetypeTableRecord
  2
ByBlock
 70
     0
  3

 72
    65
 73
     0
 40
0.0
  0
LTYPE
  5
15
330
5
100
AcDbSymbolTableRecord
100
AcDbLinetypeTableRecord
  2
ByLayer
 70
     0
  3

 72
    65
 73
     0
 40
0.0
  0
LTYPE
  5
16
330
5
100
AcDbSymbolTableRecord
100
AcDbLinetypeTableRecord
  2
Continuous
 70
     0
  3
Solid line
 72
    65
 73
     0
 40
0.0
  0
ENDTAB
  0
TABLE
  2
LAYER
  5
2
330
0
100
AcDbSymbolTable
 70
     2
  0
LAYER
  5
10
330
2
100
AcDbSymbolTableRecord
100
AcDbLayerTableRecord
  2
0
 70
     0
 62
     7
  6
Continuous
370
    -3
390
F
  0
LAYER
  5
3B
330
2
100
AcDbSymbolTableRecord
100
AcDbLayerTableRecord
  2
Layer 1
 70
     0
 62
     7
  6
Continuous
370
    -3
390
F
  0
ENDTAB
  0
TABLE
  2
STYLE
  5
3
330
0
100
AcDbSymbolTable
 70
     1
  0
STYLE
  5
11
330
3
100
AcDbSymbolTableRecord
100
AcDbTextStyleTableRecord
  2
Standard
 70
     0
 40
0.0
 41
1.0
 50
0.0
 71
     0
 42
0.2
  3
txt
  4

  0
ENDTAB
  0
TABLE
  2
VIEW
  5
6
330
0
100
AcDbSymbolTable
 70
     0
  0
ENDTAB
  0
TABLE
  2
UCS
  5
7
330
0
100
AcDbSymbolTable
 70
     0
  0
ENDTAB
  0
TABLE
  2
APPID
  5
9
330
0
100
AcDbSymbolTable
 70
     1
  0
APPID
  5
12
330
9
100
AcDbSymbolTableRecord
100
AcDbRegAppTableRecord
  2
ACAD
 70
     0
  0
ENDTAB
  0
TABLE
  2
DIMSTYLE
  5
A
330
0
100
AcDbSymbolTable
 70
     1
100
AcDbDimStyleTable
  0
DIMSTYLE
105
27
330
A
100
AcDbSymbolTableRecord
100
AcDbDimStyleTableRecord
  2
Standard
 70
     0
340
11
  0
ENDTAB
  0
TABLE
  2
BLOCK_RECORD
  5
1
330
0
100
AcDbSymbolTable
 70
     2
  0
BLOCK_RECORD
  5
1F
330
1
100
AcDbSymbolTableRecord
100
AcDbBlockTableRecord
  2
*Model_Space
340
22
  0
BLOCK_RECORD
  5
1B
330
1
100
AcDbSymbolTableRecord
100
AcDbBlockTableRecord
  2
*Paper_Space
340
1E
  0
BLOCK_RECORD
  5
23
330
1
100
AcDbSymbolTableRecord
100
AcDbBlockTableRecord
  2
*Paper_Space0
340
26
  0
BLOCK_RECORD
  5
6C
330
1
100
AcDbSymbolTableRecord
100
AcDbBlockTableRecord
  2
block 2
340
0
102
{BLKREFS
331
6D
102
}
  0
ENDTAB
  0
ENDSEC
  0
SECTION
  2
BLOCKS
  0
BLOCK
  5
20
330
1F
100
AcDbEntity
  8
0
100
AcDbBlockBegin
  2
*Model_Space
 70
     0
 71
     0
 10
0.0
 20
0.0
 30
0.0
  3
*Model_Space
  1

  0
ENDBLK
  5
21
330
1F
100
AcDbEntity
  8
0
100
AcDbBlockEnd
  0
BLOCK
  5
1C
330
1B
100
AcDbEntity
 67
     1
  8
0
100
AcDbBlockBegin
  2
*Paper_Space
 70
     0
 71
     0
 10
0.0
 20
0.0
 30
0.0
  3
*Paper_Space
  1

  0
ENDBLK
  5
1D
330
1B
100
AcDbEntity
 67
     1
  8
0
100
AcDbBlockEnd
  0
BLOCK
  5
24
330
23
100
AcDbEntity
  8
0
100
AcDbBlockBegin
  2
*Paper_Space0
 70
     0
 71
     0
 10
0.0
 20
0.0
 30
0.0
  3
*Paper_Space0
  1

  0
ENDBLK
  5
25
330
23
100
AcDbEntity
  8
0
100
AcDbBlockEnd
  0
BLOCK
  5
6E
330
6C
100
AcDbEntity
  8
0
100
AcDbBlockBegin
  2
block 2
 70
     0
 71
     0
 10
0.0
 20
0.0
 30
0.0
  3
block 2
  1

  0
SPLINE
  5
70
330
6C
100
AcDbEntity
  8
Layer 1
370
     0
100
AcDbSpline
210
0.0
220
0.0
230
1.0
 70
    11
 71
     3
 72
    17
 73
    13
 74
     0
 42
0.0000000001
 43
0.0000000001
 40
0.0
 40
0.0
 40
0.0
 40
0.0
 40
1.0
 40
1.0
 40
1.0
 40
2.0
 40
2.0
 40
2.0
 40
3.0
 40
3.0
 40
3.0
 40
4.0
 40
4.0
 40
4.0
 40
4.0
 10
107.9978868002575
 20
-201.4660833914738
 30
0.0
 10
106.3573323301815
 20
-201.234572974865
 30
0.0
 10
105.2152831768212
 20
-199.7166639040639
 30
0.0
 10
105.4471381029785
 20
-198.0761094339879
 30
0.0
 10
105.6783040100388
 20
-196.436243983009
 30
0.0
 10
107.1965575903884
 20
-195.2931613010031
 30
0.0
 10
108.8367675509158
 20
-195.5246717176119
 30
0.0
 10
110.4769775114433
 20
-195.7568711533177
 30
0.0
 10
111.6197156839006
 20
-197.2747802241188
 30
0.0
 10
111.3882052672918
 20
-198.9153346941948
 30
0.0
 10
111.156005831586
 20
-200.5552001451737
 30
0.0
 10
109.6384412703334
 20
-201.6975938080826
 30
0.0
 10
107.9978868002575
 20
-201.4660833914738
 30
0.0
  0
SPLINE
  5
71
330
6C
100
AcDbEntity
  8
Layer 1
370
     0
100
AcDbSpline
210
0.0
220
0.0
230
1.0
 70
    11
 71
     3
 72
    17
 73
    13
 74
     0
 42
0.0000000001
 43
0.0000000001
 40
0.0
 40
0.0
 40
0.0
 40
0.0
 40
1.0
 40
1.0
 40
1.0
 40
2.0
 40
2.0
 40
2.0
 40
3.0
 40
3.0
 40
3.0
 40
4.0
 40
4.0
 40
4.0
 40
4.0
 10
75.49134383963411
 20
-196.877216205121
 30
0.0
 10
73.85044486000962
 20
-196.6457057885122
 30
0.0
 10
72.7083957066493
 20
-195.1277967177111
 30
0.0
 10
72.93990612325808
 20
-193.4872422476352
 30
0.0
 10
73.17141653986687
 20
-191.8466877775592
 30
0.0
 10
74.68932561066795
 20
-190.7049831337474
 30
0.0
 10
76.32988008074392
 20
-190.9364935503562
 30
0.0
 10
77.97009004127138
 20
-191.168003966965
 30
0.0
 10
79.11248370418022
 20
-192.685224018669
 30
0.0
 10
78.88097328757142
 20
-194.325778488745
 30
0.0
 10
78.64911836141411
 20
-195.9663329588209
 30
0.0
 10
77.13120929061303
 20
-197.1087266217298
 30
0.0
 10
75.49134383963411
 20
-196.877216205121
 30
0.0
  0
SPLINE
  5
72
330
6C
100
AcDbEntity
  8
Layer 1
370
     0
100
AcDbSpline
210
0.0
220
0.0
230
1.0
 70
    11
 71
     3
 72
    17
 73
    13
 74
     0
 42
0.0000000001
 43
0.0000000001
 40
0.0
 40
0.0
 40
0.0
 40
0.0
 40
1.0
 40
1.0
 40
1.0
 40
2.0
 40
2.0
 40
2.0
 40
3.0
 40
3.0
 40
3.0
 40
4.0
 40
4.0
 40
4.0
 40
4.0
 10
85.15587020440547
 20
-194.1273409887946
 30
0.0
 10
86.34098305133142
 20
-189.9760009290685
 30
0.0
 10
90.66802298080522
 20
-187.5713242803641
 30
0.0
 10
94.8183295118857
 20
-188.7564371272901
 30
0.0
 10
98.96898055251471
 20
-189.9422389933131
 30
0.0
 10
101.3740017107676
 20
-194.2679008845928
 30
0.0
 10
100.1885443542931
 20
-198.4192409443188
 30
0.0
 10
99.0034315073672
 20
-202.5698919849478
 30
0.0
 10
94.67708059699045
 20
-204.9745686336522
 30
0.0
 10
90.52642955636145
 20
-203.7894557867263
 30
0.0
 10
86.37543400618392
 20
-202.6043429398003
 30
0.0
 10
83.97075735747954
 20
-198.2779920294236
 30
0.0
 10
85.15587020440547
 20
-194.1273409887946
 30
0.0
  0
ENDBLK
  5
6F
330
6C
100
AcDbEntity
  8
0
100
AcDbBlockEnd
  0
ENDSEC
  0
SECTION
  2
ENTITIES
  0
SPLINE
  5
3C
330
1F
100
AcDbEntity
  8
Layer 1
370
     0
100
AcDbSpline
210
0.0
220
0.0
230
1.0
 70
    11
 71
     3
 72
    29
 73
    25
 74
     0
 42
0.0000000001
 43
0.0000000001
 40
0.0
 40
0.0
 40
0.0
 40
0.0
 40
1.0
 40
1.0
 40
1.0
 40
2.0
 40
2.0
 40
2.0
 40
3.0
 40
3.0
 40
3.0
 40
4.0
 40
4.0
 40
4.0
 40
5.0
 40
5.0
 40
5.0
 40
6.0
 40
6.0
 40
6.0
 40
7.0
 40
7.0
 40
7.0
 40
8.0
 40
8.0
 40
8.0
 40
8.0
 10
-32.32119682351693
 20
-53.0282877471596
 30
0.0
 10
-32.21646592076533
 20
-52.91580537956619
 30
0.0
 10
-32.04455565605137
 20
-52.85672199199416
 30
0.0
 10
-31.82372503544685
 20
-52.87618678148581
 30
0.0
 10
-31.82372503544685
 20
-52.87618678148581
 30
0.0
 10
-10.36629231511676
 20
-54.76737194811371
 30
0.0
 10
-10.36629231511676
 20
-54.76737194811371
 30
0.0
 10
-9.882600908987683
 20
-54.80991887735655
 30
0.0
 10
-9.75168728054819
 20
-55.1408202987148
 30
0.0
 10
-10.07655978480725
 20
-55.50255532466603
 30
0.0
 10
-10.07655978480725
 20
-55.50255532466603
 30
0.0
 10
-24.4636230407591
 20
-71.5336181461791
 30
0.0
 10
-24.4636230407591
 20
-71.5336181461791
 30
0.0
 10
-24.4677571553414
 20
-71.53809677030992
 30
0.0
 10
-24.4718912699237
 20
-71.54291990398927
 30
0.0
 10
-24.47568087495747
 20
-71.54670950902305
 30
0.0
 10
-24.79848632192538
 20
-71.89328611483919
 30
0.0
 10
-25.20156249369961
 20
-71.81542695687254
 30
0.0
 10
-25.3779513825444
 20
-71.36963160108121
 30
0.0
 10
-25.3779513825444
 20
-71.36963160108121
 30
0.0
 10
-32.37976344676617
 20
-53.61998289675126
 30
0.0
 10
-32.37976344676617
 20
-53.61998289675126
 30
0.0
 10
-32.47691513945022
 20
-53.37451984342721
 30
0.0
 10
-32.44694280872854
 20
-53.16333549018139
 30
0.0
 10
-32.32119682351693
 20
-53.0282877471596
 30
0.0
  0
SPLINE
  5
3D
330
1F
100
AcDbEntity
  8
Layer 1
370
     0
100
AcDbSpline
210
0.0
220
0.0
230
1.0
 70
    11
 71
     3
 72
    41
 73
    37
 74
     0
 42
0.0000000001
 43
0.0000000001
 40
0.0
 40
0.0
 40
0.0
 40
0.0
 40
1.0
 40
1.0
 40
1.0
 40
2.0
 40
2.0
 40
2.0
 40
3.0
 40
3.0
 40
3.0
 40
4.0
 40
4.0
 40
4.0
 40
5.0
 40
5.0
 40
5.0
 40
6.0
 40
6.0
 40
6.0
 40
7.0
 40
7.0
 40
7.0
 40
8.0
 40
8.0
 40
8.0
 40
9.0
 40
9.0
 40
9.0
 40
10.0
 40
10.0
 40
10.0
 40
11.0
 40
11.0
 40
11.0
 40
12.0
 40
12.0
 40
12.0
 40
12.0
 10
-35.41971570295063
 20
-50.14353704258565
 30
0.0
 10
-35.41971570295063
 20
-50.14353704258565
 30
0.0
 10
-35.41971570295063
 20
-50.14353704258565
 30
0.0
 10
-35.41971570295063
 20
-50.14388155213417
 30
0.0
 10
-36.66890732590222
 20
-51.48557398886472
 30
0.0
 10
-37.01272785533016
 20
-53.41293265808774
 30
0.0
 10
-36.31716307685821
 20
-55.17440997969598
 30
0.0
 10
-36.31716307685821
 20
-55.17440997969598
 30
0.0
 10
-29.31569552218497
 20
-72.9228529006061
 30
0.0
 10
-29.31569552218497
 20
-72.9228529006061
 30
0.0
 10
-28.69557833484
 20
-74.49433320620281
 30
0.0
 10
-27.36852755392176
 20
-75.61243894594064
 30
0.0
 10
-25.76586913418353
 20
-75.9152628390941
 30
0.0
 10
-24.16493326218793
 20
-76.21860349657035
 30
0.0
 10
-22.52437879211196
 20
-75.66377086867087
 30
0.0
 10
-21.37750650507229
 20
-74.43163246837126
 30
0.0
 10
-21.35580240351522
 20
-74.40837807384582
 30
0.0
 10
-21.33409830195814
 20
-74.38426240544908
 30
0.0
 10
-21.31239420040107
 20
-74.35997448227806
 30
0.0
 10
-21.31239420040107
 20
-74.35997448227806
 30
0.0
 10
-6.925675453997748
 20
-58.32977293463631
 30
0.0
 10
-6.925675453997748
 20
-58.32977293463631
 30
0.0
 10
-5.698187932603231
 20
-56.96155326266933
 30
0.0
 10
-5.335763887554948
 20
-55.09637856695507
 30
0.0
 10
-5.980341252845193
 20
-53.46219752352681
 30
0.0
 10
-6.624574108586913
 20
-51.82801648009855
 30
0.0
 10
-8.162809242750965
 20
-50.71249456197466
 30
0.0
 10
-9.993188474064203
 20
-50.55040281939365
 30
0.0
 10
-9.993188474064203
 20
-50.55040281939365
 30
0.0
 10
-31.45234374213691
 20
-48.65887314321723
 30
0.0
 10
-31.45234374213691
 20
-48.65887314321723
 30
0.0
 10
-32.96956379384094
 20
-48.52520343838953
 30
0.0
 10
-34.41650389764587
 20
-49.06608342957376
 30
0.0
 10
-35.41971570295063
 20
-50.14353704258565
 30
0.0
 10
-35.41971570295063
 20
-50.14353704258565
 30
0.0
 10
-35.41971570295063
 20
-50.14353704258565
 30
0.0
 10
-35.41971570295063
 20
-50.14353704258565
 30
0.0
  0
SPLINE
  5
3E
330
1F
100
AcDbEntity
  8
Layer 1
370
     0
100
AcDbSpline
210
0.0
220
0.0
230
1.0
 70
    11
 71
     3
 72
    29
 73
    25
 74
     0
 42
0.0000000001
 43
0.0000000001
 40
0.0
 40
0.0
 40
0.0
 40
0.0
 40
1.0
 40
1.0
 40
1.0
 40
2.0
 40
2.0
 40
2.0
 40
3.0
 40
3.0
 40
3.0
 40
4.0
 40
4.0
 40
4.0
 40
5.0
 40
5.0
 40
5.0
 40
6.0
 40
6.0
 40
6.0
 40
7.0
 40
7.0
 40
7.0
 40
8.0
 40
8.0
 40
8.0
 40
8.0
 10
74.1522352245175
 20
-52.04350720270093
 30
0.0
 10
74.25558808907499
 20
-51.92913003259063
 30
0.0
 10
74.42612031559486
 20
-51.86677380430761
 30
0.0
 10
74.6472954457479
 20
-51.88210447921698
 30
0.0
 10
74.6472954457479
 20
-51.88210447921698
 30
0.0
 10
96.13607853499376
 20
-53.37589788162131
 30
0.0
 10
96.13607853499376
 20
-53.37589788162131
 30
0.0
 10
96.62045896021989
 20
-53.40931530782823
 30
0.0
 10
96.75722925098431
 20
-53.73797741712107
 30
0.0
 10
96.43924693769574
 20
-54.10556910539722
 30
0.0
 10
96.43924693769574
 20
-54.10556910539722
 30
0.0
 10
82.35121796986358
 20
-70.4001817315319
 30
0.0
 10
82.35121796986358
 20
-70.4001817315319
 30
0.0
 10
82.34742836482981
 20
-70.40466035566273
 30
0.0
 10
82.34363875979604
 20
-70.40948348934208
 30
0.0
 10
82.33984915476226
 20
-70.41361760392438
 30
0.0
 10
82.02358938921633
 20
-70.76587861729118
 30
0.0
 10
81.61913517924799
 20
-70.69559866939207
 30
0.0
 10
81.43447806123861
 20
-70.25307615431173
 30
0.0
 10
81.43447806123861
 20
-70.25307615431173
 30
0.0
 10
74.10469290682106
 20
-52.6360636261639
 30
0.0
 10
74.10469290682106
 20
-52.6360636261639
 30
0.0
 10
74.0034070995547
 20
-52.39232312058247
 30
0.0
 10
74.02958982524261
 20
-52.18079425778814
 30
0.0
 10
74.1522352245175
 20
-52.04350720270093
 30
0.0
  0
SPLINE
  5
3F
330
1F
100
AcDbEntity
  8
Layer 1
370
     0
100
AcDbSpline
210
0.0
220
0.0
230
1.0
 70
    11
 71
     3
 72
    41
 73
    37
 74
     0
 42
0.0000000001
 43
0.0000000001
 40
0.0
 40
0.0
 40
0.0
 40
0.0
 40
1.0
 40
1.0
 40
1.0
 40
2.0
 40
2.0
 40
2.0
 40
3.0
 40
3.0
 40
3.0
 40
4.0
 40
4.0
 40
4.0
 40
5.0
 40
5.0
 40
5.0
 40
6.0
 40
6.0
 40
6.0
 40
7.0
 40
7.0
 40
7.0
 40
8.0
 40
8.0
 40
8.0
 40
9.0
 40
9.0
 40
9.0
 40
10.0
 40
10.0
 40
10.0
 40
11.0
 40
11.0
 40
11.0
 40
12.0
 40
12.0
 40
12.0
 40
12.0
 10
71.001350893708
 20
-49.21663410227918
 30
0.0
 10
71.001350893708
 20
-49.21663410227918
 30
0.0
 10
71.001350893708
 20
-49.21680635705344
 30
0.0
 10
71.001350893708
 20
-49.21680635705344
 30
0.0
 10
69.77765297734726
 20
-50.5814086787609
 30
0.0
 10
69.4693169314174
 20
-52.51479626508311
 30
0.0
 10
70.19726560745069
 20
-54.2631822238474
 30
0.0
 10
70.19726560745069
 20
-54.2631822238474
 30
0.0
 10
77.52567272367413
 20
-71.87881671380113
 30
0.0
 10
77.52567272367413
 20
-71.87881671380113
 30
0.0
 10
78.17507322264373
 20
-73.43858369474799
 30
0.0
 10
79.52245006692495
 20
-74.53205700176629
 30
0.0
 10
81.13062063943957
 20
-74.80508081897234
 30
0.0
 10
82.73672415466305
 20
-75.07879365527545
 30
0.0
 10
84.36694333828326
 20
-74.49364418710576
 30
0.0
 10
85.49073348557177
 20
-73.2406629591204
 30
0.0
 10
85.51209307758032
 20
-73.21689180027217
 30
0.0
 10
85.53276365049182
 20
-73.19225936755264
 30
0.0
 10
85.55412324250037
 20
-73.16779918960736
 30
0.0
 10
85.55412324250037
 20
-73.16779918960736
 30
0.0
 10
99.64215221033253
 20
-56.87387558256973
 30
0.0
 10
99.64215221033253
 20
-56.87387558256973
 30
0.0
 10
100.8438015155877
 20
-55.48326278994863
 30
0.0
 10
101.1717746057835
 20
-53.61188692236092
 30
0.0
 10
100.4972249097715
 20
-51.98976371313103
 30
0.0
 10
99.82301972330814
 20
-50.36781275867541
 30
0.0
 10
98.26445852578111
 20
-49.28088513307909
 30
0.0
 10
96.43097870853114
 20
-49.15272758102779
 30
0.0
 10
96.43097870853114
 20
-49.15272758102779
 30
0.0
 10
74.94047307154267
 20
-47.65858966907494
 30
0.0
 10
74.94047307154267
 20
-47.65858966907494
 30
0.0
 10
73.42118596254748
 20
-47.55299749245203
 30
0.0
 10
71.9845811451983
 20
-48.1207492284212
 30
0.0
 10
71.001350893708
 20
-49.21663410227918
 30
0.0
 10
71.001350893708
 20
-49.21663410227918
 30
0.0
 10
71.001350893708
 20
-49.21663410227918
 30
0.0
 10
71.001350893708
 20
-49.21663410227918
 30
0.0
  0
SPLINE
  5
40
330
1F
100
AcDbEntity
  8
Layer 1
370
     0
100
AcDbSpline
210
0.0
220
0.0
230
1.0
 70
    11
 71
     3
 72
    29
 73
    25
 74
     0
 42
0.0000000001
 43
0.0000000001
 40
0.0
 40
0.0
 40
0.0
 40
0.0
 40
1.0
 40
1.0
 40
1.0
 40
2.0
 40
2.0
 40
2.0
 40
3.0
 40
3.0
 40
3.0
 40
4.0
 40
4.0
 40
4.0
 40
5.0
 40
5.0
 40
5.0
 40
6.0
 40
6.0
 40
6.0
 40
7.0
 40
7.0
 40
7.0
 40
8.0
 40
8.0
 40
8.0
 40
8.0
 10
62.62907984545384
 20
-70.09442950721598
 30
0.0
 10
62.78238659454746
 20
-70.08168265392055
 30
0.0
 10
62.94947372558208
 20
-70.15282387569097
 30
0.0
 10
63.10002439828749
 20
-70.31543238259475
 30
0.0
 10
63.10002439828749
 20
-70.31543238259475
 30
0.0
 10
77.74099119150226
 20
-86.11550155182182
 30
0.0
 10
77.74099119150226
 20
-86.11550155182182
 30
0.0
 10
78.07137584853771
 20
-86.47137991544813
 30
0.0
 10
77.94597437287462
 20
-86.80469290364606
 30
0.0
 10
77.46262747629407
 20
-86.8549912977307
 30
0.0
 10
77.46262747629407
 20
-86.8549912977307
 30
0.0
 10
56.03826767262238
 20
-89.08775768172111
 30
0.0
 10
56.03826767262238
 20
-89.08775768172111
 30
0.0
 10
56.03241101029746
 20
-89.08861895559244
 30
0.0
 10
56.02620983842401
 20
-89.08930797468948
 30
0.0
 10
56.0206976856476
 20
-89.089652484238
 30
0.0
 10
55.54871960416838
 20
-89.12996010141543
 30
0.0
 10
55.30205076742449
 20
-88.80181475644538
 30
0.0
 10
55.47086044620173
 20
-88.35291881471733
 30
0.0
 10
55.47086044620173
 20
-88.35291881471733
 30
0.0
 10
62.18845213289039
 20
-70.49371607395643
 30
0.0
 10
62.18845213289039
 20
-70.49371607395643
 30
0.0
 10
62.28181422054066
 20
-70.24670272766402
 30
0.0
 10
62.4451117465415
 20
-70.11027694644812
 30
0.0
 10
62.62907984545384
 20
-70.09442950721598
 30
0.0
  0
SPLINE
  5
41
330
1F
100
AcDbEntity
  8
Layer 1
370
     0
100
AcDbSpline
210
0.0
220
0.0
230
1.0
 70
    11
 71
     3
 72
    41
 73
    37
 74
     0
 42
0.0000000001
 43
0.0000000001
 40
0.0
 40
0.0
 40
0.0
 40
0.0
 40
1.0
 40
1.0
 40
1.0
 40
2.0
 40
2.0
 40
2.0
 40
3.0
 40
3.0
 40
3.0
 40
4.0
 40
4.0
 40
4.0
 40
5.0
 40
5.0
 40
5.0
 40
6.0
 40
6.0
 40
6.0
 40
7.0
 40
7.0
 40
7.0
 40
8.0
 40
8.0
 40
8.0
 40
9.0
 40
9.0
 40
9.0
 40
10.0
 40
10.0
 40
10.0
 40
11.0
 40
11.0
 40
11.0
 40
12.0
 40
12.0
 40
12.0
 40
12.0
 10
62.26734481950261
 20
-65.8765991046246
 30
0.0
 10
62.26734481950261
 20
-65.8765991046246
 30
0.0
 10
62.26734481950261
 20
-65.8765991046246
 30
0.0
 10
62.26700030995408
 20
-65.8765991046246
 30
0.0
 10
60.44075519322315
 20
-66.03352320397774
 30
0.0
 10
58.89252928215187
 20
-67.23189966852189
 30
0.0
 10
58.22624781530455
 20
-69.0045735504572
 30
0.0
 10
58.22624781530455
 20
-69.0045735504572
 30
0.0
 10
51.5086561286159
 20
-86.86222599824973
 30
0.0
 10
51.5086561286159
 20
-86.86222599824973
 30
0.0
 10
50.91403264786177
 20
-88.4435248259794
 30
0.0
 10
51.14761012176171
 20
-90.16314423744186
 30
0.0
 10
52.13290743054316
 20
-91.46297876402662
 30
0.0
 10
53.11648219158199
 20
-92.76212427151434
 30
0.0
 10
54.70501571983069
 20
-93.45148787811283
 30
0.0
 10
56.38243271159884
 20
-93.30765514160365
 30
0.0
 10
56.41378308051461
 20
-93.30472681044118
 30
0.0
 10
56.44582246852744
 20
-93.30128171495593
 30
0.0
 10
56.47820636608878
 20
-93.29800887424494
 30
0.0
 10
56.47820636608878
 20
-93.29800887424494
 30
0.0
 10
77.90187715066342
 20
-91.06541474502879
 30
0.0
 10
77.90187715066342
 20
-91.06541474502879
 30
0.0
 10
79.72984481513699
 20
-90.87455645514595
 30
0.0
 10
81.25016545277774
 20
-89.7349188686253
 30
0.0
 10
81.8689046019286
 20
-88.09074704828981
 30
0.0
 10
82.487988260628
 20
-86.4467474827286
 30
0.0
 10
82.09593639440658
 20
-84.58760170411352
 30
0.0
 10
80.84743379055203
 20
-83.23919133118673
 30
0.0
 10
80.84743379055203
 20
-83.23919133118673
 30
0.0
 10
66.20508895914317
 20
-67.4375718689913
 30
0.0
 10
66.20508895914317
 20
-67.4375718689913
 30
0.0
 10
65.1698377658256
 20
-66.32032740312478
 30
0.0
 10
63.73426647712199
 20
-65.75085311941298
 30
0.0
 10
62.26734481950261
 20
-65.8765991046246
 30
0.0
 10
62.26734481950261
 20
-65.8765991046246
 30
0.0
 10
62.26734481950261
 20
-65.8765991046246
 30
0.0
 10
62.26734481950261
 20
-65.8765991046246
 30
0.0
  0
SPLINE
  5
42
330
1F
100
AcDbEntity
  8
Layer 1
370
     0
100
AcDbSpline
210
0.0
220
0.0
230
1.0
 70
    11
 71
     3
 72
    29
 73
    25
 74
     0
 42
0.0000000001
 43
0.0000000001
 40
0.0
 40
0.0
 40
0.0
 40
0.0
 40
1.0
 40
1.0
 40
1.0
 40
2.0
 40
2.0
 40
2.0
 40
3.0
 40
3.0
 40
3.0
 40
4.0
 40
4.0
 40
4.0
 40
5.0
 40
5.0
 40
5.0
 40
6.0
 40
6.0
 40
6.0
 40
7.0
 40
7.0
 40
7.0
 40
8.0
 40
8.0
 40
8.0
 40
8.0
 10
43.74788952899358
 20
-91.09073619684537
 30
0.0
 10
43.61077472868064
 20
-91.16153290906726
 30
0.0
 10
43.4295627061565
 20
-91.1599826160989
 30
0.0
 10
43.22768011072086
 20
-91.0676540570942
 30
0.0
 10
43.22768011072086
 20
-91.0676540570942
 30
0.0
 10
23.64093423888144
 20
-82.10403236879691
 30
0.0
 10
23.64093423888144
 20
-82.10403236879691
 30
0.0
 10
23.19927299767241
 20
-81.90232202813553
 30
0.0
 10
23.18687065392551
 20
-81.54661591928348
 30
0.0
 10
23.61371798454796
 20
-81.31441648357765
 30
0.0
 10
23.61371798454796
 20
-81.31441648357765
 30
0.0
 10
42.53659395637974
 20
-71.02305499526507
 30
0.0
 10
42.53659395637974
 20
-71.02305499526507
 30
0.0
 10
42.54141709005909
 20
-71.01995440932835
 30
0.0
 10
42.54692924283549
 20
-71.01702607816588
 30
0.0
 10
42.55244139561189
 20
-71.01444225655194
 30
0.0
 10
42.97205402571532
 20
-70.79602320278711
 30
0.0
 10
43.326209841599
 20
-71.00427922487046
 30
0.0
 10
43.3427462999282
 20
-71.48349200686872
 30
0.0
 10
43.3427462999282
 20
-71.48349200686872
 30
0.0
 10
44.00075953761093
 20
-90.55295679159788
 30
0.0
 10
44.00075953761093
 20
-90.55295679159788
 30
0.0
 10
44.00971678587257
 20
-90.81685110576801
 30
0.0
 10
43.91118705499443
 20
-91.0056423383597
 30
0.0
 10
43.74788952899358
 20
-91.09073619684537
 30
0.0
  0
SPLINE
  5
43
330
1F
100
AcDbEntity
  8
Layer 1
370
     0
100
AcDbSpline
210
0.0
220
0.0
230
1.0
 70
    11
 71
     3
 72
    41
 73
    37
 74
     0
 42
0.0000000001
 43
0.0000000001
 40
0.0
 40
0.0
 40
0.0
 40
0.0
 40
1.0
 40
1.0
 40
1.0
 40
2.0
 40
2.0
 40
2.0
 40
3.0
 40
3.0
 40
3.0
 40
4.0
 40
4.0
 40
4.0
 40
5.0
 40
5.0
 40
5.0
 40
6.0
 40
6.0
 40
6.0
 40
7.0
 40
7.0
 40
7.0
 40
8.0
 40
8.0
 40
8.0
 40
9.0
 40
9.0
 40
9.0
 40
10.0
 40
10.0
 40
10.0
 40
11.0
 40
11.0
 40
11.0
 40
12.0
 40
12.0
 40
12.0
 40
12.0
 10
45.70194768822729
 20
-94.84606253054196
 30
0.0
 10
45.70194768822729
 20
-94.84606253054196
 30
0.0
 10
45.70194768822729
 20
-94.8458902757677
 30
0.0
 10
45.70194768822729
 20
-94.8458902757677
 30
0.0
 10
47.32803275726522
 20
-93.99960256981608
 30
0.0
 10
48.29679360771747
 20
-92.2984144191997
 30
0.0
 10
48.23133679349773
 20
-90.40567895960345
 30
0.0
 10
48.23133679349773
 20
-90.40567895960345
 30
0.0
 10
47.573323555815
 20
-71.33776446784265
 30
0.0
 10
47.573323555815
 20
-71.33776446784265
 30
0.0
 10
47.51510144211428
 20
-69.6493231705217
 30
0.0
 10
46.63901366021525
 20
-68.15139565353508
 30
0.0
 10
45.22996960674806
 20
-67.32974038030298
 30
0.0
 10
43.82299261057203
 20
-66.5080851070709
 30
0.0
 10
42.09114311013694
 20
-66.481902381383
 30
0.0
 10
40.59769421728113
 20
-67.2589436680811
 30
0.0
 10
40.57013345339914
 20
-67.27375757866767
 30
0.0
 10
40.54153916087156
 20
-67.28943276312556
 30
0.0
 10
40.51294486834399
 20
-67.30476343803493
 30
0.0
 10
40.51294486834399
 20
-67.30476343803493
 30
0.0
 10
21.59041340606073
 20
-77.59578041679897
 30
0.0
 10
21.59041340606073
 20
-77.59578041679897
 30
0.0
 10
19.97604166167266
 20
-78.47427976553769
 30
0.0
 10
19.01038139715713
 20
-80.11035561148283
 30
0.0
 10
19.070670568149
 20
-81.86614852554041
 30
0.0
 10
19.13095973914087
 20
-83.62176918482373
 30
0.0
 10
20.2068630591844
 20
-85.18773733764404
 30
0.0
 10
21.87773436953057
 20
-85.95289304491803
 30
0.0
 10
21.87773436953057
 20
-85.95289304491803
 30
0.0
 10
41.46654729866114
 20
-94.9175482618609
 30
0.0
 10
41.46654729866114
 20
-94.9175482618609
 30
0.0
 10
42.85147568373158
 20
-95.55144583114686
 30
0.0
 10
44.39591198976908
 20
-95.52560761500749
 30
0.0
 10
45.70194768822729
 20
-94.84606253054196
 30
0.0
 10
45.70194768822729
 20
-94.84606253054196
 30
0.0
 10
45.70194768822729
 20
-94.84606253054196
 30
0.0
 10
45.70194768822729
 20
-94.84606253054196
 30
0.0
  0
SPLINE
  5
44
330
1F
100
AcDbEntity
  8
Layer 1
370
     0
100
AcDbSpline
210
0.0
220
0.0
230
1.0
 70
    11
 71
     3
 72
    29
 73
    25
 74
     0
 42
0.0000000001
 43
0.0000000001
 40
0.0
 40
0.0
 40
0.0
 40
0.0
 40
1.0
 40
1.0
 40
1.0
 40
2.0
 40
2.0
 40
2.0
 40
3.0
 40
3.0
 40
3.0
 40
4.0
 40
4.0
 40
4.0
 40
5.0
 40
5.0
 40
5.0
 40
6.0
 40
6.0
 40
6.0
 40
7.0
 40
7.0
 40
7.0
 40
8.0
 40
8.0
 40
8.0
 40
8.0
 10
20.62440863199668
 20
-49.55477022415645
 30
0.0
 10
20.75704480817879
 20
-49.47673881141554
 30
0.0
 10
20.93860134025146
 20
-49.4686428370252
 30
0.0
 10
21.1446180502694
 20
-49.5499470904771
 30
0.0
 10
21.1446180502694
 20
-49.5499470904771
 30
0.0
 10
41.18060437338541
 20
-57.45971406983647
 30
0.0
 10
41.18060437338541
 20
-57.45971406983647
 30
0.0
 10
41.63225639150166
 20
-57.63782550642388
 30
0.0
 10
41.66360676041743
 20
-57.99232583185609
 30
0.0
 10
41.2495062830904
 20
-58.24691838821605
 30
0.0
 10
41.2495062830904
 20
-58.24691838821605
 30
0.0
 10
22.90023870955272
 20
-69.529433847635
 30
0.0
 10
22.90023870955272
 20
-69.529433847635
 30
0.0
 10
22.89576008542189
 20
-69.53287894312025
 30
0.0
 10
22.89059244219402
 20
-69.53615178383124
 30
0.0
 10
22.88508028941762
 20
-69.53890786021944
 30
0.0
 10
22.47752549351256
 20
-69.77937552508988
 30
0.0
 10
22.11337890072166
 20
-69.59023978294967
 30
0.0
 10
22.07065971670456
 20
-69.11257729391977
 30
0.0
 10
22.07065971670456
 20
-69.11257729391977
 30
0.0
 10
20.39978840635839
 20
-50.10512422792511
 30
0.0
 10
20.39978840635839
 20
-50.10512422792511
 30
0.0
 10
20.37705077615574
 20
-49.84209118762629
 30
0.0
 10
20.46558973012666
 20
-49.64830456658098
 30
0.0
 10
20.62440863199668
 20
-49.55477022415645
 30
0.0
  0
SPLINE
  5
45
330
1F
100
AcDbEntity
  8
Layer 1
370
     0
100
AcDbSpline
210
0.0
220
0.0
230
1.0
 70
    11
 71
     3
 72
    41
 73
    37
 74
     0
 42
0.0000000001
 43
0.0000000001
 40
0.0
 40
0.0
 40
0.0
 40
0.0
 40
1.0
 40
1.0
 40
1.0
 40
2.0
 40
2.0
 40
2.0
 40
3.0
 40
3.0
 40
3.0
 40
4.0
 40
4.0
 40
4.0
 40
5.0
 40
5.0
 40
5.0
 40
6.0
 40
6.0
 40
6.0
 40
7.0
 40
7.0
 40
7.0
 40
8.0
 40
8.0
 40
8.0
 40
9.0
 40
9.0
 40
9.0
 40
10.0
 40
10.0
 40
10.0
 40
11.0
 40
11.0
 40
11.0
 40
12.0
 40
12.0
 40
12.0
 40
12.0
 10
18.47329101100668
 20
-45.90848116256802
 30
0.0
 10
18.47329101100668
 20
-45.90848116256802
 30
0.0
 10
18.47294650145815
 20
-45.90865341734229
 30
0.0
 10
18.47294650145815
 20
-45.90865341734229
 30
0.0
 10
16.8947482596652
 20
-46.84020723655384
 30
0.0
 10
16.01728243957207
 20
-48.59048799783502
 30
0.0
 10
16.18368055150964
 20
-50.47702228555783
 30
0.0
 10
16.18368055150964
 20
-50.47702228555783
 30
0.0
 10
17.85386284275876
 20
-69.4830973133584
 30
0.0
 10
17.85386284275876
 20
-69.4830973133584
 30
0.0
 10
18.0020019486245
 20
-71.16602645790294
 30
0.0
 10
18.95663790758723
 20
-72.61520587377329
 30
0.0
 10
20.40736761642594
 20
-73.36089679155562
 30
0.0
 10
21.85603026797349
 20
-74.10641545456367
 30
0.0
 10
23.58650173021449
 20
-74.0406141307954
 30
0.0
 10
25.03654241995614
 20
-73.18519692180787
 30
0.0
 10
25.06375867428962
 20
-73.1690049730272
 30
0.0
 10
25.09131943817162
 20
-73.15177949560095
 30
0.0
 10
25.11888020205361
 20
-73.13507078249748
 30
0.0
 10
25.11888020205361
 20
-73.13507078249748
 30
0.0
 10
43.46745875649425
 20
-61.8527275778528
 30
0.0
 10
43.46745875649425
 20
-61.8527275778528
 30
0.0
 10
45.03291014499177
 20
-60.8896511349512
 30
0.0
 10
45.91037596508491
 20
-59.20448267834124
 30
0.0
 10
45.75638019689424
 20
-57.45437417183432
 30
0.0
 10
45.60341795734914
 20
-55.70461017487593
 30
0.0
 10
44.44586587430521
 20
-54.19789766440191
 30
0.0
 10
42.73640949452423
 20
-53.52265894929295
 30
0.0
 10
42.73640949452423
 20
-53.52265894929295
 30
0.0
 10
22.69904513321413
 20
-45.61203069606227
 30
0.0
 10
22.69904513321413
 20
-45.61203069606227
 30
0.0
 10
21.2824218696794
 20
-45.0525471892577
 30
0.0
 10
19.74108614957862
 20
-45.16037867794602
 30
0.0
 10
18.47329101100668
 20
-45.90848116256802
 30
0.0
 10
18.47329101100668
 20
-45.90848116256802
 30
0.0
 10
18.47329101100668
 20
-45.90848116256802
 30
0.0
 10
18.47329101100668
 20
-45.90848116256802
 30
0.0
  0
SPLINE
  5
46
330
1F
100
AcDbEntity
  8
Layer 1
370
     0
100
AcDbSpline
210
0.0
220
0.0
230
1.0
 70
    11
 71
     3
 72
    29
 73
    25
 74
     0
 42
0.0000000001
 43
0.0000000001
 40
0.0
 40
0.0
 40
0.0
 40
0.0
 40
1.0
 40
1.0
 40
1.0
 40
2.0
 40
2.0
 40
2.0
 40
3.0
 40
3.0
 40
3.0
 40
4.0
 40
4.0
 40
4.0
 40
5.0
 40
5.0
 40
5.0
 40
6.0
 40
6.0
 40
6.0
 40
7.0
 40
7.0
 40
7.0
 40
8.0
 40
8.0
 40
8.0
 40
8.0
 10
10.92715386011543
 20
-81.2067572496636
 30
0.0
 10
10.79072807889954
 20
-81.27755396188547
 30
0.0
 10
10.60882703727835
 20
-81.27600366891711
 30
0.0
 10
10.40763346093976
 20
-81.18367510991241
 30
0.0
 10
10.40763346093976
 20
-81.18367510991241
 30
0.0
 10
-9.179801429996717
 20
-72.22005342161513
 30
0.0
 10
-9.179801429996717
 20
-72.22005342161513
 30
0.0
 10
-9.621462671205746
 20
-72.01834308095376
 30
0.0
 10
-9.633865014952645
 20
-71.66263697210171
 30
0.0
 10
-9.206673174781665
 20
-71.43043753639587
 30
0.0
 10
-9.206673174781665
 20
-71.43043753639587
 30
0.0
 10
9.716202797050116
 20
-61.13907604808329
 30
0.0
 10
9.716202797050116
 20
-61.13907604808329
 30
0.0
 10
9.721025930729466
 20
-61.13597546214656
 30
0.0
 10
9.726538083505867
 20
-61.1330471309841
 30
0.0
 10
9.731705726733741
 20
-61.13046330937016
 30
0.0
 10
10.15200737593422
 20
-60.91204425560532
 30
0.0
 10
10.50547417272085
 20
-61.12030027768868
 30
0.0
 10
10.5226996501471
 20
-61.59951305968693
 30
0.0
 10
10.5226996501471
 20
-61.59951305968693
 30
0.0
 10
11.18071288782982
 20
-80.66897784441609
 30
0.0
 10
11.18071288782982
 20
-80.66897784441609
 30
0.0
 10
11.18967013609147
 20
-80.93287215858624
 30
0.0
 10
11.0907958956648
 20
-81.12166339117792
 30
0.0
 10
10.92715386011543
 20
-81.2067572496636
 30
0.0
  0
SPLINE
  5
47
330
1F
100
AcDbEntity
  8
Layer 1
370
     0
100
AcDbSpline
210
0.0
220
0.0
230
1.0
 70
    11
 71
     3
 72
    41
 73
    37
 74
     0
 42
0.0000000001
 43
0.0000000001
 40
0.0
 40
0.0
 40
0.0
 40
0.0
 40
1.0
 40
1.0
 40
1.0
 40
2.0
 40
2.0
 40
2.0
 40
3.0
 40
3.0
 40
3.0
 40
4.0
 40
4.0
 40
4.0
 40
5.0
 40
5.0
 40
5.0
 40
6.0
 40
6.0
 40
6.0
 40
7.0
 40
7.0
 40
7.0
 40
8.0
 40
8.0
 40
8.0
 40
9.0
 40
9.0
 40
9.0
 40
10.0
 40
10.0
 40
10.0
 40
11.0
 40
11.0
 40
11.0
 40
12.0
 40
12.0
 40
12.0
 40
12.0
 10
12.88155652889767
 20
-84.96208358336018
 30
0.0
 10
12.88155652889767
 20
-84.96208358336018
 30
0.0
 10
12.88155652889767
 20
-84.96208358336018
 30
0.0
 10
12.88190103844619
 20
-84.96191132858591
 30
0.0
 10
14.50729708838707
 20
-84.11562362263429
 30
0.0
 10
15.47674695793637
 20
-82.41443547201793
 30
0.0
 10
15.4109456341681
 20
-80.52170001242166
 30
0.0
 10
15.4109456341681
 20
-80.52170001242166
 30
0.0
 10
14.7532769060339
 20
-61.45378552066087
 30
0.0
 10
14.7532769060339
 20
-61.45378552066087
 30
0.0
 10
14.69471028278466
 20
-59.76534422333992
 30
0.0
 10
13.8182779913371
 20
-58.26741670635329
 30
0.0
 10
12.40923393786991
 20
-57.4457614331212
 30
0.0
 10
11.00225694169388
 20
-56.62410615988912
 30
0.0
 10
9.270751950807313
 20
-56.59792343420121
 30
0.0
 10
7.777647567500033
 20
-57.37496472089931
 30
0.0
 10
7.749397784520984
 20
-57.38977863148589
 30
0.0
 10
7.721148001541936
 20
-57.40545381594378
 30
0.0
 10
7.692553709014362
 20
-57.42078449085314
 30
0.0
 10
7.692553709014362
 20
-57.42078449085314
 30
0.0
 10
-11.22963324372037
 20
-67.71180146961719
 30
0.0
 10
-11.22963324372037
 20
-67.71180146961719
 30
0.0
 10
-12.84400498810844
 20
-68.5903008183559
 30
0.0
 10
-13.8100097621725
 20
-70.22637666430104
 30
0.0
 10
-13.7493760816321
 20
-71.98216957835862
 30
0.0
 10
-13.68943142018875
 20
-73.73779023764195
 30
0.0
 10
-12.61352810014523
 20
-75.30375839046226
 30
0.0
 10
-10.94265678979906
 20
-76.06891409773625
 30
0.0
 10
-10.94265678979906
 20
-76.06891409773625
 30
0.0
 10
8.645811629782992
 20
-85.03356931467911
 30
0.0
 10
8.645811629782992
 20
-85.03356931467911
 30
0.0
 10
10.03108452440195
 20
-85.66746688396508
 30
0.0
 10
11.57552083043945
 20
-85.64162866782571
 30
0.0
 10
12.88155652889767
 20
-84.96208358336018
 30
0.0
 10
12.88155652889767
 20
-84.96208358336018
 30
0.0
 10
12.88155652889767
 20
-84.96208358336018
 30
0.0
 10
12.88155652889767
 20
-84.96208358336018
 30
0.0
  0
SPLINE
  5
48
330
1F
100
AcDbEntity
  8
Layer 1
370
     0
100
AcDbSpline
210
0.0
220
0.0
230
1.0
 70
    11
 71
     3
 72
    29
 73
    25
 74
     0
 42
0.0000000001
 43
0.0000000001
 40
0.0
 40
0.0
 40
0.0
 40
0.0
 40
1.0
 40
1.0
 40
1.0
 40
2.0
 40
2.0
 40
2.0
 40
3.0
 40
3.0
 40
3.0
 40
4.0
 40
4.0
 40
4.0
 40
5.0
 40
5.0
 40
5.0
 40
6.0
 40
6.0
 40
6.0
 40
7.0
 40
7.0
 40
7.0
 40
8.0
 40
8.0
 40
8.0
 40
8.0
 10
189.362084913597
 20
-214.5171386182457
 30
0.0
 10
189.2642442018159
 20
-214.6363389220354
 30
0.0
 10
189.0961235421357
 20
-214.7052408317404
 30
0.0
 10
188.8749484119827
 20
-214.6990396598669
 30
0.0
 10
188.8749484119827
 20
-214.6990396598669
 30
0.0
 10
167.3413790814286
 20
-214.1292208666066
 30
0.0
 10
167.3413790814286
 20
-214.1292208666066
 30
0.0
 10
166.8563096371054
 20
-214.1168185228597
 30
0.0
 10
166.7057589644
 20
-213.7943575854403
 30
0.0
 10
167.0072048193593
 20
-213.4133300247717
 30
0.0
 10
167.0072048193593
 20
-213.4133300247717
 30
0.0
 10
180.3834770599389
 20
-196.5289170515622
 30
0.0
 10
180.3834770599389
 20
-196.5289170515622
 30
0.0
 10
180.3869221554241
 20
-196.5240939178829
 30
0.0
 10
180.3907117604579
 20
-196.5192707842035
 30
0.0
 10
180.3945013654917
 20
-196.5151366696212
 30
0.0
 10
180.695258201354
 20
-196.1492675290877
 30
0.0
 10
181.102123978162
 20
-196.2037000377546
 30
0.0
 10
181.3057291213402
 20
-196.6370930497991
 30
0.0
 10
181.3057291213402
 20
-196.6370930497991
 30
0.0
 10
189.3841335247026
 20
-213.9232041565886
 30
0.0
 10
189.3841335247026
 20
-213.9232041565886
 30
0.0
 10
189.4957546184247
 20
-214.162293783265
 30
0.0
 10
189.4792181600955
 20
-214.3745116651564
 30
0.0
 10
189.362084913597
 20
-214.5171386182457
 30
0.0
  0
SPLINE
  5
49
330
1F
100
AcDbEntity
  8
Layer 1
370
     0
100
AcDbSpline
210
0.0
220
0.0
230
1.0
 70
    11
 71
     3
 72
    44
 73
    40
 74
     0
 42
0.0000000001
 43
0.0000000001
 40
0.0
 40
0.0
 40
0.0
 40
0.0
 40
1.0
 40
1.0
 40
1.0
 40
2.0
 40
2.0
 40
2.0
 40
3.0
 40
3.0
 40
3.0
 40
4.0
 40
4.0
 40
4.0
 40
5.0
 40
5.0
 40
5.0
 40
6.0
 40
6.0
 40
6.0
 40
7.0
 40
7.0
 40
7.0
 40
8.0
 40
8.0
 40
8.0
 40
9.0
 40
9.0
 40
9.0
 40
10.0
 40
10.0
 40
10.0
 40
11.0
 40
11.0
 40
11.0
 40
12.0
 40
12.0
 40
12.0
 40
13.0
 40
13.0
 40
13.0
 40
13.0
 10
161.8026990697924
 20
-217.3049098849099
 30
0.0
 10
162.0538465306671
 20
-217.4930120984045
 30
0.0
 10
162.3546033665294
 20
-217.6011880966414
 30
0.0
 10
162.6674180365901
 20
-217.6177245549706
 30
0.0
 10
162.6674180365901
 20
-217.6177245549706
 30
0.0
 10
167.0368326405325
 20
-217.8375216469295
 30
0.0
 10
167.0368326405325
 20
-217.8375216469295
 30
0.0
 10
167.1553439252251
 20
-217.8464788951912
 30
0.0
 10
167.2755777576603
 20
-217.8526800670646
 30
0.0
 10
167.3975341378381
 20
-217.8561251625499
 30
0.0
 10
167.3975341378381
 20
-217.8561251625499
 30
0.0
 10
167.4175156916526
 20
-217.8568141816469
 30
0.0
 10
167.4175156916526
 20
-217.8568141816469
 30
0.0
 10
167.4175156916526
 20
-217.8568141816469
 30
0.0
 10
188.8942409467001
 20
-218.8042154400906
 30
0.0
 10
188.8942409467001
 20
-218.8042154400906
 30
0.0
 10
190.4011257119483
 20
-218.8441785477195
 30
0.0
 10
191.796044873926
 20
-218.2219943030834
 30
0.0
 10
192.7210530117156
 20
-217.0975151366979
 30
0.0
 10
193.8730929419831
 20
-215.6967393123953
 30
0.0
 10
194.0956461103303
 20
-213.7729979934318
 30
0.0
 10
193.3018961105287
 20
-212.0759439573977
 30
0.0
 10
193.3018961105287
 20
-212.0759439573977
 30
0.0
 10
185.3123751706858
 20
-194.9786240831998
 30
0.0
 10
185.3123751706858
 20
-194.9786240831998
 30
0.0
 10
184.6037190293699
 20
-193.464849126981
 30
0.0
 10
183.22568083527
 20
-192.4409667487648
 30
0.0
 10
181.6250894728229
 20
-192.2397731724262
 30
0.0
 10
180.0262206581185
 20
-192.0378905769905
 30
0.0
 10
178.4400986967094
 20
-192.6848795091205
 30
0.0
 10
177.3824543827377
 20
-193.9705891442157
 30
0.0
 10
177.3631618480203
 20
-193.9947048126124
 30
0.0
 10
177.3431802942059
 20
-194.0201985192033
 30
0.0
 10
177.3231987403914
 20
-194.0450032066971
 30
0.0
 10
177.3231987403914
 20
-194.0450032066971
 30
0.0
 10
161.4864393042465
 20
-215.10004877435
 30
0.0
 10
161.4864393042465
 20
-215.10004877435
 30
0.0
 10
160.9648518477796
 20
-215.7959580623705
 30
0.0
 10
161.1071342913204
 20
-216.7833224284431
 30
0.0
 10
161.8026990697924
 20
-217.3049098849099
 30
0.0
  0
SPLINE
  5
4A
330
1F
100
AcDbEntity
  8
Layer 1
370
     0
100
AcDbSpline
210
0.0
220
0.0
230
1.0
 70
    11
 71
     3
 72
    29
 73
    25
 74
     0
 42
0.0000000001
 43
0.0000000001
 40
0.0
 40
0.0
 40
0.0
 40
0.0
 40
1.0
 40
1.0
 40
1.0
 40
2.0
 40
2.0
 40
2.0
 40
3.0
 40
3.0
 40
3.0
 40
4.0
 40
4.0
 40
4.0
 40
5.0
 40
5.0
 40
5.0
 40
6.0
 40
6.0
 40
6.0
 40
7.0
 40
7.0
 40
7.0
 40
8.0
 40
8.0
 40
8.0
 40
8.0
 10
210.3179117312747
 20
-186.0241318979384
 30
0.0
 10
210.3723442399416
 20
-186.1681368892219
 30
0.0
 10
210.3482285715449
 20
-186.348659892649
 30
0.0
 10
210.2317843441434
 20
-186.5367621061436
 30
0.0
 10
210.2317843441434
 20
-186.5367621061436
 30
0.0
 10
198.9587428973089
 20
-204.8922308515547
 30
0.0
 10
198.9587428973089
 20
-204.8922308515547
 30
0.0
 10
198.7051838695945
 20
-205.3063313288818
 30
0.0
 10
198.3506835441623
 20
-205.2753254695145
 30
0.0
 10
198.1715385789294
 20
-204.8233289418497
 30
0.0
 10
198.1715385789294
 20
-204.8233289418497
 30
0.0
 10
190.25126405834
 20
-184.791476733316
 30
0.0
 10
190.25126405834
 20
-184.791476733316
 30
0.0
 10
190.2491970010488
 20
-184.7859645805396
 30
0.0
 10
190.2467854342092
 20
-184.7804524277632
 30
0.0
 10
190.2450628864665
 20
-184.7749402749868
 30
0.0
 10
190.0790092840775
 20
-184.3319009955837
 30
0.0
 10
190.3294677258552
 20
-184.0066839817761
 30
0.0
 10
190.8069579601108
 20
-184.0473361085021
 30
0.0
 10
190.8069579601108
 20
-184.0473361085021
 30
0.0
 10
209.8149277904282
 20
-185.7071831132954
 30
0.0
 10
209.8149277904282
 20
-185.7071831132954
 30
0.0
 10
210.0777885759528
 20
-185.7306097625951
 30
0.0
 10
210.2534884457005
 20
-185.8511881045789
 30
0.0
 10
210.3179117312747
 20
-186.0241318979384
 30
0.0
  0
SPLINE
  5
4B
330
1F
100
AcDbEntity
  8
Layer 1
370
     0
100
AcDbSpline
210
0.0
220
0.0
230
1.0
 70
    11
 71
     3
 72
    44
 73
    40
 74
     0
 42
0.0000000001
 43
0.0000000001
 40
0.0
 40
0.0
 40
0.0
 40
0.0
 40
1.0
 40
1.0
 40
1.0
 40
2.0
 40
2.0
 40
2.0
 40
3.0
 40
3.0
 40
3.0
 40
4.0
 40
4.0
 40
4.0
 40
5.0
 40
5.0
 40
5.0
 40
6.0
 40
6.0
 40
6.0
 40
7.0
 40
7.0
 40
7.0
 40
8.0
 40
8.0
 40
8.0
 40
9.0
 40
9.0
 40
9.0
 40
10.0
 40
10.0
 40
10.0
 40
11.0
 40
11.0
 40
11.0
 40
12.0
 40
12.0
 40
12.0
 40
13.0
 40
13.0
 40
13.0
 40
13.0
 10
198.9353162480092
 20
-211.2773708239168
 30
0.0
 10
199.2236707401246
 20
-211.1540364055448
 30
0.0
 10
199.4682725195774
 20
-210.9473306764299
 30
0.0
 10
199.6388047460973
 20
-210.6848144004538
 30
0.0
 10
199.6388047460973
 20
-210.6848144004538
 30
0.0
 10
202.0166096500167
 20
-207.0123426131775
 30
0.0
 10
202.0166096500167
 20
-207.0123426131775
 30
0.0
 10
202.0837890119791
 20
-206.9145019013964
 30
0.0
 10
202.1492458261988
 20
-206.8139051132271
 30
0.0
 10
202.2133246022244
 20
-206.7098632295725
 30
0.0
 10
202.2133246022244
 20
-206.7098632295725
 30
0.0
 10
202.2240043982287
 20
-206.6926377521463
 30
0.0
 10
202.2240043982287
 20
-206.6926377521463
 30
0.0
 10
202.2240043982287
 20
-206.6926377521463
 30
0.0
 10
213.7950466045374
 20
-188.5748805952174
 30
0.0
 10
213.7950466045374
 20
-188.5748805952174
 30
0.0
 10
214.5839734706596
 20
-187.2905489983163
 30
0.0
 10
214.7438259011752
 20
-185.7712618893211
 30
0.0
 10
214.2332627502611
 20
-184.4076930962592
 30
0.0
 10
213.597298123684
 20
-182.709261022031
 30
0.0
 10
212.0435600598364
 20
-181.5537759962782
 30
0.0
 10
210.1773518354765
 20
-181.3911674893744
 30
0.0
 10
210.1773518354765
 20
-181.3911674893744
 30
0.0
 10
191.3767767533711
 20
-179.7485459620073
 30
0.0
 10
191.3767767533711
 20
-179.7485459620073
 30
0.0
 10
189.7114175958013
 20
-179.6045409707239
 30
0.0
 10
188.1352864112995
 20
-180.2846028195122
 30
0.0
 10
187.1599798794253
 20
-181.5696234355104
 30
0.0
 10
186.1846733475511
 20
-182.8525769942174
 30
0.0
 10
185.9507513641026
 20
-184.5496310302515
 30
0.0
 10
186.5343505393039
 20
-186.1088812468756
 30
0.0
 10
186.5457193544052
 20
-186.1378200489517
 30
0.0
 10
186.5577771886036
 20
-186.1674478701248
 30
0.0
 10
186.569146003705
 20
-186.197075691298
 30
0.0
 10
186.569146003705
 20
-186.197075691298
 30
0.0
 10
196.8682589568593
 20
-210.4471028119716
 30
0.0
 10
196.8682589568593
 20
-210.4471028119716
 30
0.0
 10
197.2096679194476
 20
-211.2470539836466
 30
0.0
 10
198.1353650763342
 20
-211.6177462578595
 30
0.0
 10
198.9353162480092
 20
-211.2773708239168
 30
0.0
  0
SPLINE
  5
4C
330
1F
100
AcDbEntity
  8
Layer 1
370
     0
100
AcDbSpline
210
0.0
220
0.0
230
1.0
 70
    11
 71
     3
 72
    29
 73
    25
 74
     0
 42
0.0000000001
 43
0.0000000001
 40
0.0
 40
0.0
 40
0.0
 40
0.0
 40
1.0
 40
1.0
 40
1.0
 40
2.0
 40
2.0
 40
2.0
 40
3.0
 40
3.0
 40
3.0
 40
4.0
 40
4.0
 40
4.0
 40
5.0
 40
5.0
 40
5.0
 40
6.0
 40
6.0
 40
6.0
 40
7.0
 40
7.0
 40
7.0
 40
8.0
 40
8.0
 40
8.0
 40
8.0
 10
211.1151068265615
 20
-150.4793592288732
 30
0.0
 10
211.1695393352284
 20
-150.6233642201567
 30
0.0
 10
211.1454236668317
 20
-150.8038872235838
 30
0.0
 10
211.0289794394303
 20
-150.9919894370784
 30
0.0
 10
211.0289794394303
 20
-150.9919894370784
 30
0.0
 10
199.7559379925957
 20
-169.3474581824895
 30
0.0
 10
199.7559379925957
 20
-169.3474581824895
 30
0.0
 10
199.5023789648814
 20
-169.7615586598166
 30
0.0
 10
199.1478786394491
 20
-169.7298637813523
 30
0.0
 10
198.9687336742162
 20
-169.2785562727845
 30
0.0
 10
198.9687336742162
 20
-169.2785562727845
 30
0.0
 10
191.0484591536268
 20
-149.2467040642508
 30
0.0
 10
191.0484591536268
 20
-149.2467040642508
 30
0.0
 10
191.0463920963356
 20
-149.2411919114744
 30
0.0
 10
191.043980529496
 20
-149.235679758698
 30
0.0
 10
191.0422579817533
 20
-149.2301676059216
 30
0.0
 10
190.8762043793643
 20
-148.78678381697
 30
0.0
 10
191.126662821142
 20
-148.4617390579367
 30
0.0
 10
191.6041530553976
 20
-148.5027356942111
 30
0.0
 10
191.6041530553976
 20
-148.5027356942111
 30
0.0
 10
210.612122885715
 20
-150.1624104442302
 30
0.0
 10
210.612122885715
 20
-150.1624104442302
 30
0.0
 10
210.8749836712396
 20
-150.1858370935299
 30
0.0
 10
211.0506835409873
 20
-150.3064154355137
 30
0.0
 10
211.1151068265615
 20
-150.4793592288732
 30
0.0
  0
SPLINE
  5
4D
330
1F
100
AcDbEntity
  8
Layer 1
370
     0
100
AcDbSpline
210
0.0
220
0.0
230
1.0
 70
    11
 71
     3
 72
    44
 73
    40
 74
     0
 42
0.0000000001
 43
0.0000000001
 40
0.0
 40
0.0
 40
0.0
 40
0.0
 40
1.0
 40
1.0
 40
1.0
 40
2.0
 40
2.0
 40
2.0
 40
3.0
 40
3.0
 40
3.0
 40
4.0
 40
4.0
 40
4.0
 40
5.0
 40
5.0
 40
5.0
 40
6.0
 40
6.0
 40
6.0
 40
7.0
 40
7.0
 40
7.0
 40
8.0
 40
8.0
 40
8.0
 40
9.0
 40
9.0
 40
9.0
 40
10.0
 40
10.0
 40
10.0
 40
11.0
 40
11.0
 40
11.0
 40
12.0
 40
12.0
 40
12.0
 40
13.0
 40
13.0
 40
13.0
 40
13.0
 10
199.732511343296
 20
-175.7319091357545
 30
0.0
 10
200.0208658354115
 20
-175.6085747173826
 30
0.0
 10
200.2654676148642
 20
-175.4025580073646
 30
0.0
 10
200.4359998413841
 20
-175.1400417313886
 30
0.0
 10
200.4359998413841
 20
-175.1400417313886
 30
0.0
 10
202.8138047453035
 20
-171.4675699441123
 30
0.0
 10
202.8138047453035
 20
-171.4675699441123
 30
0.0
 10
202.8809841072659
 20
-171.3697292323312
 30
0.0
 10
202.9464409214856
 20
-171.2684434250648
 30
0.0
 10
203.0105196975113
 20
-171.1644015414103
 30
0.0
 10
203.0105196975113
 20
-171.1644015414103
 30
0.0
 10
203.0211994935156
 20
-171.1478650830811
 30
0.0
 10
203.0211994935156
 20
-171.1478650830811
 30
0.0
 10
203.0211994935156
 20
-171.1478650830811
 30
0.0
 10
214.5922416998242
 20
-153.0301079261522
 30
0.0
 10
214.5922416998242
 20
-153.0301079261522
 30
0.0
 10
215.3811685659464
 20
-151.7457763292511
 30
0.0
 10
215.541020996462
 20
-150.2264892202559
 30
0.0
 10
215.0304578455479
 20
-148.8632649367425
 30
0.0
 10
214.3944932189708
 20
-147.1643160981916
 30
0.0
 10
212.8407551551232
 20
-146.0088310724388
 30
0.0
 10
210.9745469307633
 20
-145.8465670750835
 30
0.0
 10
210.9745469307633
 20
-145.8465670750835
 30
0.0
 10
192.1739718486579
 20
-144.2039455477164
 30
0.0
 10
192.1739718486579
 20
-144.2039455477164
 30
0.0
 10
190.5086126910881
 20
-144.0595960468844
 30
0.0
 10
188.9324815065863
 20
-144.7400024052212
 30
0.0
 10
187.9571749747121
 20
-146.0250230212195
 30
0.0
 10
186.9818684428379
 20
-147.307632070378
 30
0.0
 10
186.7479464593894
 20
-149.0045138516378
 30
0.0
 10
187.3315456345907
 20
-150.5641085778104
 30
0.0
 10
187.342914449692
 20
-150.5930473798865
 30
0.0
 10
187.3549722838904
 20
-150.6226752010596
 30
0.0
 10
187.3663410989918
 20
-150.6523030222328
 30
0.0
 10
187.3663410989918
 20
-150.6523030222328
 30
0.0
 10
197.6654540521461
 20
-174.9023301429064
 30
0.0
 10
197.6654540521461
 20
-174.9023301429064
 30
0.0
 10
198.0068630147344
 20
-175.7022813145814
 30
0.0
 10
198.932560171621
 20
-176.0729735887943
 30
0.0
 10
199.732511343296
 20
-175.7319091357545
 30
0.0
  0
SPLINE
  5
4E
330
1F
100
AcDbEntity
  8
Layer 1
370
     0
100
AcDbSpline
210
0.0
220
0.0
230
1.0
 70
    11
 71
     3
 72
    29
 73
    25
 74
     0
 42
0.0000000001
 43
0.0000000001
 40
0.0
 40
0.0
 40
0.0
 40
0.0
 40
1.0
 40
1.0
 40
1.0
 40
2.0
 40
2.0
 40
2.0
 40
3.0
 40
3.0
 40
3.0
 40
4.0
 40
4.0
 40
4.0
 40
5.0
 40
5.0
 40
5.0
 40
6.0
 40
6.0
 40
6.0
 40
7.0
 40
7.0
 40
7.0
 40
8.0
 40
8.0
 40
8.0
 40
8.0
 10
195.9298149466773
 20
-71.54429794218338
 30
0.0
 10
195.7761636880351
 20
-71.53155108888795
 30
0.0
 10
195.6235459580386
 20
-71.43267684846128
 30
0.0
 10
195.5029676160548
 20
-71.24698620180631
 30
0.0
 10
195.5029676160548
 20
-71.24698620180631
 30
0.0
 10
183.7265977188253
 20
-53.21018878878079
 30
0.0
 10
183.7265977188253
 20
-53.21018878878079
 30
0.0
 10
183.4609808569125
 20
-52.80366752152131
 30
0.0
 10
183.6408148412426
 20
-52.49636500423702
 30
0.0
 10
184.1255397760172
 20
-52.52805988270132
 30
0.0
 10
184.1255397760172
 20
-52.52805988270132
 30
0.0
 10
205.6208685466851
 20
-53.92952472610096
 30
0.0
 10
205.6208685466851
 20
-53.92952472610096
 30
0.0
 10
205.6263806994615
 20
-53.92952472610096
 30
0.0
 10
205.6329263808834
 20
-53.930213745198
 30
0.0
 10
205.6384385336598
 20
-53.93090276429506
 30
0.0
 10
206.1100721055905
 20
-53.9701768528269
 30
0.0
 10
206.2971407904396
 20
-54.33570148381191
 30
0.0
 10
206.0559841064721
 20
-54.75014647068747
 30
0.0
 10
206.0559841064721
 20
-54.75014647068747
 30
0.0
 10
196.4307318302326
 20
-71.2245930811522
 30
0.0
 10
196.4307318302326
 20
-71.2245930811522
 30
0.0
 10
196.297751144502
 20
-71.45265840227573
 30
0.0
 10
196.1134385360411
 20
-71.55945636231847
 30
0.0
 10
195.9298149466773
 20
-71.54429794218338
 30
0.0
  0
SPLINE
  5
4F
330
1F
100
AcDbEntity
  8
Layer 1
370
     0
100
AcDbSpline
210
0.0
220
0.0
230
1.0
 70
    11
 71
     3
 72
    44
 73
    40
 74
     0
 42
0.0000000001
 43
0.0000000001
 40
0.0
 40
0.0
 40
0.0
 40
0.0
 40
1.0
 40
1.0
 40
1.0
 40
2.0
 40
2.0
 40
2.0
 40
3.0
 40
3.0
 40
3.0
 40
4.0
 40
4.0
 40
4.0
 40
5.0
 40
5.0
 40
5.0
 40
6.0
 40
6.0
 40
6.0
 40
7.0
 40
7.0
 40
7.0
 40
8.0
 40
8.0
 40
8.0
 40
9.0
 40
9.0
 40
9.0
 40
10.0
 40
10.0
 40
10.0
 40
11.0
 40
11.0
 40
11.0
 40
12.0
 40
12.0
 40
12.0
 40
13.0
 40
13.0
 40
13.0
 40
13.0
 10
177.964675519745
 20
-50.45962455335732
 30
0.0
 10
177.9529621950951
 20
-50.77347275206358
 30
0.0
 10
178.034955467644
 20
-51.08249781709049
 30
0.0
 10
178.1992865222905
 20
-51.34914820764882
 30
0.0
 10
178.1992865222905
 20
-51.34914820764882
 30
0.0
 10
180.503021873277
 20
-55.06847329352455
 30
0.0
 10
180.503021873277
 20
-55.06847329352455
 30
0.0
 10
180.5629665347204
 20
-55.17079262943647
 30
0.0
 10
180.626356291649
 20
-55.27311196534839
 30
0.0
 10
180.6928466345143
 20
-55.37543130126031
 30
0.0
 10
180.6928466345143
 20
-55.37543130126031
 30
0.0
 10
180.7035264305186
 20
-55.39231226913804
 30
0.0
 10
180.7035264305186
 20
-55.39231226913804
 30
0.0
 10
180.7035264305186
 20
-55.39231226913804
 30
0.0
 10
192.1374538365143
 20
-73.59723034184375
 30
0.0
 10
192.1374538365143
 20
-73.59723034184375
 30
0.0
 10
192.961520676586
 20
-74.85951332763929
 30
0.0
 10
194.2661783368501
 20
-75.65326332744085
 30
0.0
 10
195.7172525552374
 20
-75.77487519807018
 30
0.0
 10
197.524894156348
 20
-75.92577038032411
 30
0.0
 10
199.2336615170319
 20
-75.01488713402406
 30
0.0
 10
200.1779621895388
 20
-73.39707029415074
 30
0.0
 10
200.1779621895388
 20
-73.39707029415074
 30
0.0
 10
209.6988280725753
 20
-57.10245766801606
 30
0.0
 10
209.6988280725753
 20
-57.10245766801606
 30
0.0
 10
210.5411539187189
 20
-55.65861815014784
 30
0.0
 10
210.5997205419681
 20
-53.9426160889449
 30
0.0
 10
209.8548908980571
 20
-52.51221244346917
 30
0.0
 10
209.1117838018887
 20
-51.08180879799344
 30
0.0
 10
207.6775905513792
 20
-50.14508733555401
 30
0.0
 10
206.0184325656829
 20
-50.00624998749844
 30
0.0
 10
205.9877712158642
 20
-50.00418293020729
 30
0.0
 10
205.9553873183028
 20
-50.00211587291614
 30
0.0
 10
205.9236924398385
 20
-50.00004881562499
 30
0.0
 10
205.9236924398385
 20
-50.00004881562499
 30
0.0
 10
179.598684308399
 20
-48.94584959713854
 30
0.0
 10
179.598684308399
 20
-48.94584959713854
 30
0.0
 10
178.7294867174704
 20
-48.91277668048014
 30
0.0
 10
177.9984374555004
 20
-49.59111598152583
 30
0.0
 10
177.964675519745
 20
-50.45962455335732
 30
0.0
  0
SPLINE
  5
50
330
1F
100
AcDbEntity
  8
Layer 1
370
     0
100
AcDbSpline
210
0.0
220
0.0
230
1.0
 70
    11
 71
     3
 72
    29
 73
    25
 74
     0
 42
0.0000000001
 43
0.0000000001
 40
0.0
 40
0.0
 40
0.0
 40
0.0
 40
1.0
 40
1.0
 40
1.0
 40
2.0
 40
2.0
 40
2.0
 40
3.0
 40
3.0
 40
3.0
 40
4.0
 40
4.0
 40
4.0
 40
5.0
 40
5.0
 40
5.0
 40
6.0
 40
6.0
 40
6.0
 40
7.0
 40
7.0
 40
7.0
 40
8.0
 40
8.0
 40
8.0
 40
8.0
 10
-14.96308322108562
 20
-171.9440266497223
 30
0.0
 10
-14.90865071241867
 20
-172.0887206601028
 30
0.0
 10
-14.93276638081542
 20
-172.2685546444329
 30
0.0
 10
-15.04921060821686
 20
-172.457001367476
 30
0.0
 10
-15.04921060821686
 20
-172.457001367476
 30
0.0
 10
-26.32225205505138
 20
-190.8128146224357
 30
0.0
 10
-26.32225205505138
 20
-190.8128146224357
 30
0.0
 10
-26.57581108276577
 20
-191.2265705902142
 30
0.0
 10
-26.93031140819798
 20
-191.1952202212984
 30
0.0
 10
-27.10945637343097
 20
-190.7439127127307
 30
0.0
 10
-27.10945637343097
 20
-190.7439127127307
 30
0.0
 10
-35.02973089402035
 20
-170.712060504197
 30
0.0
 10
-35.02973089402035
 20
-170.712060504197
 30
0.0
 10
-35.0317979513115
 20
-170.7065483514206
 30
0.0
 10
-35.03420951815117
 20
-170.7010361986442
 30
0.0
 10
-35.0359320658938
 20
-170.6955240458678
 30
0.0
 10
-35.20198566828284
 20
-170.2521402569161
 30
0.0
 10
-34.95152722650518
 20
-169.9269232431085
 30
0.0
 10
-34.47403699224954
 20
-169.967919879383
 30
0.0
 10
-34.47403699224954
 20
-169.967919879383
 30
0.0
 10
-15.4660671619321
 20
-171.6277668841764
 30
0.0
 10
-15.4660671619321
 20
-171.6277668841764
 30
0.0
 10
-15.20320637640753
 20
-171.6508490239276
 30
0.0
 10
-15.02750650665979
 20
-171.7714273659113
 30
0.0
 10
-14.96308322108562
 20
-171.9440266497223
 30
0.0
  0
SPLINE
  5
51
330
1F
100
AcDbEntity
  8
Layer 1
370
     0
100
AcDbSpline
210
0.0
220
0.0
230
1.0
 70
    11
 71
     3
 72
    44
 73
    40
 74
     0
 42
0.0000000001
 43
0.0000000001
 40
0.0
 40
0.0
 40
0.0
 40
0.0
 40
1.0
 40
1.0
 40
1.0
 40
2.0
 40
2.0
 40
2.0
 40
3.0
 40
3.0
 40
3.0
 40
4.0
 40
4.0
 40
4.0
 40
5.0
 40
5.0
 40
5.0
 40
6.0
 40
6.0
 40
6.0
 40
7.0
 40
7.0
 40
7.0
 40
8.0
 40
8.0
 40
8.0
 40
9.0
 40
9.0
 40
9.0
 40
10.0
 40
10.0
 40
10.0
 40
11.0
 40
11.0
 40
11.0
 40
12.0
 40
12.0
 40
12.0
 40
13.0
 40
13.0
 40
13.0
 40
13.0
 10
-26.34567870435108
 20
-197.1972655757007
 30
0.0
 10
-26.05732421223567
 20
-197.0739311573288
 30
0.0
 10
-25.81272243278293
 20
-196.8679144473108
 30
0.0
 10
-25.64219020626307
 20
-196.6053981713348
 30
0.0
 10
-25.64219020626307
 20
-196.6053981713348
 30
0.0
 10
-23.26438530234363
 20
-192.9329263840584
 30
0.0
 10
-23.26438530234363
 20
-192.9329263840584
 30
0.0
 10
-23.19720594038126
 20
-192.8347411627288
 30
0.0
 10
-23.13174912616151
 20
-192.733799865011
 30
0.0
 10
-23.06767035013586
 20
-192.6297579813564
 30
0.0
 10
-23.06767035013586
 20
-192.6297579813564
 30
0.0
 10
-23.05699055413159
 20
-192.6132215230272
 30
0.0
 10
-23.05699055413159
 20
-192.6132215230272
 30
0.0
 10
-23.05699055413159
 20
-192.6132215230272
 30
0.0
 10
-11.48594834782296
 20
-174.4954643660984
 30
0.0
 10
-11.48594834782296
 20
-174.4954643660984
 30
0.0
 10
-10.69702148170074
 20
-173.2107882596487
 30
0.0
 10
-10.53716905118515
 20
-171.691845660202
 30
0.0
 10
-11.04773220209918
 20
-170.3282768671401
 30
0.0
 10
-11.6836968286763
 20
-168.6295002833635
 30
0.0
 10
-13.23743489252398
 20
-167.4740152576107
 30
0.0
 10
-15.10364311688381
 20
-167.3117512602554
 30
0.0
 10
-15.10364311688381
 20
-167.3117512602554
 30
0.0
 10
-33.90421819898923
 20
-165.6691297328883
 30
0.0
 10
-33.90421819898923
 20
-165.6691297328883
 30
0.0
 10
-35.56957735655899
 20
-165.5244357225078
 30
0.0
 10
-37.1457085410608
 20
-166.2051865903932
 30
0.0
 10
-38.12101507293502
 20
-167.4902072063913
 30
0.0
 10
-39.09632160480925
 20
-168.7728162555499
 30
0.0
 10
-39.33024358825772
 20
-170.4698702915839
 30
0.0
 10
-38.74664441305639
 20
-172.029120508208
 30
0.0
 10
-38.73527559795507
 20
-172.0577148007356
 30
0.0
 10
-38.7232177637567
 20
-172.0880316410058
 30
0.0
 10
-38.71184894865537
 20
-172.1176594621789
 30
0.0
 10
-38.71184894865537
 20
-172.1176594621789
 30
0.0
 10
-28.41273599550098
 20
-196.367342073304
 30
0.0
 10
-28.41273599550098
 20
-196.367342073304
 30
0.0
 10
-28.07132703291272
 20
-197.167293244979
 30
0.0
 10
-27.14562987602609
 20
-197.5383300287404
 30
0.0
 10
-26.34567870435108
 20
-197.1972655757007
 30
0.0
  0
SPLINE
  5
52
330
1F
100
AcDbEntity
  8
Layer 1
370
     0
100
AcDbSpline
210
0.0
220
0.0
230
1.0
 70
    11
 71
     3
 72
    29
 73
    25
 74
     0
 42
0.0000000001
 43
0.0000000001
 40
0.0
 40
0.0
 40
0.0
 40
0.0
 40
1.0
 40
1.0
 40
1.0
 40
2.0
 40
2.0
 40
2.0
 40
3.0
 40
3.0
 40
3.0
 40
4.0
 40
4.0
 40
4.0
 40
5.0
 40
5.0
 40
5.0
 40
6.0
 40
6.0
 40
6.0
 40
7.0
 40
7.0
 40
7.0
 40
8.0
 40
8.0
 40
8.0
 40
8.0
 10
-10.09826388636432
 20
-125.29381642918
 30
0.0
 10
-9.947024194561855
 20
-125.2657389009752
 30
0.0
 10
-9.774424910750838
 20
-125.321377193062
 30
0.0
 10
-9.609404837007371
 20
-125.4693440441535
 30
0.0
 10
-9.609404837007371
 20
-125.4693440441535
 30
0.0
 10
6.469889321299195
 20
-139.803697339181
 30
0.0
 10
6.469889321299195
 20
-139.803697339181
 30
0.0
 10
6.832313366347478
 20
-140.1258137670519
 30
0.0
 10
6.739295788245732
 20
-140.4694620417056
 30
0.0
 10
6.263183592184205
 20
-140.5662692248411
 30
0.0
 10
6.263183592184205
 20
-140.5662692248411
 30
0.0
 10
-14.85180663691205
 20
-144.8283691044179
 30
0.0
 10
-14.85180663691205
 20
-144.8283691044179
 30
0.0
 10
-14.85731878968845
 20
-144.8295748878378
 30
0.0
 10
-14.86317545201337
 20
-144.8311251808061
 30
0.0
 10
-14.8690321143383
 20
-144.8316419451289
 30
0.0
 10
-15.33480902394408
 20
-144.9169080583888
 30
0.0
 10
-15.61041666276406
 20
-144.6130506365898
 30
0.0
 10
-15.48639322529507
 20
-144.1503743129207
 30
0.0
 10
-15.48639322529507
 20
-144.1503743129207
 30
0.0
 10
-10.4992730008474
 20
-125.7330661035494
 30
0.0
 10
-10.4992730008474
 20
-125.7330661035494
 30
0.0
 10
-10.42968207204536
 20
-125.4786458019637
 30
0.0
 10
-10.28016492798552
 20
-125.3270616006127
 30
0.0
 10
-10.09826388636432
 20
-125.29381642918
 30
0.0
  0
SPLINE
  5
53
330
1F
100
AcDbEntity
  8
Layer 1
370
     0
100
AcDbSpline
210
0.0
220
0.0
230
1.0
 70
    11
 71
     3
 72
    44
 73
    40
 74
     0
 42
0.0000000001
 43
0.0000000001
 40
0.0
 40
0.0
 40
0.0
 40
0.0
 40
1.0
 40
1.0
 40
1.0
 40
2.0
 40
2.0
 40
2.0
 40
3.0
 40
3.0
 40
3.0
 40
4.0
 40
4.0
 40
4.0
 40
5.0
 40
5.0
 40
5.0
 40
6.0
 40
6.0
 40
6.0
 40
7.0
 40
7.0
 40
7.0
 40
8.0
 40
8.0
 40
8.0
 40
9.0
 40
9.0
 40
9.0
 40
10.0
 40
10.0
 40
10.0
 40
11.0
 40
11.0
 40
11.0
 40
12.0
 40
12.0
 40
12.0
 40
13.0
 40
13.0
 40
13.0
 40
13.0
 10
12.75029839090965
 20
-140.9528089382861
 30
0.0
 10
12.6793294239135
 20
-140.6474012235187
 30
0.0
 10
12.52016601249496
 20
-140.3700710369561
 30
0.0
 10
12.29141167227437
 20
-140.1557860977736
 30
0.0
 10
12.29141167227437
 20
-140.1557860977736
 30
0.0
 10
9.09643011925367
 20
-137.1675102738679
 30
0.0
 10
9.09643011925367
 20
-137.1675102738679
 30
0.0
 10
9.011680770316525
 20
-137.0841389631248
 30
0.0
 10
8.924175344991179
 20
-137.0019734358016
 30
0.0
 10
8.832880314632058
 20
-136.9204969275754
 30
0.0
 10
8.832880314632058
 20
-136.9204969275754
 30
0.0
 10
8.81841091359401
 20
-136.9067165456344
 30
0.0
 10
8.81841091359401
 20
-136.9067165456344
 30
0.0
 10
8.81841091359401
 20
-136.9067165456344
 30
0.0
 10
-6.974595809888296
 20
-122.3212157897322
 30
0.0
 10
-6.974595809888296
 20
-122.3212157897322
 30
0.0
 10
-8.099419485822368
 20
-121.3178317296532
 30
0.0
 10
-9.566341143441749
 20
-120.8927069467734
 30
0.0
 10
-10.99881184620863
 20
-121.1548787132009
 30
0.0
 10
-12.782682288471
 20
-121.481129255654
 30
0.0
 10
-14.19448241832638
 20
-122.8068019983782
 30
0.0
 10
-14.68368597723186
 20
-124.6153048733601
 30
0.0
 10
-14.68368597723186
 20
-124.6153048733601
 30
0.0
 10
-19.61706271210963
 20
-142.8309027420701
 30
0.0
 10
-19.61706271210963
 20
-142.8309027420701
 30
0.0
 10
-20.05286729099373
 20
-144.4449299769096
 30
0.0
 10
-19.66115993432082
 20
-146.1164903063528
 30
0.0
 10
-18.56837564639957
 20
-147.3029811914729
 30
0.0
 10
-17.47765841576948
 20
-148.4891275670444
 30
0.0
 10
-15.84847276079483
 20
-149.0189832526758
 30
0.0
 10
-14.21101887665558
 20
-148.7192599454591
 30
0.0
 10
-14.18070203638538
 20
-148.7130587735856
 30
0.0
 10
-14.14900715792108
 20
-148.7065130921636
 30
0.0
 10
-14.11731227945678
 20
-148.7010009393873
 30
0.0
 10
-14.11731227945678
 20
-148.7010009393873
 30
0.0
 10
11.56863063946895
 20
-142.8410657737516
 30
0.0
 10
11.56863063946895
 20
-142.8410657737516
 30
0.0
 10
12.41612412884041
 20
-142.6462456240607
 30
0.0
 10
12.94494628582626
 20
-141.8001301728833
 30
0.0
 10
12.75029839090965
 20
-140.9528089382861
 30
0.0
  0
SPLINE
  5
54
330
1F
100
AcDbEntity
  8
Layer 1
370
     0
100
AcDbSpline
210
0.0
220
0.0
230
1.0
 70
    11
 71
     3
 72
   143
 73
   139
 74
     0
 42
0.0000000001
 43
0.0000000001
 40
0.0
 40
0.0
 40
0.0
 40
0.0
 40
1.0
 40
1.0
 40
1.0
 40
2.0
 40
2.0
 40
2.0
 40
3.0
 40
3.0
 40
3.0
 40
4.0
 40
4.0
 40
4.0
 40
5.0
 40
5.0
 40
5.0
 40
6.0
 40
6.0
 40
6.0
 40
7.0
 40
7.0
 40
7.0
 40
8.0
 40
8.0
 40
8.0
 40
9.0
 40
9.0
 40
9.0
 40
10.0
 40
10.0
 40
10.0
 40
11.0
 40
11.0
 40
11.0
 40
12.0
 40
12.0
 40
12.0
 40
13.0
 40
13.0
 40
13.0
 40
14.0
 40
14.0
 40
14.0
 40
15.0
 40
15.0
 40
15.0
 40
16.0
 40
16.0
 40
16.0
 40
17.0
 40
17.0
 40
17.0
 40
18.0
 40
18.0
 40
18.0
 40
19.0
 40
19.0
 40
19.0
 40
20.0
 40
20.0
 40
20.0
 40
21.0
 40
21.0
 40
21.0
 40
22.0
 40
22.0
 40
22.0
 40
23.0
 40
23.0
 40
23.0
 40
24.0
 40
24.0
 40
24.0
 40
25.0
 40
25.0
 40
25.0
 40
26.0
 40
26.0
 40
26.0
 40
27.0
 40
27.0
 40
27.0
 40
28.0
 40
28.0
 40
28.0
 40
29.0
 40
29.0
 40
29.0
 40
30.0
 40
30.0
 40
30.0
 40
31.0
 40
31.0
 40
31.0
 40
32.0
 40
32.0
 40
32.0
 40
33.0
 40
33.0
 40
33.0
 40
34.0
 40
34.0
 40
34.0
 40
35.0
 40
35.0
 40
35.0
 40
36.0
 40
36.0
 40
36.0
 40
37.0
 40
37.0
 40
37.0
 40
38.0
 40
38.0
 40
38.0
 40
39.0
 40
39.0
 40
39.0
 40
40.0
 40
40.0
 40
40.0
 40
41.0
 40
41.0
 40
41.0
 40
42.0
 40
42.0
 40
42.0
 40
43.0
 40
43.0
 40
43.0
 40
44.0
 40
44.0
 40
44.0
 40
45.0
 40
45.0
 40
45.0
 40
46.0
 40
46.0
 40
46.0
 40
46.0
 10
214.4899223639123
 20
-137.7533487611346
 30
0.0
 10
214.4733859055831
 20
-137.4405340910739
 30
0.0
 10
214.3645208882492
 20
-137.1401217647601
 30
0.0
 10
214.176763184303
 20
-136.8893188134339
 30
0.0
 10
214.176763184303
 20
-136.8893188134339
 30
0.0
 10
203.4449462382013
 20
-122.5811482440943
 30
0.0
 10
203.4449462382013
 20
-122.5811482440943
 30
0.0
 10
203.2013779873941
 20
-122.2566202493838
 30
0.0
 10
203.0921684605117
 20
-121.8507880012213
 30
0.0
 10
203.1410888164022
 20
-121.4477118294471
 30
0.0
 10
203.1410888164022
 20
-121.4477118294471
 30
0.0
 10
206.3036864718616
 20
-99.31641843220216
 30
0.0
 10
206.3036864718616
 20
-99.31641843220216
 30
0.0
 10
206.3036864718616
 20
-99.31641843220216
 30
0.0
 10
169.8015217674455
 20
-51.40685355702676
 30
0.0
 10
169.8015217674455
 20
-51.40685355702676
 30
0.0
 10
169.5500297970222
 20
-51.07819144773393
 30
0.0
 10
169.181060070552
 20
-50.86046141306614
 30
0.0
 10
168.7707491982587
 20
-50.80189478981689
 30
0.0
 10
168.7707491982587
 20
-50.80189478981689
 30
0.0
 10
133.4268255959836
 20
-45.75069578934358
 30
0.0
 10
133.4268255959836
 20
-45.75069578934358
 30
0.0
 10
133.0347737297622
 20
-45.69419622338548
 30
0.0
 10
132.6361761821187
 20
-45.78790282058428
 30
0.0
 10
132.3095811301171
 20
-46.01183402712552
 30
0.0
 10
132.3095811301171
 20
-46.01183402712552
 30
0.0
 10
87.989805750572
 20
-76.52228866359512
 30
0.0
 10
87.989805750572
 20
-76.52228866359512
 30
0.0
 10
87.53643118471312
 20
-76.83441431455876
 30
0.0
 10
87.23532983930228
 20
-77.32155081617309
 30
0.0
 10
87.15678166223859
 20
-77.86518688374551
 30
0.0
 10
87.15678166223859
 20
-77.86518688374551
 30
0.0
 10
85.19652233113143
 20
-91.65728214939472
 30
0.0
 10
85.19652233113143
 20
-91.65728214939472
 30
0.0
 10
85.07732202734178
 20
-92.49168427592222
 30
0.0
 10
84.43860132437646
 20
-93.15865476186659
 30
0.0
 10
83.6104003697224
 20
-93.31368405870283
 30
0.0
 10
83.6104003697224
 20
-93.31368405870283
 30
0.0
 10
41.47826062331099
 20
-98.48752845845104
 30
0.0
 10
41.47826062331099
 20
-98.48752845845104
 30
0.0
 10
41.47826062331099
 20
-98.48752845845104
 30
0.0
 10
-37.05820311573545
 20
-75.85118406306846
 30
0.0
 10
-37.05820311573545
 20
-75.85118406306846
 30
0.0
 10
-38.7494004894446
 20
-75.44190671942077
 30
0.0
 10
-40.45231118780359
 20
-76.48025849867508
 30
0.0
 10
-40.86158853145127
 20
-78.17180038193275
 30
0.0
 10
-41.11583657826271
 20
-79.21910940944869
 30
0.0
 10
-40.81542425194893
 20
-80.3236070220198
 30
0.0
 10
-40.06783853164971
 20
-81.09944252529806
 30
0.0
 10
-40.06783853164971
 20
-81.09944252529806
 30
0.0
 10
17.65818141919657
 20
-140.9910494981724
 30
0.0
 10
17.65680338100247
 20
-140.9903604790753
 30
0.0
 10
18.14910752584467
 20
-141.4974785345041
 30
0.0
 10
18.41162380182071
 20
-142.2175034909213
 30
0.0
 10
18.30379231313239
 20
-142.971979402191
 30
0.0
 10
18.16392143643124
 20
-143.9538316154872
 30
0.0
 10
17.43769530814058
 20
-144.7062404694658
 30
0.0
 10
16.52956813822872
 20
-144.9308606951041
 30
0.0
 10
16.52956813822872
 20
-144.9308606951041
 30
0.0
 10
-25.4261827193379
 20
-158.6390678856875
 30
0.0
 10
-25.4261827193379
 20
-158.6390678856875
 30
0.0
 10
-26.25369465489491
 20
-158.909163371731
 30
0.0
 10
-26.70500216346264
 20
-159.7979980069255
 30
0.0
 10
-26.43456216787053
 20
-160.6248209233855
 30
0.0
 10
-26.23784721566276
 20
-161.2284016524012
 30
0.0
 10
-25.69765624357559
 20
-161.6542154543781
 30
0.0
 10
-25.06582573158077
 20
-161.7058918866569
 30
0.0
 10
-25.06582573158077
 20
-161.7058918866569
 30
0.0
 10
1.528933376353878
 20
-163.8831922333348
 30
0.0
 10
1.528933376353878
 20
-163.8831922333348
 30
0.0
 10
1.648133680143522
 20
-163.8825032142377
 30
0.0
 10
1.768023003030217
 20
-163.8880153670141
 30
0.0
 10
1.889290364111011
 20
-163.9045518253433
 30
0.0
 10
3.1812011710797
 20
-164.0892089433527
 30
0.0
 10
4.078304035438758
 20
-165.2860351149285
 30
0.0
 10
3.894335936526416
 20
-166.5779459218972
 30
0.0
 10
3.788226995580721
 20
-167.3193304703229
 30
0.0
 10
3.347599283017267
 20
-167.9304904094063
 30
0.0
 10
2.74849717813232
 20
-168.2812011298047
 30
0.0
 10
2.74849717813232
 20
-168.2812011298047
 30
0.0
 10
-9.056811521173298
 20
-176.4288519524206
 30
0.0
 10
-9.056811521173298
 20
-176.4288519524206
 30
0.0
 10
-9.772357853459688
 20
-176.9228786450054
 30
0.0
 10
-9.952536347338254
 20
-177.9033528201075
 30
0.0
 10
-9.458854164301954
 20
-178.6199326810395
 30
0.0
 10
-9.144661456047169
 20
-179.0739962659954
 30
0.0
 10
-8.616183808609843
 20
-179.331000389195
 30
0.0
 10
-8.06496853096987
 20
-179.2979274725366
 30
0.0
 10
-8.06496853096987
 20
-179.2979274725366
 30
0.0
 10
4.44279513777819
 20
-178.5276041220348
 30
0.0
 10
4.44279513777819
 20
-178.5276041220348
 30
0.0
 10
4.658802624703355
 20
-178.4965982626675
 30
0.0
 10
4.88238932169607
 20
-178.4938421862793
 30
0.0
 10
5.109076604625509
 20
-178.5262260838407
 30
0.0
 10
6.401331921142723
 20
-178.7108832018501
 30
0.0
 10
7.298779295050306
 20
-179.9077093734259
 30
0.0
 10
7.113777667492389
 20
-181.1996201803946
 30
0.0
 10
7.003879121512919
 20
-181.9699435308964
 30
0.0
 10
6.531212020936642
 20
-182.598328947406
 30
0.0
 10
5.895936413456572
 20
-182.9421494768339
 30
0.0
 10
5.895936413456572
 20
-182.9421494768339
 30
0.0
 10
-38.67670897470583
 20
-214.8265081928212
 30
0.0
 10
-38.67670897470583
 20
-214.8265081928212
 30
0.0
 10
-39.38433158737614
 20
-215.3315591909588
 30
0.0
 10
-39.54797362292551
 20
-216.3168564997403
 30
0.0
 10
-39.04154458659378
 20
-217.0231010742165
 30
0.0
 10
-38.68807778980715
 20
-217.5178167858983
 30
0.0
 10
-38.08174098440318
 20
-217.7637966035452
 30
0.0
 10
-37.48401691771233
 20
-217.6576876625995
 30
0.0
 10
-37.48401691771233
 20
-217.6576876625995
 30
0.0
 10
36.41741535547898
 20
-204.4719292023543
 30
0.0
 10
36.41741535547898
 20
-204.4719292023543
 30
0.0
 10
36.41741535547898
 20
-204.4719292023543
 30
0.0
 10
149.2332681918583
 20
-220.5157388771627
 30
0.0
 10
149.2332681918583
 20
-220.5157388771627
 30
0.0
 10
149.7775932785278
 20
-220.5935980351294
 30
0.0
 10
150.3239854224884
 20
-220.382069172335
 30
0.0
 10
150.6733181046928
 20
-219.9569443894552
 30
0.0
 10
150.6733181046928
 20
-219.9569443894552
 30
0.0
 10
188.2658555301905
 20
-174.200564192561
 30
0.0
 10
188.2658555301905
 20
-174.200564192561
 30
0.0
 10
188.5793592193482
 20
-173.8195366318923
 30
0.0
 10
188.6951144276526
 20
-173.3137966146577
 30
0.0
 10
188.5814262766394
 20
-172.8342393231109
 30
0.0
 10
188.5814262766394
 20
-172.8342393231109
 30
0.0
 10
183.3131862605953
 20
-150.8028536949382
 30
0.0
 10
183.3131862605953
 20
-150.8028536949382
 30
0.0
 10
183.2229247588818
 20
-150.4266492679489
 30
0.0
 10
183.2749457007091
 20
-150.0290852489511
 30
0.0
 10
183.4592583091699
 20
-149.6880207959113
 30
0.0
 10
183.4592583091699
 20
-149.6880207959113
 30
0.0
 10
188.327867248925
 20
-140.6672105225589
 30
0.0
 10
188.327867248925
 20
-140.6672105225589
 30
0.0
 10
188.327867248925
 20
-140.6672105225589
 30
0.0
 10
212.996817980605
 20
-139.4069945940545
 30
0.0
 10
212.996817980605
 20
-139.4069945940545
 30
0.0
 10
213.8660155715335
 20
-139.3628973718433
 30
0.0
 10
214.5336750765749
 20
-138.6222018425146
 30
0.0
 10
214.4899223639123
 20
-137.7533487611346
 30
0.0
  0
SPLINE
  5
55
330
1F
100
AcDbEntity
  8
Layer 1
370
     0
100
AcDbSpline
210
0.0
220
0.0
230
1.0
 70
    11
 71
     3
 72
    17
 73
    13
 74
     0
 42
0.0000000001
 43
0.0000000001
 40
0.0
 40
0.0
 40
0.0
 40
0.0
 40
1.0
 40
1.0
 40
1.0
 40
2.0
 40
2.0
 40
2.0
 40
3.0
 40
3.0
 40
3.0
 40
4.0
 40
4.0
 40
4.0
 40
4.0
 10
-22.81927896564935
 20
-86.4930840170052
 30
0.0
 10
-23.05113389180666
 20
-88.13363848708117
 30
0.0
 10
-24.56766492441364
 20
-89.27672116908707
 30
0.0
 10
-26.20890841358666
 20
-89.04452173338123
 30
0.0
 10
-27.85015190275968
 20
-88.81301131677245
 30
0.0
 10
-28.99185654657148
 20
-87.29510224597136
 30
0.0
 10
-28.76034612996269
 20
-85.6545477758954
 30
0.0
 10
-28.5288357133539
 20
-84.01399330581943
 30
0.0
 10
-27.01127115210135
 20
-82.87159964291058
 30
0.0
 10
-25.37037217247685
 20
-83.10311005951937
 30
0.0
 10
-23.72912868330383
 20
-83.33462047612815
 30
0.0
 10
-22.58776854904056
 20
-84.85252954692923
 30
0.0
 10
-22.81927896564935
 20
-86.4930840170052
 30
0.0
  0
SPLINE
  5
56
330
1F
100
AcDbEntity
  8
Layer 1
370
     0
100
AcDbSpline
210
0.0
220
0.0
230
1.0
 70
    11
 71
     3
 72
    17
 73
    13
 74
     0
 42
0.0000000001
 43
0.0000000001
 40
0.0
 40
0.0
 40
0.0
 40
0.0
 40
1.0
 40
1.0
 40
1.0
 40
2.0
 40
2.0
 40
2.0
 40
3.0
 40
3.0
 40
3.0
 40
4.0
 40
4.0
 40
4.0
 40
4.0
 10
-13.25121527446498
 20
-207.4112846703694
 30
0.0
 10
-13.48272569107376
 20
-209.0518391404454
 30
0.0
 10
-14.99994574277779
 20
-210.1935437842572
 30
0.0
 10
-16.64153374149934
 20
-209.9620333676484
 30
0.0
 10
-18.28243272112384
 20
-209.7305229510396
 30
0.0
 10
-19.42379285538711
 20
-208.2133028993356
 30
0.0
 10
-19.19228243877832
 20
-206.5727484292596
 30
0.0
 10
-18.96042751262101
 20
-204.9328829782807
 30
0.0
 10
-17.44389648001403
 20
-203.7898002962748
 30
0.0
 10
-15.80299750038953
 20
-204.0213107128836
 30
0.0
 10
-14.16140950166798
 20
-204.2535101485894
 30
0.0
 10
-13.01970485785619
 20
-205.7714192193905
 30
0.0
 10
-13.25121527446498
 20
-207.4112846703694
 30
0.0
  0
SPLINE
  5
57
330
1F
100
AcDbEntity
  8
Layer 1
370
     0
100
AcDbSpline
210
0.0
220
0.0
230
1.0
 70
    11
 71
     3
 72
    17
 73
    13
 74
     0
 42
0.0000000001
 43
0.0000000001
 40
0.0
 40
0.0
 40
0.0
 40
0.0
 40
1.0
 40
1.0
 40
1.0
 40
2.0
 40
2.0
 40
2.0
 40
3.0
 40
3.0
 40
3.0
 40
4.0
 40
4.0
 40
4.0
 40
4.0
 10
153.8579643712577
 20
-55.19921466718979
 30
0.0
 10
153.6267984641975
 20
-56.8390801181687
 30
0.0
 10
152.1092339029449
 20
-57.98147378107755
 30
0.0
 10
150.468679432869
 20
-57.74996336446876
 30
0.0
 10
148.828124962793
 20
-57.51845294785997
 30
0.0
 10
147.6857312998841
 20
-56.0005438770589
 30
0.0
 10
147.9172417164929
 20
-54.35998940698292
 30
0.0
 10
148.1487521331017
 20
-52.71943493690695
 30
0.0
 10
149.6666612039028
 20
-51.57773029309515
 30
0.0
 10
151.3075601835273
 20
-51.80924070970394
 30
0.0
 10
152.9477701440547
 20
-52.04075112631273
 30
0.0
 10
154.0894747878665
 20
-53.55866019711381
 30
0.0
 10
153.8579643712577
 20
-55.19921466718979
 30
0.0
  0
SPLINE
  5
58
330
1F
100
AcDbEntity
  8
Layer 1
370
     0
100
AcDbSpline
210
0.0
220
0.0
230
1.0
 70
    11
 71
     3
 72
    17
 73
    13
 74
     0
 42
0.0000000001
 43
0.0000000001
 40
0.0
 40
0.0
 40
0.0
 40
0.0
 40
1.0
 40
1.0
 40
1.0
 40
2.0
 40
2.0
 40
2.0
 40
3.0
 40
3.0
 40
3.0
 40
4.0
 40
4.0
 40
4.0
 40
4.0
 10
150.3632595110203
 20
-214.0685871860662
 30
0.0
 10
150.1317490944115
 20
-215.7091416561422
 30
0.0
 10
148.6138400236104
 20
-216.851535319051
 30
0.0
 10
146.973630063083
 20
-216.6200249024422
 30
0.0
 10
145.3334201025556
 20
-216.3885144858334
 30
0.0
 10
144.1906819300982
 20
-214.8706054150324
 30
0.0
 10
144.4218478371584
 20
-213.2300509449564
 30
0.0
 10
144.6537027633157
 20
-211.5894964748804
 30
0.0
 10
146.1716118341168
 20
-210.4471028119716
 30
0.0
 10
147.8121663041928
 20
-210.6786132285804
 30
0.0
 10
149.4530652838173
 20
-210.9108126642862
 30
0.0
 10
150.5947699276291
 20
-212.4280327159902
 30
0.0
 10
150.3632595110203
 20
-214.0685871860662
 30
0.0
  0
SPLINE
  5
59
330
1F
100
AcDbEntity
  8
Layer 1
370
     0
100
AcDbSpline
210
0.0
220
0.0
230
1.0
 70
    11
 71
     3
 72
    17
 73
    13
 74
     0
 42
0.0000000001
 43
0.0000000001
 40
0.0
 40
0.0
 40
0.0
 40
0.0
 40
1.0
 40
1.0
 40
1.0
 40
2.0
 40
2.0
 40
2.0
 40
3.0
 40
3.0
 40
3.0
 40
4.0
 40
4.0
 40
4.0
 40
4.0
 10
110.452517333498
 20
-140.710618725673
 30
0.0
 10
109.7163004283001
 20
-145.9299383858265
 30
0.0
 10
104.8873100866254
 20
-149.5633083393453
 30
0.0
 10
99.66867944556894
 20
-148.8267469245989
 30
0.0
 10
94.45004880451249
 20
-148.0900132550782
 30
0.0
 10
90.81616208667096
 20
-143.2620564420491
 30
0.0
 10
91.55272350141738
 20
-138.0427367818956
 30
0.0
 10
92.2892849161638
 20
-132.8241061408391
 30
0.0
 10
97.11793074828996
 20
-129.1902194229976
 30
0.0
 10
102.3365613893464
 20
-129.926780837744
 30
0.0
 10
107.5558810494999
 20
-130.6633422524904
 30
0.0
 10
111.1894232577929
 20
-135.4919880846166
 30
0.0
 10
110.452517333498
 20
-140.710618725673
 30
0.0
  0
POLYLINE
  5
5A
330
1F
100
AcDbEntity
  8
Layer 1
370
     0
100
AcDb2dPolyline
 66
     1
 10
0.0
 20
0.0
 30
0.0
  0
VERTEX
  5
5B
330
5A
100
AcDbEntity
  8
Layer 1
370
     0
100
AcDbVertex
100
AcDb2dVertex
 10
60.06455076623386
 20
-195.3903129936872
 30
0.0
  0
VERTEX
  5
5C
330
5A
100
AcDbEntity
  8
Layer 1
370
     0
100
AcDbVertex
100
AcDb2dVertex
 10
58.08430988131226
 20
-195.1112602593819
 30
0.0
  0
VERTEX
  5
5D
330
5A
100
AcDbEntity
  8
Layer 1
370
     0
100
AcDbVertex
100
AcDb2dVertex
 10
59.20258787582436
 20
-187.1896077005984
 30
0.0
  0
VERTEX
  5
5E
330
5A
100
AcDbEntity
  8
Layer 1
370
     0
100
AcDbVertex
100
AcDb2dVertex
 10
61.18282876074596
 20
-187.4693494540007
 30
0.0
  0
VERTEX
  5
5F
330
5A
100
AcDbEntity
  8
Layer 1
370
     0
100
AcDbVertex
100
AcDb2dVertex
 10
60.06455076623386
 20
-195.3903129936872
 30
0.0
  0
SEQEND
  5
60
330
5A
100
AcDbEntity
  8
Layer 1
370
     0
  0
POLYLINE
  5
61
330
1F
100
AcDbEntity
  8
Layer 1
370
     0
100
AcDb2dPolyline
 66
     1
 10
0.0
 20
0.0
 30
0.0
  0
VERTEX
  5
62
330
61
100
AcDbEntity
  8
Layer 1
370
     0
100
AcDbVertex
100
AcDb2dVertex
 10
64.6044975966961
 20
-196.0317897730407
 30
0.0
  0
VERTEX
  5
63
330
61
100
AcDbEntity
  8
Layer 1
370
     0
100
AcDbVertex
100
AcDb2dVertex
 10
62.62494573087154
 20
-195.7520480196384
 30
0.0
  0
VERTEX
  5
64
330
61
100
AcDbEntity
  8
Layer 1
370
     0
100
AcDbVertex
100
AcDb2dVertex
 10
63.74253470628659
 20
-187.8303954608549
 30
0.0
  0
VERTEX
  5
65
330
61
100
AcDbEntity
  8
Layer 1
370
     0
100
AcDbVertex
100
AcDb2dVertex
 10
65.72346461030524
 20
-188.1101372142572
 30
0.0
  0
VERTEX
  5
66
330
61
100
AcDbEntity
  8
Layer 1
370
     0
100
AcDbVertex
100
AcDb2dVertex
 10
64.6044975966961
 20
-196.0317897730407
 30
0.0
  0
SEQEND
  5
67
330
61
100
AcDbEntity
  8
Layer 1
370
     0
  0
SPLINE
  5
68
330
1F
100
AcDbEntity
  8
Layer 1
370
     0
100
AcDbSpline
210
0.0
220
0.0
230
1.0
 70
    11
 71
     3
 72
    17
 73
    13
 74
     0
 42
0.0000000001
 43
0.0000000001
 40
0.0
 40
0.0
 40
0.0
 40
0.0
 40
1.0
 40
1.0
 40
1.0
 40
2.0
 40
2.0
 40
2.0
 40
3.0
 40
3.0
 40
3.0
 40
4.0
 40
4.0
 40
4.0
 40
4.0
 10
155.1571098787454
 20
-133.8121595260088
 30
0.0
 10
153.5434271534544
 20
-133.5847832239823
 30
0.0
 10
152.4206705348115
 20
-132.091678840675
 30
0.0
 10
152.6487358559351
 20
-130.478685134481
 30
0.0
 10
152.875767648413
 20
-128.86500240919
 30
0.0
 10
154.3685275221718
 20
-127.7419012809986
 30
0.0
 10
155.9818657379143
 20
-127.9699666021221
 30
0.0
 10
157.5952039536567
 20
-128.1973429041486
 30
0.0
 10
158.7179605722997
 20
-129.6897582683588
 30
0.0
 10
158.4902397607247
 20
-131.3034409936498
 30
0.0
 10
158.2628634586982
 20
-132.9164346998438
 30
0.0
 10
156.7701035849394
 20
-134.0395358280353
 30
0.0
 10
155.1571098787454
 20
-133.8121595260088
 30
0.0
  0
SPLINE
  5
69
330
1F
100
AcDbEntity
  8
Layer 1
370
     0
100
AcDbSpline
210
0.0
220
0.0
230
1.0
 70
    11
 71
     3
 72
    17
 73
    13
 74
     0
 42
0.0000000001
 43
0.0000000001
 40
0.0
 40
0.0
 40
0.0
 40
0.0
 40
1.0
 40
1.0
 40
1.0
 40
2.0
 40
2.0
 40
2.0
 40
3.0
 40
3.0
 40
3.0
 40
4.0
 40
4.0
 40
4.0
 40
4.0
 10
50.772439223418
 20
-119.0774861355952
 30
0.0
 10
49.15875649812698
 20
-118.8494208144717
 30
0.0
 10
48.03599987948406
 20
-117.3563164311644
 30
0.0
 10
48.26372069105907
 20
-115.7433227249704
 30
0.0
 10
48.49109699308556
 20
-114.1303290187765
 30
0.0
 10
49.98385686684431
 20
-113.007227890585
 30
0.0
 10
51.59753959213534
 20
-113.2352932117085
 30
0.0
 10
53.21018878878079
 20
-113.462669513735
 30
0.0
 10
54.33397893606929
 20
-114.9550848779453
 30
0.0
 10
54.10591361494575
 20
-116.5680785841392
 30
0.0
 10
53.87819280337073
 20
-118.1810722903332
 30
0.0
 10
52.38508842006345
 20
-119.3048624376217
 30
0.0
 10
50.772439223418
 20
-119.0774861355952
 30
0.0
  0
SPLINE
  5
6A
330
1F
100
AcDbEntity
  8
Layer 1
370
     0
100
AcDbSpline
210
0.0
220
0.0
230
1.0
 70
    11
 71
     3
 72
    17
 73
    13
 74
     0
 42
0.0000000001
 43
0.0000000001
 40
0.0
 40
0.0
 40
0.0
 40
0.0
 40
1.0
 40
1.0
 40
1.0
 40
2.0
 40
2.0
 40
2.0
 40
3.0
 40
3.0
 40
3.0
 40
4.0
 40
4.0
 40
4.0
 40
4.0
 10
150.7435980525919
 20
-165.0758842903282
 30
0.0
 10
149.1306043463979
 20
-164.8485079883018
 30
0.0
 10
148.0071587086579
 20
-163.3554036049945
 30
0.0
 10
148.234879520233
 20
-161.7424098988005
 30
0.0
 10
148.4629448413565
 20
-160.1294161926066
 30
0.0
 10
149.9553602055667
 20
-159.0063150644151
 30
0.0
 10
151.5683539117607
 20
-159.2336913664416
 30
0.0
 10
153.1816921275032
 20
-159.4617566875651
 30
0.0
 10
154.3047932556946
 20
-160.9534830326783
 30
0.0
 10
154.0770724441196
 20
-162.5671657579693
 30
0.0
 10
153.8493516325446
 20
-164.1801594641633
 30
0.0
 10
152.3569362683344
 20
-165.3039496114518
 30
0.0
 10
150.7435980525919
 20
-165.0758842903282
 30
0.0
  0
SPLINE
  5
6B
330
1F
100
AcDbEntity
  8
Layer 1
370
     0
100
AcDbSpline
210
0.0
220
0.0
230
1.0
 70
    11
 71
     3
 72
    17
 73
    13
 74
     0
 42
0.0000000001
 43
0.0000000001
 40
0.0
 40
0.0
 40
0.0
 40
0.0
 40
1.0
 40
1.0
 40
1.0
 40
2.0
 40
2.0
 40
2.0
 40
3.0
 40
3.0
 40
3.0
 40
4.0
 40
4.0
 40
4.0
 40
4.0
 10
46.35927190681296
 20
-150.3405218808176
 30
0.0
 10
44.74558918152194
 20
-150.1131455787912
 30
0.0
 10
43.62283256287902
 20
-148.6198689407096
 30
0.0
 10
43.85055337445403
 20
-147.0068752345157
 30
0.0
 10
44.07827418602904
 20
-145.3938815283217
 30
0.0
 10
45.57068955023927
 20
-144.2707804001302
 30
0.0
 10
47.18402776598177
 20
-144.4981567021567
 30
0.0
 10
48.79702147217575
 20
-144.7262220232803
 30
0.0
 10
49.92012260036719
 20
-146.2186373874905
 30
0.0
 10
49.6927462983407
 20
-147.8323201127815
 30
0.0
 10
49.46468097721716
 20
-149.4447970546527
 30
0.0
 10
47.97226561300693
 20
-150.5685872019412
 30
0.0
 10
46.35927190681296
 20
-150.3405218808176
 30
0.0
  0
INSERT
  5
6D
330
1F
100
AcDbEntity
  8
Layer 1
100
AcDbBlockReference
  2
block 2
 10
0.0
 20
0.0
 30
0.0
  0
ENDSEC
  0
SECTION
  2
OBJECTS
  0
DICTIONARY
  5
C
330
0
100
AcDbDictionary
281
     1
  3
ACAD_GROUP
350
D
  3
ACAD_LAYOUT
350
1A
  3
ACAD_MLINESTYLE
350
17
  3
ACAD_PLOTSETTINGS
350
19
  3
ACAD_PLOTSTYLENAME
350
E
  3
ACAD_TABLESTYLE
350
73
  3
ACAD_VISUALSTYLE
350
2A
  0
DICTIONARY
  5
D
102
{ACAD_REACTORS
330
C
102
}
330
C
100
AcDbDictionary
281
     1
  0
DICTIONARY
  5
1A
102
{ACAD_REACTORS
330
C
102
}
330
C
100
AcDbDictionary
281
     1
  3
Layout1
350
1E
  3
Layout2
350
26
  3
Model
350
22
  0
DICTIONARY
  5
17
102
{ACAD_REACTORS
330
C
102
}
330
C
100
AcDbDictionary
281
     1
  3
Standard
350
18
  0
DICTIONARY
  5
19
102
{ACAD_REACTORS
330
C
102
}
330
C
100
AcDbDictionary
281
     1
  0
ACDBDICTIONARYWDFLT
  5
E
102
{ACAD_REACTORS
330
C
102
}
330
C
100
AcDbDictionary
281
     1
  3
Normal
350
F
100
AcDbDictionaryWithDefault
340
F
  0
DICTIONARY
  5
73
102
{ACAD_REACTORS
330
C
102
}
330
C
100
AcDbDictionary
281
     1
  0
DICTIONARY
  5
2A
102
{ACAD_REACTORS
330
C
102
}
330
C
100
AcDbDictionary
281
     1
  3
2dWireframe
350
2F
  3
3D Hidden
350
31
  3
3dWireframe
350
30
  3
Basic
350
32
  3
Brighten
350
36
  3
ColorChange
350
3A
  3
Conceptual
350
34
  3
Dim
350
35
  3
Facepattern
350
39
  3
Flat
350
2B
  3
FlatWithEdges
350
2C
  3
Gouraud
350
2D
  3
GouraudWithEdges
350
2E
  3
Linepattern
350
38
  3
Realistic
350
33
  3
Thicken
350
37
  0
LAYOUT
  5
1E
102
{ACAD_REACTORS
330
1A
102
}
330
1A
100
AcDbPlotSettings
  1

  2
none_device
  4

  6

 40
0.0
 41
0.0
 42
0.0
 43
0.0
 44
0.0
 45
0.0
 46
0.0
 47
0.0
 48
0.0
 49
0.0
140
0.0
141
0.0
142
1.0
143
1.0
 70
   688
 72
     0
 73
     0
 74
     5
  7

 75
    16
147
1.0
148
0.0
149
0.0
100
AcDbLayout
  1
Layout1
 70
     1
 71
     1
 10
0.0
 20
0.0
 11
12.0
 21
9.0
 12
0.0
 22
0.0
 32
0.0
 14
1.000000000000000E+20
 24
1.000000000000000E+20
 34
1.000000000000000E+20
 15
-1.000000000000000E+20
 25
-1.000000000000000E+20
 35
-1.000000000000000E+20
146
0.0
 13
0.0
 23
0.0
 33
0.0
 16
1.0
 26
0.0
 36
0.0
 17
0.0
 27
1.0
 37
0.0
 76
     0
330
1B
  0
LAYOUT
  5
26
102
{ACAD_REACTORS
330
1A
102
}
330
1A
100
AcDbPlotSettings
  1

  2
none_device
  4

  6

 40
0.0
 41
0.0
 42
0.0
 43
0.0
 44
0.0
 45
0.0
 46
0.0
 47
0.0
 48
0.0
 49
0.0
140
0.0
141
0.0
142
1.0
143
1.0
 70
   688
 72
     0
 73
     0
 74
     5
  7

 75
    16
147
1.0
148
0.0
149
0.0
100
AcDbLayout
  1
Layout2
 70
     1
 71
     2
 10
0.0
 20
0.0
 11
0.0
 21
0.0
 12
0.0
 22
0.0
 32
0.0
 14
0.0
 24
0.0
 34
0.0
 15
0.0
 25
0.0
 35
0.0
146
0.0
 13
0.0
 23
0.0
 33
0.0
 16
1.0
 26
0.0
 36
0.0
 17
0.0
 27
1.0
 37
0.0
 76
     0
330
23
  0
LAYOUT
  5
22
102
{ACAD_REACTORS
330
1A
102
}
330
1A
100
AcDbPlotSettings
  1

  2
none_device
  4

  6

 40
0.0
 41
0.0
 42
0.0
 43
0.0
 44
0.0
 45
0.0
 46
0.0
 47
0.0
 48
0.0
 49
0.0
140
0.0
141
0.0
142
1.0
143
1.0
 70
  1712
 72
     0
 73
     0
 74
     0
  7

 75
     0
147
1.0
148
0.0
149
0.0
100
AcDbLayout
  1
Model
 70
     1
 71
     0
 10
0.0
 20
0.0
 11
12.0
 21
9.0
 12
0.0
 22
0.0
 32
0.0
 14
1.000000000000000E+20
 24
1.000000000000000E+20
 34
1.000000000000000E+20
 15
-1.000000000000000E+20
 25
-1.000000000000000E+20
 35
-1.000000000000000E+20
146
0.0
 13
0.0
 23
0.0
 33
0.0
 16
1.0
 26
0.0
 36
0.0
 17
0.0
 27
1.0
 37
0.0
 76
     0
330
1F
331
29
  0
MLINESTYLE
  5
18
102
{ACAD_REACTORS
330
17
102
}
330
17
100
AcDbMlineStyle
  2
Standard
 70
     0
  3

 62
   256
 51
90.0
 52
90.0
 71
     2
 49
0.5
 62
   256
  6
BYLAYER
 49
-0.5
 62
   256
  6
BYLAYER
  0
ACDBPLACEHOLDER
  5
F
102
{ACAD_REACTORS
330
E
102
}
330
E
  0
VISUALSTYLE
  5
2F
102
{ACAD_REACTORS
330
2A
102
}
330
2A
100
AcDbVisualStyle
  2
2dWireframe
 70
     4
 71
     0
 72
     2
 73
     0
 90
        0
 40
-0.6
 41
-30.0
 62
     5
 63
     7
 74
     1
 91
        4
 64
     7
 65
   257
 75
     1
175
     1
 42
1.0
 92
        0
 66
   257
 43
1.0
 76
     1
 77
     6
 78
     2
 67
     7
 79
     5
170
     0
171
     0
290
     0
174
     0
 93
        1
 44
0.0
173
     0
291
     0
 45
0.0
1001
ACAD
1000
AcDbSavedByObjectVersion
1070
     0
  0
VISUALSTYLE
  5
31
102
{ACAD_REACTORS
330
2A
102
}
330
2A
100
AcDbVisualStyle
  2
3D Hidden
 70
     6
 71
     1
 72
     2
 73
     2
 90
        0
 40
-0.6
 41
-30.0
 62
     5
 63
     7
 74
     2
 91
        2
 64
     7
 65
   257
 75
     2
175
     1
 42
40.0
 92
        0
 66
   257
 43
1.0
 76
     1
 77
     6
 78
     2
 67
     7
 79
     3
170
     0
171
     0
290
     0
174
     0
 93
        1
 44
0.0
173
     0
291
     0
 45
0.0
1001
ACAD
1000
AcDbSavedByObjectVersion
1070
     0
  0
VISUALSTYLE
  5
30
102
{ACAD_REACTORS
330
2A
102
}
330
2A
100
AcDbVisualStyle
  2
3dWireframe
 70
     5
 71
     0
 72
     2
 73
     0
 90
        0
 40
-0.6
 41
-30.0
 62
     5
 63
     7
 74
     1
 91
        4
 64
     7
 65
   257
 75
     1
175
     1
 42
1.0
 92
        0
 66
   257
 43
1.0
 76
     1
 77
     6
 78
     2
 67
     7
 79
     5
170
     0
171
     0
290
     0
174
     0
 93
        1
 44
0.0
173
     0
291
     0
 45
0.0
1001
ACAD
1000
AcDbSavedByObjectVersion
1070
     0
  0
VISUALSTYLE
  5
32
102
{ACAD_REACTORS
330
2A
102
}
330
2A
100
AcDbVisualStyle
  2
Basic
 70
     7
 71
     1
 72
     0
 73
     1
 90
        0
 40
-0.6
 41
-30.0
 62
     5
 63
     7
 74
     0
 91
        4
 64
     7
 65
   257
 75
     1
175
     1
 42
1.0
 92
        8
 66
     7
 43
1.0
 76
     1
 77
     6
 78
     2
 67
     7
 79
     5
170
     0
171
     0
290
     0
174
     0
 93
        1
 44
0.0
173
     0
291
     1
 45
0.0
1001
ACAD
1000
AcDbSavedByObjectVersion
1070
     0
  0
VISUALSTYLE
  5
36
102
{ACAD_REACTORS
330
2A
102
}
330
2A
100
AcDbVisualStyle
  2
Brighten
 70
    12
 71
     2
 72
     2
 73
     0
 90
        0
 40
-0.6
 41
-30.0
 62
     5
 63
     7
 74
     1
 91
        4
 64
     7
 65
   257
 75
     1
175
     1
 42
1.0
 92
        8
 66
     7
 43
1.0
 76
     1
 77
     6
 78
     2
 67
     7
 79
     5
170
     0
171
     0
290
     0
174
     0
 93
        1
 44
50.0
173
     0
291
     1
 45
0.0
1001
ACAD
1000
AcDbSavedByObjectVersion
1070
     0
  0
VISUALSTYLE
  5
3A
102
{ACAD_REACTORS
330
2A
102
}
330
2A
100
AcDbVisualStyle
  2
ColorChange
 70
    16
 71
     2
 72
     2
 73
     3
 90
        0
 40
-0.6
 41
-30.0
 62
     5
 63
     8
 74
     1
 91
        4
 64
     7
 65
   257
 75
     1
175
     1
 42
1.0
 92
        8
 66
     8
 43
1.0
 76
     1
 77
     6
 78
     2
 67
     7
 79
     5
170
     0
171
     0
290
     0
174
     0
 93
        1
 44
0.0
173
     0
291
     1
 45
0.0
1001
ACAD
1000
AcDbSavedByObjectVersion
1070
     0
  0
VISUALSTYLE
  5
34
102
{ACAD_REACTORS
330
2A
102
}
330
2A
100
AcDbVisualStyle
  2
Conceptual
 70
     9
 71
     3
 72
     2
 73
     0
 90
        0
 40
-0.6
 41
-30.0
 62
     5
 63
     7
 74
     2
 91
        2
 64
     7
 65
   257
 75
     1
175
     1
 42
40.0
 92
        8
 66
     7
 43
1.0
 76
     1
 77
     6
 78
     2
 67
     7
 79
     3
170
     0
171
     0
290
     0
174
     0
 93
        1
 44
0.0
173
     0
291
     0
 45
0.0
1001
ACAD
1000
AcDbSavedByObjectVersion
1070
     0
  0
VISUALSTYLE
  5
35
102
{ACAD_REACTORS
330
2A
102
}
330
2A
100
AcDbVisualStyle
  2
Dim
 70
    11
 71
     2
 72
     2
 73
     0
 90
        0
 40
-0.6
 41
-30.0
 62
     5
 63
     7
 74
     1
 91
        4
 64
     7
 65
   257
 75
     1
175
     1
 42
1.0
 92
        8
 66
     7
 43
1.0
 76
     1
 77
     6
 78
     2
 67
     7
 79
     5
170
     0
171
     0
290
     0
174
     0
 93
        1
 44
-50.0
173
     0
291
     1
 45
0.0
1001
ACAD
1000
AcDbSavedByObjectVersion
1070
     0
  0
VISUALSTYLE
  5
39
102
{ACAD_REACTORS
330
2A
102
}
330
2A
100
AcDbVisualStyle
  2
Facepattern
 70
    15
 71
     2
 72
     2
 73
     0
 90
        0
 40
-0.6
 41
-30.0
 62
     5
 63
     7
 74
     1
 91
        4
 64
     7
 65
   257
 75
     1
175
     1
 42
1.0
 92
        8
 66
     7
 43
1.0
 76
     1
 77
     6
 78
     2
 67
     7
 79
     5
170
     0
171
     0
290
     0
174
     0
 93
        1
 44
0.0
173
     0
291
     1
 45
0.0
1001
ACAD
1000
AcDbSavedByObjectVersion
1070
     0
  0
VISUALSTYLE
  5
2B
102
{ACAD_REACTORS
330
2A
102
}
330
2A
100
AcDbVisualStyle
  2
Flat
 70
     0
 71
     2
 72
     1
 73
     1
 90
        2
 40
-0.6
 41
30.0
 62
     5
 63
     7
 74
     0
 91
        4
 64
     7
 65
   257
 75
     1
175
     1
 42
1.0
 92
        8
 66
     7
 43
1.0
 76
     1
 77
     6
 78
     2
 67
     7
 79
     5
170
     0
171
     0
290
     0
174
     0
 93
       13
 44
0.0
173
     0
291
     1
 45
0.0
1001
ACAD
1000
AcDbSavedByObjectVersion
1070
     0
  0
VISUALSTYLE
  5
2C
102
{ACAD_REACTORS
330
2A
102
}
330
2A
100
AcDbVisualStyle
  2
FlatWithEdges
 70
     1
 71
     2
 72
     1
 73
     1
 90
        2
 40
-0.6
 41
30.0
 62
     5
 63
     7
 74
     1
 91
        4
 64
     7
 65
   257
 75
     1
175
     1
 42
1.0
 92
        0
 66
   257
 43
1.0
 76
     1
 77
     6
 78
     2
 67
     7
 79
     5
170
     0
171
     0
290
     0
174
     0
 93
       13
 44
0.0
173
     0
291
     1
 45
0.0
1001
ACAD
1000
AcDbSavedByObjectVersion
1070
     0
  0
VISUALSTYLE
  5
2D
102
{ACAD_REACTORS
330
2A
102
}
330
2A
100
AcDbVisualStyle
  2
Gouraud
 70
     2
 71
     2
 72
     2
 73
     1
 90
        2
 40
-0.6
 41
30.0
 62
     5
 63
     7
 74
     0
 91
        4
 64
     7
 65
   257
 75
     1
175
     1
 42
1.0
 92
        0
 66
     7
 43
1.0
 76
     1
 77
     6
 78
     2
 67
     7
 79
     5
170
     0
171
     0
290
     0
174
     0
 93
       13
 44
0.0
173
     0
291
     1
 45
0.0
1001
ACAD
1000
AcDbSavedByObjectVersion
1070
     0
  0
VISUALSTYLE
  5
2E
102
{ACAD_REACTORS
330
2A
102
}
330
2A
100
AcDbVisualStyle
  2
GouraudWithEdges
 70
     3
 71
     2
 72
     2
 73
     1
 90
        2
 40
-0.6
 41
30.0
 62
     5
 63
     7
 74
     1
 91
        4
 64
     7
 65
   257
 75
     1
175
     1
 42
1.0
 92
        0
 66
   257
 43
1.0
 76
     1
 77
     6
 78
     2
 67
     7
 79
     5
170
     0
171
     0
290
     0
174
     0
 93
       13
 44
0.0
173
     0
291
     1
 45
0.0
1001
ACAD
1000
AcDbSavedByObjectVersion
1070
     0
  0
VISUALSTYLE
  5
38
102
{ACAD_REACTORS
330
2A
102
}
330
2A
100
AcDbVisualStyle
  2
Linepattern
 70
    14
 71
     2
 72
     2
 73
     0
 90
        0
 40
-0.6
 41
-30.0
 62
     5
 63
     7
 74
     1
 91
        4
 64
     7
 65
   257
 75
     7
175
     7
 42
1.0
 92
        8
 66
     7
 43
1.0
 76
     1
 77
     6
 78
     2
 67
     7
 79
     5
170
     0
171
     0
290
     0
174
     0
 93
        1
 44
0.0
173
     0
291
     1
 45
0.0
1001
ACAD
1000
AcDbSavedByObjectVersion
1070
     0
  0
VISUALSTYLE
  5
33
102
{ACAD_REACTORS
330
2A
102
}
330
2A
100
AcDbVisualStyle
  2
Realistic
 70
     8
 71
     2
 72
     2
 73
     0
 90
        0
 40
-0.6
 41
-30.0
 62
     5
 63
     7
 74
     1
 91
        0
 64
     7
 65
   257
 75
     1
175
     1
 42
1.0
 92
        8
 66
     8
 43
1.0
 76
     1
 77
     6
 78
     2
 67
     7
 79
     5
170
     0
171
     0
290
     0
174
     0
 93
       13
 44
0.0
173
     0
291
     0
 45
0.0
1001
ACAD
1000
AcDbSavedByObjectVersion
1070
     0
  0
VISUALSTYLE
  5
37
102
{ACAD_REACTORS
330
2A
102
}
330
2A
100
AcDbVisualStyle
  2
Thicken
 70
    13
 71
     2
 72
     2
 73
     0
 90
        0
 40
-0.6
 41
-30.0
 62
     5
 63
     7
 74
     1
 91
        4
 64
     7
 65
   257
 75
     1
175
     1
 42
1.0
 92
       12
 66
     7
 43
1.0
 76
     1
 77
     6
 78
     2
 67
     7
 79
     5
170
     0
171
     0
290
     0
174
     0
 93
        1
 44
0.0
173
     0
291
     1
 45
0.0
1001
ACAD
1000
AcDbSavedByObjectVersion
1070
     0
  0
ENDSEC
  0
EOF
