  0
SECTION
  2
HEADER
  9
$ACADVER
  1
AC1015
  9
$ACADMAINTVER
 70
     6
  9
$DWGCODEPAGE
  3
ANSI_932
  9
$INSBASE
 10
0.0
 20
0.0
 30
0.0
  9
$EXTMIN
 10
1.000000000000000E+20
 20
1.000000000000000E+20
 30
1.000000000000000E+20
  9
$EXTMAX
 10
-1.000000000000000E+20
 20
-1.000000000000000E+20
 30
-1.000000000000000E+20
  9
$LIMMIN
 10
0.0
 20
0.0
  9
$LIMMAX
 10
12.0
 20
9.0
  9
$ORTHOMODE
 70
     0
  9
$REGENMODE
 70
     1
  9
$FILLMODE
 70
     1
  9
$QTEXTMODE
 70
     0
  9
$MIRRTEXT
 70
     1
  9
$LTSCALE
 40
1.0
  9
$ATTMODE
 70
     1
  9
$TEXTSIZE
 40
0.2
  9
$TRACEWID
 40
0.05
  9
$TEXTSTYLE
  7
Standard
  9
$CLAYER
  8
0
  9
$CELTYPE
  6
ByLayer
  9
$CECOLOR
 62
   256
  9
$CELTSCALE
 40
1.0
  9
$DISPSILH
 70
     0
  9
$DIMSCALE
 40
1.0
  9
$DIMASZ
 40
0.18
  9
$DIMEXO
 40
0.0625
  9
$DIMDLI
 40
0.38
  9
$DIMRND
 40
0.0
  9
$DIMDLE
 40
0.0
  9
$DIMEXE
 40
0.18
  9
$DIMTP
 40
0.0
  9
$DIMTM
 40
0.0
  9
$DIMTXT
 40
0.18
  9
$DIMCEN
 40
0.09
  9
$DIMTSZ
 40
0.0
  9
$DIMTOL
 70
     0
  9
$DIMLIM
 70
     0
  9
$DIMTIH
 70
     1
  9
$DIMTOH
 70
     1
  9
$DIMSE1
 70
     0
  9
$DIMSE2
 70
     0
  9
$DIMTAD
 70
     0
  9
$DIMZIN
 70
     0
  9
$DIMBLK
  1

  9
$DIMASO
 70
     1
  9
$DIMSHO
 70
     1
  9
$DIMPOST
  1

  9
$DIMAPOST
  1

  9
$DIMALT
 70
     0
  9
$DIMALTD
 70
     2
  9
$DIMALTF
 40
25.4
  9
$DIMLFAC
 40
1.0
  9
$DIMTOFL
 70
     0
  9
$DIMTVP
 40
0.0
  9
$DIMTIX
 70
     0
  9
$DIMSOXD
 70
     0
  9
$DIMSAH
 70
     0
  9
$DIMBLK1
  1

  9
$DIMBLK2
  1

  9
$DIMSTYLE
  2
Standard
  9
$DIMCLRD
 70
     0
  9
$DIMCLRE
 70
     0
  9
$DIMCLRT
 70
     0
  9
$DIMTFAC
 40
1.0
  9
$DIMGAP
 40
0.09
  9
$DIMJUST
 70
     0
  9
$DIMSD1
 70
     0
  9
$DIMSD2
 70
     0
  9
$DIMTOLJ
 70
     1
  9
$DIMTZIN
 70
     0
  9
$DIMALTZ
 70
     0
  9
$DIMALTTZ
 70
     0
  9
$DIMUPT
 70
     0
  9
$DIMDEC
 70
     4
  9
$DIMTDEC
 70
     4
  9
$DIMALTU
 70
     2
  9
$DIMALTTD
 70
     2
  9
$DIMTXSTY
  7
Standard
  9
$DIMAUNIT
 70
     0
  9
$DIMADEC
 70
     0
  9
$DIMALTRND
 40
0.0
  9
$DIMAZIN
 70
     0
  9
$DIMDSEP
 70
    46
  9
$DIMATFIT
 70
     3
  9
$DIMFRAC
 70
     0
  9
$DIMLDRBLK
  1

  9
$DIMLUNIT
 70
     2
  9
$DIMLWD
 70
    -2
  9
$DIMLWE
 70
    -2
  9
$DIMTMOVE
 70
     0
  9
$LUNITS
 70
     2
  9
$LUPREC
 70
     4
  9
$SKETCHINC
 40
0.1
  9
$FILLETRAD
 40
0.5
  9
$AUNITS
 70
     0
  9
$AUPREC
 70
     0
  9
$MENU
  1
.
  9
$ELEVATION
 40
0.0
  9
$PELEVATION
 40
0.0
  9
$THICKNESS
 40
0.0
  9
$LIMCHECK
 70
     0
  9
$CHAMFERA
 40
0.5
  9
$CHAMFERB
 40
0.5
  9
$CHAMFERC
 40
1.0
  9
$CHAMFERD
 40
0.0
  9
$SKPOLY
 70
     0
  9
$TDCREATE
 40
2457182.519120371
  9
$TDUCREATE
 40
2457182.477453704
  9
$TDUPDATE
 40
2457182.519120382
  9
$TDUUPDATE
 40
2457182.477453715
  9
$TDINDWG
 40
0.0000000116
  9
$TDUSRTIMER
 40
0.0000000116
  9
$USRTIMER
 70
     1
  9
$ANGBASE
 50
0.0
  9
$ANGDIR
 70
     0
  9
$PDMODE
 70
     0
  9
$PDSIZE
 40
0.0
  9
$PLINEWID
 40
0.0
  9
$SPLFRAME
 70
     0
  9
$SPLINETYPE
 70
     6
  9
$SPLINESEGS
 70
     8
  9
$HANDSEED
  5
84
  9
$SURFTAB1
 70
     6
  9
$SURFTAB2
 70
     6
  9
$SURFTYPE
 70
     6
  9
$SURFU
 70
     6
  9
$SURFV
 70
     6
  9
$UCSBASE
  2

  9
$UCSNAME
  2

  9
$UCSORG
 10
0.0
 20
0.0
 30
0.0
  9
$UCSXDIR
 10
1.0
 20
0.0
 30
0.0
  9
$UCSYDIR
 10
0.0
 20
1.0
 30
0.0
  9
$UCSORTHOREF
  2

  9
$UCSORTHOVIEW
 70
     0
  9
$UCSORGTOP
 10
0.0
 20
0.0
 30
0.0
  9
$UCSORGBOTTOM
 10
0.0
 20
0.0
 30
0.0
  9
$UCSORGLEFT
 10
0.0
 20
0.0
 30
0.0
  9
$UCSORGRIGHT
 10
0.0
 20
0.0
 30
0.0
  9
$UCSORGFRONT
 10
0.0
 20
0.0
 30
0.0
  9
$UCSORGBACK
 10
0.0
 20
0.0
 30
0.0
  9
$PUCSBASE
  2

  9
$PUCSNAME
  2

  9
$PUCSORG
 10
0.0
 20
0.0
 30
0.0
  9
$PUCSXDIR
 10
1.0
 20
0.0
 30
0.0
  9
$PUCSYDIR
 10
0.0
 20
1.0
 30
0.0
  9
$PUCSORTHOREF
  2

  9
$PUCSORTHOVIEW
 70
     0
  9
$PUCSORGTOP
 10
0.0
 20
0.0
 30
0.0
  9
$PUCSORGBOTTOM
 10
0.0
 20
0.0
 30
0.0
  9
$PUCSORGLEFT
 10
0.0
 20
0.0
 30
0.0
  9
$PUCSORGRIGHT
 10
0.0
 20
0.0
 30
0.0
  9
$PUCSORGFRONT
 10
0.0
 20
0.0
 30
0.0
  9
$PUCSORGBACK
 10
0.0
 20
0.0
 30
0.0
  9
$USERI1
 70
     0
  9
$USERI2
 70
     0
  9
$USERI3
 70
     0
  9
$USERI4
 70
     0
  9
$USERI5
 70
     0
  9
$USERR1
 40
0.0
  9
$USERR2
 40
0.0
  9
$USERR3
 40
0.0
  9
$USERR4
 40
0.0
  9
$USERR5
 40
0.0
  9
$WORLDVIEW
 70
     1
  9
$SHADEDGE
 70
     3
  9
$SHADEDIF
 70
    70
  9
$TILEMODE
 70
     1
  9
$MAXACTVP
 70
    64
  9
$PINSBASE
 10
0.0
 20
0.0
 30
0.0
  9
$PLIMCHECK
 70
     0
  9
$PEXTMIN
 10
1.000000000000000E+20
 20
1.000000000000000E+20
 30
1.000000000000000E+20
  9
$PEXTMAX
 10
-1.000000000000000E+20
 20
-1.000000000000000E+20
 30
-1.000000000000000E+20
  9
$PLIMMIN
 10
0.0
 20
0.0
  9
$PLIMMAX
 10
12.0
 20
9.0
  9
$UNITMODE
 70
     0
  9
$VISRETAIN
 70
     1
  9
$PLINEGEN
 70
     0
  9
$PSLTSCALE
 70
     1
  9
$TREEDEPTH
 70
  3020
  9
$CMLSTYLE
  2
Standard
  9
$CMLJUST
 70
     0
  9
$CMLSCALE
 40
1.0
  9
$PROXYGRAPHICS
 70
     1
  9
$MEASUREMENT
 70
     0
  9
$CELWEIGHT
370
    -1
  9
$ENDCAPS
280
     0
  9
$JOINSTYLE
280
     0
  9
$LWDISPLAY
290
     1
  9
$INSUNITS
 70
     1
  9
$HYPERLINKBASE
  1

  9
$STYLESHEET
  1

  9
$XEDIT
290
     1
  9
$CEPSNTYPE
380
     0
  9
$PSTYLEMODE
290
     1
  9
$FINGERPRINTGUID
  2
{CEE5F7B8-7380-C21E-5FC5-1F3EA2FE2D81}
  9
$VERSIONGUID
  2
{FAEB1C32-E019-11D5-929B-00C0DF256EC4}
  9
$EXTNAMES
290
     1
  9
$PSVPSCALE
 40
0.0
  9
$OLESTARTUP
290
     0
  0
ENDSEC
  0
SECTION
  2
CLASSES
  0
CLASS
  1
ACDBDICTIONARYWDFLT
  2
AcDbDictionaryWithDefault
  3
ObjectDBX Classes
 90
        0
280
     0
281
     0
  0
CLASS
  1
VISUALSTYLE
  2
AcDbVisualStyle
  3
ObjectDBX Classes
 90
     4095
280
     0
281
     0
  0
CLASS
  1
ACDBPLACEHOLDER
  2
AcDbPlaceHolder
  3
ObjectDBX Classes
 90
        0
280
     0
281
     0
  0
CLASS
  1
LAYOUT
  2
AcDbLayout
  3
ObjectDBX Classes
 90
        0
280
     0
281
     0
  0
ENDSEC
  0
SECTION
  2
TABLES
  0
TABLE
  2
VPORT
  5
8
330
0
100
AcDbSymbolTable
 70
     1
  0
VPORT
  5
29
330
8
100
AcDbSymbolTableRecord
100
AcDbViewportTableRecord
  2
*Active
 70
     0
 10
0.0
 20
0.0
 11
1.0
 21
1.0
 12
0.0
 22
0.0
 13
0.0
 23
0.0
 14
0.5
 24
0.5
 15
0.5
 25
0.5
 16
0.0
 26
0.0
 36
1.0
 17
87.78378904055407
 27
-133.663331401046
 37
0.0
 40
180.3283555321748
 41
1.456043252743894
 42
50.0
 43
0.0
 44
0.0
 50
0.0
 51
0.0
 71
     0
 72
   100
 73
     1
 74
     3
 75
     0
 76
     0
 77
     0
 78
     0
281
     0
 65
     1
110
0.0
120
0.0
130
0.0
111
1.0
121
0.0
131
0.0
112
0.0
122
1.0
132
0.0
 79
     0
146
0.0
  0
ENDTAB
  0
TABLE
  2
LTYPE
  5
5
330
0
100
AcDbSymbolTable
 70
     1
  0
LTYPE
  5
14
330
5
100
AcDbSymbolTableRecord
100
AcDbLinetypeTableRecord
  2
ByBlock
 70
     0
  3

 72
    65
 73
     0
 40
0.0
  0
LTYPE
  5
15
330
5
100
AcDbSymbolTableRecord
100
AcDbLinetypeTableRecord
  2
ByLayer
 70
     0
  3

 72
    65
 73
     0
 40
0.0
  0
LTYPE
  5
16
330
5
100
AcDbSymbolTableRecord
100
AcDbLinetypeTableRecord
  2
Continuous
 70
     0
  3
Solid line
 72
    65
 73
     0
 40
0.0
  0
ENDTAB
  0
TABLE
  2
LAYER
  5
2
330
0
100
AcDbSymbolTable
 70
     2
  0
LAYER
  5
10
330
2
100
AcDbSymbolTableRecord
100
AcDbLayerTableRecord
  2
0
 70
     0
 62
     7
  6
Continuous
370
    -3
390
F
  0
LAYER
  5
3B
330
2
100
AcDbSymbolTableRecord
100
AcDbLayerTableRecord
  2
Layer 1
 70
     0
 62
     7
  6
Continuous
370
    -3
390
F
  0
ENDTAB
  0
TABLE
  2
STYLE
  5
3
330
0
100
AcDbSymbolTable
 70
     1
  0
STYLE
  5
11
330
3
100
AcDbSymbolTableRecord
100
AcDbTextStyleTableRecord
  2
Standard
 70
     0
 40
0.0
 41
1.0
 50
0.0
 71
     0
 42
0.2
  3
txt
  4

  0
ENDTAB
  0
TABLE
  2
VIEW
  5
6
330
0
100
AcDbSymbolTable
 70
     0
  0
ENDTAB
  0
TABLE
  2
UCS
  5
7
330
0
100
AcDbSymbolTable
 70
     0
  0
ENDTAB
  0
TABLE
  2
APPID
  5
9
330
0
100
AcDbSymbolTable
 70
     1
  0
APPID
  5
12
330
9
100
AcDbSymbolTableRecord
100
AcDbRegAppTableRecord
  2
ACAD
 70
     0
  0
ENDTAB
  0
TABLE
  2
DIMSTYLE
  5
A
330
0
100
AcDbSymbolTable
 70
     1
100
AcDbDimStyleTable
  0
DIMSTYLE
105
27
330
A
100
AcDbSymbolTableRecord
100
AcDbDimStyleTableRecord
  2
Standard
 70
     0
340
11
  0
ENDTAB
  0
TABLE
  2
BLOCK_RECORD
  5
1
330
0
100
AcDbSymbolTable
 70
     1
  0
BLOCK_RECORD
  5
1F
330
1
100
AcDbSymbolTableRecord
100
AcDbBlockTableRecord
  2
*Model_Space
340
22
  0
BLOCK_RECORD
  5
1B
330
1
100
AcDbSymbolTableRecord
100
AcDbBlockTableRecord
  2
*Paper_Space
340
1E
  0
BLOCK_RECORD
  5
23
330
1
100
AcDbSymbolTableRecord
100
AcDbBlockTableRecord
  2
*Paper_Space0
340
26
  0
ENDTAB
  0
ENDSEC
  0
SECTION
  2
BLOCKS
  0
BLOCK
  5
20
330
1F
100
AcDbEntity
  8
0
100
AcDbBlockBegin
  2
*Model_Space
 70
     0
 71
     0
 10
0.0
 20
0.0
 30
0.0
  3
*Model_Space
  1

  0
ENDBLK
  5
21
330
1F
100
AcDbEntity
  8
0
100
AcDbBlockEnd
  0
BLOCK
  5
1C
330
1B
100
AcDbEntity
 67
     1
  8
0
100
AcDbBlockBegin
  2
*Paper_Space
 70
     0
 71
     0
 10
0.0
 20
0.0
 30
0.0
  3
*Paper_Space
  1

  0
ENDBLK
  5
1D
330
1B
100
AcDbEntity
 67
     1
  8
0
100
AcDbBlockEnd
  0
BLOCK
  5
24
330
23
100
AcDbEntity
  8
0
100
AcDbBlockBegin
  2
*Paper_Space0
 70
     0
 71
     0
 10
0.0
 20
0.0
 30
0.0
  3
*Paper_Space0
  1

  0
ENDBLK
  5
25
330
23
100
AcDbEntity
  8
0
100
AcDbBlockEnd
  0
ENDSEC
  0
SECTION
  2
ENTITIES
  0
SPLINE
  5
3C
330
1F
100
AcDbEntity
  8
Layer 1
 62
     7
370
     9
100
AcDbSpline
210
0.0
220
0.0
230
1.0
 70
    11
 71
     3
 72
    17
 73
    13
 74
     0
 42
0.0000000001
 43
0.0000000001
 40
0.0
 40
0.0
 40
0.0
 40
0.0
 40
1.0
 40
1.0
 40
1.0
 40
2.0
 40
2.0
 40
2.0
 40
3.0
 40
3.0
 40
3.0
 40
4.0
 40
4.0
 40
4.0
 40
4.0
 10
26.67399630409539
 20
-53.56348333079316
 30
0.0
 10
27.24674342851818
 20
-57.10641952782409
 30
0.0
 10
24.83913844865133
 20
-60.44264999574003
 30
0.0
 10
21.29447970387777
 20
-61.01591388448561
 30
0.0
 10
17.75188801639536
 20
-61.58883326368266
 30
0.0
 10
14.41445176505958
 20
-59.1803670099445
 30
0.0
 10
13.84153238586253
 20
-55.63674179381651
 30
0.0
 10
13.26912977098827
 20
-52.09380559678558
 30
0.0
 10
15.67845729859775
 20
-48.75688610977259
 30
0.0
 10
19.22122124085442
 20
-48.18431124012406
 30
0.0
 10
22.76553547607945
 20
-47.61104735137849
 30
0.0
 10
26.10159368922113
 20
-50.01985811466518
 30
0.0
 10
26.67399630409539
 20
-53.56348333079316
 30
0.0
  0
SPLINE
  5
3D
330
1F
100
AcDbEntity
  8
Layer 1
 62
     7
370
     9
100
AcDbSpline
210
0.0
220
0.0
230
1.0
 70
    11
 71
     3
 72
    17
 73
    13
 74
     0
 42
0.0000000001
 43
0.0000000001
 40
0.0
 40
0.0
 40
0.0
 40
0.0
 40
1.0
 40
1.0
 40
1.0
 40
2.0
 40
2.0
 40
2.0
 40
3.0
 40
3.0
 40
3.0
 40
4.0
 40
4.0
 40
4.0
 40
4.0
 10
33.34146185147367
 20
-212.3315700424032
 30
0.0
 10
33.91455348544498
 20
-215.8745062394342
 30
0.0
 10
31.5066039960296
 20
-219.2114257264471
 30
0.0
 10
27.96194525125604
 20
-219.7840005960957
 30
0.0
 10
24.41969807332216
 20
-220.3565754657442
 30
0.0
 10
21.08140054811507
 20
-217.948109212006
 30
0.0
 10
20.50917018801507
 20
-214.4051730149751
 30
0.0
 10
19.93659531836655
 20
-210.8622368179442
 30
0.0
 10
22.34592284597602
 20
-207.5246283118341
 30
0.0
 10
25.88851453345843
 20
-206.9523979517341
 30
0.0
 10
29.43282876868346
 20
-206.3798230820856
 30
0.0
 10
32.76923149137367
 20
-208.7882893358238
 30
0.0
 10
33.34146185147367
 20
-212.3315700424032
 30
0.0
  0
SPLINE
  5
3E
330
1F
100
AcDbEntity
  8
Layer 1
 62
     7
370
     9
100
AcDbSpline
210
0.0
220
0.0
230
1.0
 70
    11
 71
     3
 72
    17
 73
    13
 74
     0
 42
0.0000000001
 43
0.0000000001
 40
0.0
 40
0.0
 40
0.0
 40
0.0
 40
1.0
 40
1.0
 40
1.0
 40
2.0
 40
2.0
 40
2.0
 40
3.0
 40
3.0
 40
3.0
 40
4.0
 40
4.0
 40
4.0
 40
4.0
 10
196.7897107797956
 20
-202.4069389684955
 30
0.0
 10
197.3626301589927
 20
-205.9498751655264
 30
0.0
 10
194.9545084148031
 20
-209.2864501429909
 30
0.0
 10
191.410194179578
 20
-209.8593695221879
 30
0.0
 10
187.8682915111927
 20
-210.4319443918365
 30
0.0
 10
184.5306830050826
 20
-208.0231336285498
 30
0.0
 10
183.9587971545311
 20
-204.4808864506159
 30
0.0
 10
183.3855332657856
 20
-200.9382947631335
 30
0.0
 10
185.7943440290722
 20
-197.601030766572
 30
0.0
 10
189.3365912070061
 20
-197.0284558969234
 30
0.0
 10
192.8815944613282
 20
-196.4555365177264
 30
0.0
 10
196.2178249292442
 20
-198.8643472810131
 30
0.0
 10
196.7897107797956
 20
-202.4069389684955
 30
0.0
  0
SPLINE
  5
3F
330
1F
100
AcDbEntity
  8
Layer 1
 62
     7
370
     9
100
AcDbSpline
210
0.0
220
0.0
230
1.0
 70
    11
 71
     3
 72
    17
 73
    13
 74
     0
 42
0.0000000001
 43
0.0000000001
 40
0.0
 40
0.0
 40
0.0
 40
0.0
 40
1.0
 40
1.0
 40
1.0
 40
2.0
 40
2.0
 40
2.0
 40
3.0
 40
3.0
 40
3.0
 40
4.0
 40
4.0
 40
4.0
 40
4.0
 10
203.9410399880773
 20
-81.32234020319372
 30
0.0
 10
204.5136148577258
 20
-84.86562090977318
 30
0.0
 10
202.1065266421817
 20
-88.20254039678618
 30
0.0
 10
198.5618678974081
 20
-88.7751152664347
 30
0.0
 10
195.0185871908287
 20
-89.34769013608322
 30
0.0
 10
191.6809786847187
 20
-86.93887937279653
 30
0.0
 10
191.1087483246187
 20
-83.3959431757656
 30
0.0
 10
190.5361734549701
 20
-79.85300697873467
 30
0.0
 10
192.9449842182568
 20
-76.51574298217315
 30
0.0
 10
196.4879204152878
 20
-75.94351262207316
 30
0.0
 10
200.0325791600613
 20
-75.37093775242462
 30
0.0
 10
203.3688096279772
 20
-77.77905949661427
 30
0.0
 10
203.9410399880773
 20
-81.32234020319372
 30
0.0
  0
SPLINE
  5
40
330
1F
100
AcDbEntity
  8
Layer 1
370
     0
100
AcDbSpline
210
0.0
220
0.0
230
1.0
 70
    11
 71
     3
 72
    17
 73
    13
 74
     0
 42
0.0000000001
 43
0.0000000001
 40
0.0
 40
0.0
 40
0.0
 40
0.0
 40
1.0
 40
1.0
 40
1.0
 40
2.0
 40
2.0
 40
2.0
 40
3.0
 40
3.0
 40
3.0
 40
4.0
 40
4.0
 40
4.0
 40
4.0
 10
88.13329397753266
 20
-53.56313882124464
 30
0.0
 10
88.70586884718118
 20
-57.10641952782409
 30
0.0
 10
86.29878063163711
 20
-60.44333901483709
 30
0.0
 10
82.75412188686356
 20
-61.01591388448561
 30
0.0
 10
79.21084118028409
 20
-61.58848875413413
 30
0.0
 10
75.87323267417406
 20
-59.17967799084744
 30
0.0
 10
75.30100231407405
 20
-55.63674179381651
 30
0.0
 10
74.72842744442553
 20
-52.09380559678558
 30
0.0
 10
77.13723820771222
 20
-48.75654160022406
 30
0.0
 10
80.68017440474316
 20
-48.18431124012406
 30
0.0
 10
84.22483314951671
 20
-47.61173637047554
 30
0.0
 10
87.56106361743265
 20
-50.01985811466518
 30
0.0
 10
88.13329397753266
 20
-53.56313882124464
 30
0.0
  0
SPLINE
  5
41
330
1F
100
AcDbEntity
  8
Layer 1
370
     0
100
AcDbSpline
210
0.0
220
0.0
230
1.0
 70
    11
 71
     3
 72
    17
 73
    13
 74
     0
 42
0.0000000001
 43
0.0000000001
 40
0.0
 40
0.0
 40
0.0
 40
0.0
 40
1.0
 40
1.0
 40
1.0
 40
2.0
 40
2.0
 40
2.0
 40
3.0
 40
3.0
 40
3.0
 40
4.0
 40
4.0
 40
4.0
 40
4.0
 10
85.66591659099672
 20
-53.9619086236623
 30
0.0
 10
86.01800534958926
 20
-56.14265406582545
 30
0.0
 10
84.53661429093182
 20
-58.19610322980861
 30
0.0
 10
82.35517982967163
 20
-58.54836424317541
 30
0.0
 10
80.17460664228274
 20
-58.90045300176794
 30
0.0
 10
78.12115747829958
 20
-57.41837292401347
 30
0.0
 10
77.76855195538425
 20
-55.23797199139884
 30
0.0
 10
77.41646319679172
 20
-53.05757105878422
 30
0.0
 10
78.8985432745462
 20
-51.00412189480105
 30
0.0
 10
81.07911646193509
 20
-50.65186088143426
 30
0.0
 10
83.26020641364676
 20
-50.29977212284172
 30
0.0
 10
85.31313881330713
 20
-51.78133543627342
 30
0.0
 10
85.66591659099672
 20
-53.9619086236623
 30
0.0
  0
SPLINE
  5
42
330
1F
100
AcDbEntity
  8
Layer 1
370
     0
100
AcDbSpline
210
0.0
220
0.0
230
1.0
 70
    11
 71
     3
 72
    17
 73
    13
 74
     0
 42
0.0000000001
 43
0.0000000001
 40
0.0
 40
0.0
 40
0.0
 40
0.0
 40
1.0
 40
1.0
 40
1.0
 40
2.0
 40
2.0
 40
2.0
 40
3.0
 40
3.0
 40
3.0
 40
4.0
 40
4.0
 40
4.0
 40
4.0
 10
103.7630031750141
 20
-53.56313882124464
 30
0.0
 10
104.3355780446626
 20
-57.10641952782409
 30
0.0
 10
101.9284898291186
 20
-60.44333901483709
 30
0.0
 10
98.38383108434502
 20
-61.01591388448561
 30
0.0
 10
94.84055037776557
 20
-61.58848875413413
 30
0.0
 10
91.50294187165552
 20
-59.17967799084744
 30
0.0
 10
90.93071151155551
 20
-55.63674179381651
 30
0.0
 10
90.358136641907
 20
-52.09380559678558
 30
0.0
 10
92.76694740519369
 20
-48.75654160022406
 30
0.0
 10
96.30988360222462
 20
-48.18431124012406
 30
0.0
 10
99.85454234699817
 20
-47.61173637047554
 30
0.0
 10
103.1907728149141
 20
-50.01985811466518
 30
0.0
 10
103.7630031750141
 20
-53.56313882124464
 30
0.0
  0
SPLINE
  5
43
330
1F
100
AcDbEntity
  8
Layer 1
370
     0
100
AcDbSpline
210
0.0
220
0.0
230
1.0
 70
    11
 71
     3
 72
    17
 73
    13
 74
     0
 42
0.0000000001
 43
0.0000000001
 40
0.0
 40
0.0
 40
0.0
 40
0.0
 40
1.0
 40
1.0
 40
1.0
 40
2.0
 40
2.0
 40
2.0
 40
3.0
 40
3.0
 40
3.0
 40
4.0
 40
4.0
 40
4.0
 40
4.0
 10
101.2956257884782
 20
-53.9619086236623
 30
0.0
 10
101.6477145470707
 20
-56.14265406582545
 30
0.0
 10
100.1663234884133
 20
-58.19610322980861
 30
0.0
 10
97.98488902715309
 20
-58.54836424317541
 30
0.0
 10
95.80414358498994
 20
-58.90045300176794
 30
0.0
 10
93.75086667578104
 20
-57.41837292401347
 30
0.0
 10
93.39808889809146
 20
-55.23797199139884
 30
0.0
 10
93.04600013949891
 20
-53.05757105878422
 30
0.0
 10
94.5280802172534
 20
-51.00412189480105
 30
0.0
 10
96.70882565941655
 20
-50.65186088143426
 30
0.0
 10
98.88991561112822
 20
-50.29977212284172
 30
0.0
 10
100.9428480107886
 20
-51.78133543627342
 30
0.0
 10
101.2956257884782
 20
-53.9619086236623
 30
0.0
  0
SPLINE
  5
44
330
1F
100
AcDbEntity
  8
Layer 1
370
     0
100
AcDbSpline
210
0.0
220
0.0
230
1.0
 70
    11
 71
     3
 72
    17
 73
    13
 74
     0
 42
0.0000000001
 43
0.0000000001
 40
0.0
 40
0.0
 40
0.0
 40
0.0
 40
1.0
 40
1.0
 40
1.0
 40
2.0
 40
2.0
 40
2.0
 40
3.0
 40
3.0
 40
3.0
 40
4.0
 40
4.0
 40
4.0
 40
4.0
 10
119.3925401177213
 20
-53.56313882124464
 30
0.0
 10
119.9651149873698
 20
-57.10641952782409
 30
0.0
 10
117.5583712813743
 20
-60.44333901483709
 30
0.0
 10
114.0133680270522
 20
-61.01591388448561
 30
0.0
 10
110.4704318300213
 20
-61.58848875413413
 30
0.0
 10
107.1328233239112
 20
-59.17967799084744
 30
0.0
 10
106.5602484542627
 20
-55.63674179381651
 30
0.0
 10
105.9876735846142
 20
-52.09380559678558
 30
0.0
 10
108.3964843479009
 20
-48.75654160022406
 30
0.0
 10
111.9394205449318
 20
-48.18431124012406
 30
0.0
 10
115.4844237992539
 20
-47.61173637047554
 30
0.0
 10
118.8206542671698
 20
-50.01985811466518
 30
0.0
 10
119.3925401177213
 20
-53.56313882124464
 30
0.0
  0
SPLINE
  5
45
330
1F
100
AcDbEntity
  8
Layer 1
370
     0
100
AcDbSpline
210
0.0
220
0.0
230
1.0
 70
    11
 71
     3
 72
    17
 73
    13
 74
     0
 42
0.0000000001
 43
0.0000000001
 40
0.0
 40
0.0
 40
0.0
 40
0.0
 40
1.0
 40
1.0
 40
1.0
 40
2.0
 40
2.0
 40
2.0
 40
3.0
 40
3.0
 40
3.0
 40
4.0
 40
4.0
 40
4.0
 40
4.0
 10
116.9251627311854
 20
-53.9619086236623
 30
0.0
 10
117.2772514897779
 20
-56.14265406582545
 30
0.0
 10
115.7958604311205
 20
-58.19610322980861
 30
0.0
 10
113.6144259698603
 20
-58.54836424317541
 30
0.0
 10
111.4336805276971
 20
-58.90045300176794
 30
0.0
 10
109.3804036184882
 20
-57.41837292401347
 30
0.0
 10
109.0276258407986
 20
-55.23797199139884
 30
0.0
 10
108.6755370822061
 20
-53.05757105878422
 30
0.0
 10
110.1576171599606
 20
-51.00412189480105
 30
0.0
 10
112.3383626021238
 20
-50.65186088143426
 30
0.0
 10
114.5197970633839
 20
-50.29977212284172
 30
0.0
 10
116.5723849534958
 20
-51.78133543627342
 30
0.0
 10
116.9251627311854
 20
-53.9619086236623
 30
0.0
  0
SPLINE
  5
46
330
1F
100
AcDbEntity
  8
Layer 1
370
     0
100
AcDbSpline
210
0.0
220
0.0
230
1.0
 70
    11
 71
     3
 72
    17
 73
    13
 74
     0
 42
0.0000000001
 43
0.0000000001
 40
0.0
 40
0.0
 40
0.0
 40
0.0
 40
1.0
 40
1.0
 40
1.0
 40
2.0
 40
2.0
 40
2.0
 40
3.0
 40
3.0
 40
3.0
 40
4.0
 40
4.0
 40
4.0
 40
4.0
 10
135.0222493152028
 20
-53.56313882124464
 30
0.0
 10
135.5948241848513
 20
-57.10641952782409
 30
0.0
 10
133.1880804788558
 20
-60.44333901483709
 30
0.0
 10
129.6430772245337
 20
-61.01591388448561
 30
0.0
 10
126.1001410275027
 20
-61.58848875413413
 30
0.0
 10
122.7625325213927
 20
-59.17967799084744
 30
0.0
 10
122.1899576517442
 20
-55.63674179381651
 30
0.0
 10
121.6173827820957
 20
-52.09380559678558
 30
0.0
 10
124.0261935453823
 20
-48.75654160022406
 30
0.0
 10
127.5691297424133
 20
-48.18431124012406
 30
0.0
 10
131.1141329967353
 20
-47.61173637047554
 30
0.0
 10
134.4503634646513
 20
-50.01985811466518
 30
0.0
 10
135.0222493152028
 20
-53.56313882124464
 30
0.0
  0
SPLINE
  5
47
330
1F
100
AcDbEntity
  8
Layer 1
370
     0
100
AcDbSpline
210
0.0
220
0.0
230
1.0
 70
    11
 71
     3
 72
    17
 73
    13
 74
     0
 42
0.0000000001
 43
0.0000000001
 40
0.0
 40
0.0
 40
0.0
 40
0.0
 40
1.0
 40
1.0
 40
1.0
 40
2.0
 40
2.0
 40
2.0
 40
3.0
 40
3.0
 40
3.0
 40
4.0
 40
4.0
 40
4.0
 40
4.0
 10
132.5548719286668
 20
-53.9619086236623
 30
0.0
 10
132.9069606872594
 20
-56.14265406582545
 30
0.0
 10
131.4255696286019
 20
-58.19610322980861
 30
0.0
 10
129.2441351673417
 20
-58.54836424317541
 30
0.0
 10
127.0633897251786
 20
-58.90045300176794
 30
0.0
 10
125.0101128159697
 20
-57.41837292401347
 30
0.0
 10
124.6573350382801
 20
-55.23797199139884
 30
0.0
 10
124.3052462796876
 20
-53.05757105878422
 30
0.0
 10
125.7873263574421
 20
-51.00412189480105
 30
0.0
 10
127.9680717996052
 20
-50.65186088143426
 30
0.0
 10
130.1495062608654
 20
-50.29977212284172
 30
0.0
 10
132.2020941509773
 20
-51.78133543627342
 30
0.0
 10
132.5548719286668
 20
-53.9619086236623
 30
0.0
  0
SPLINE
  5
48
330
1F
100
AcDbEntity
  8
Layer 1
370
     0
100
AcDbSpline
210
0.0
220
0.0
230
1.0
 70
    11
 71
     3
 72
    17
 73
    13
 74
     0
 42
0.0000000001
 43
0.0000000001
 40
0.0
 40
0.0
 40
0.0
 40
0.0
 40
1.0
 40
1.0
 40
1.0
 40
2.0
 40
2.0
 40
2.0
 40
3.0
 40
3.0
 40
3.0
 40
4.0
 40
4.0
 40
4.0
 40
4.0
 10
150.6519585126842
 20
-53.56313882124464
 30
0.0
 10
151.2245333823328
 20
-57.10641952782409
 30
0.0
 10
148.8177896763372
 20
-60.44333901483709
 30
0.0
 10
145.2727864220151
 20
-61.01591388448561
 30
0.0
 10
141.7298502249842
 20
-61.58848875413413
 30
0.0
 10
138.3922417188742
 20
-59.17967799084744
 30
0.0
 10
137.8196668492257
 20
-55.63674179381651
 30
0.0
 10
137.2470919795771
 20
-52.09380559678558
 30
0.0
 10
139.6559027428638
 20
-48.75654160022406
 30
0.0
 10
143.1988389398947
 20
-48.18431124012406
 30
0.0
 10
146.7438421942168
 20
-47.61173637047554
 30
0.0
 10
150.0800726621328
 20
-50.01985811466518
 30
0.0
 10
150.6519585126842
 20
-53.56313882124464
 30
0.0
  0
SPLINE
  5
49
330
1F
100
AcDbEntity
  8
Layer 1
370
     0
100
AcDbSpline
210
0.0
220
0.0
230
1.0
 70
    11
 71
     3
 72
    17
 73
    13
 74
     0
 42
0.0000000001
 43
0.0000000001
 40
0.0
 40
0.0
 40
0.0
 40
0.0
 40
1.0
 40
1.0
 40
1.0
 40
2.0
 40
2.0
 40
2.0
 40
3.0
 40
3.0
 40
3.0
 40
4.0
 40
4.0
 40
4.0
 40
4.0
 10
148.1845811261483
 20
-53.9619086236623
 30
0.0
 10
148.5366698847408
 20
-56.14265406582545
 30
0.0
 10
147.0552788260834
 20
-58.19610322980861
 30
0.0
 10
144.8738443648232
 20
-58.54836424317541
 30
0.0
 10
142.6930989226601
 20
-58.90045300176794
 30
0.0
 10
140.6398220134512
 20
-57.41837292401347
 30
0.0
 10
140.2870442357616
 20
-55.23797199139884
 30
0.0
 10
139.934955477169
 20
-53.05757105878422
 30
0.0
 10
141.4170355549235
 20
-51.00412189480105
 30
0.0
 10
143.5977809970867
 20
-50.65186088143426
 30
0.0
 10
145.7792154583469
 20
-50.29977212284172
 30
0.0
 10
147.8318033484587
 20
-51.78133543627342
 30
0.0
 10
148.1845811261483
 20
-53.9619086236623
 30
0.0
  0
SPLINE
  5
4A
330
1F
100
AcDbEntity
  8
Layer 1
370
     0
100
AcDbSpline
210
0.0
220
0.0
230
1.0
 70
    11
 71
     3
 72
    17
 73
    13
 74
     0
 42
0.0000000001
 43
0.0000000001
 40
0.0
 40
0.0
 40
0.0
 40
0.0
 40
1.0
 40
1.0
 40
1.0
 40
2.0
 40
2.0
 40
2.0
 40
3.0
 40
3.0
 40
3.0
 40
4.0
 40
4.0
 40
4.0
 40
4.0
 10
166.2816677101657
 20
-53.56313882124464
 30
0.0
 10
166.8542425798142
 20
-57.10641952782409
 30
0.0
 10
164.4474988738187
 20
-60.44333901483709
 30
0.0
 10
160.9024956194966
 20
-61.01591388448561
 30
0.0
 10
157.3595594224657
 20
-61.58848875413413
 30
0.0
 10
154.0219509163556
 20
-59.17967799084744
 30
0.0
 10
153.4493760467071
 20
-55.63674179381651
 30
0.0
 10
152.8768011770586
 20
-52.09380559678558
 30
0.0
 10
155.2856119403453
 20
-48.75654160022406
 30
0.0
 10
158.8285481373762
 20
-48.18431124012406
 30
0.0
 10
162.3735513916983
 20
-47.61173637047554
 30
0.0
 10
165.7097818596142
 20
-50.01985811466518
 30
0.0
 10
166.2816677101657
 20
-53.56313882124464
 30
0.0
  0
SPLINE
  5
4B
330
1F
100
AcDbEntity
  8
Layer 1
370
     0
100
AcDbSpline
210
0.0
220
0.0
230
1.0
 70
    11
 71
     3
 72
    17
 73
    13
 74
     0
 42
0.0000000001
 43
0.0000000001
 40
0.0
 40
0.0
 40
0.0
 40
0.0
 40
1.0
 40
1.0
 40
1.0
 40
2.0
 40
2.0
 40
2.0
 40
3.0
 40
3.0
 40
3.0
 40
4.0
 40
4.0
 40
4.0
 40
4.0
 10
163.8142903236298
 20
-53.9619086236623
 30
0.0
 10
164.1663790822223
 20
-56.14265406582545
 30
0.0
 10
162.6849880235649
 20
-58.19610322980861
 30
0.0
 10
160.5035535623047
 20
-58.54836424317541
 30
0.0
 10
158.3228081201415
 20
-58.90045300176794
 30
0.0
 10
156.2695312109326
 20
-57.41837292401347
 30
0.0
 10
155.916753433243
 20
-55.23797199139884
 30
0.0
 10
155.5646646746505
 20
-53.05757105878422
 30
0.0
 10
157.046744752405
 20
-51.00412189480105
 30
0.0
 10
159.2274901945681
 20
-50.65186088143426
 30
0.0
 10
161.4089246558283
 20
-50.29977212284172
 30
0.0
 10
163.4615125459402
 20
-51.78133543627342
 30
0.0
 10
163.8142903236298
 20
-53.9619086236623
 30
0.0
  0
SPLINE
  5
4C
330
1F
100
AcDbEntity
  8
Layer 1
370
     0
100
AcDbSpline
210
0.0
220
0.0
230
1.0
 70
    11
 71
     3
 72
    17
 73
    13
 74
     0
 42
0.0000000001
 43
0.0000000001
 40
0.0
 40
0.0
 40
0.0
 40
0.0
 40
1.0
 40
1.0
 40
1.0
 40
2.0
 40
2.0
 40
2.0
 40
3.0
 40
3.0
 40
3.0
 40
4.0
 40
4.0
 40
4.0
 40
4.0
 10
181.9113769076472
 20
-53.56313882124464
 30
0.0
 10
182.4839517772957
 20
-57.10641952782409
 30
0.0
 10
180.0772080713002
 20
-60.44333901483709
 30
0.0
 10
176.5322048169781
 20
-61.01591388448561
 30
0.0
 10
172.9892686199471
 20
-61.58848875413413
 30
0.0
 10
169.6516601138371
 20
-59.17967799084744
 30
0.0
 10
169.0790852441886
 20
-55.63674179381651
 30
0.0
 10
168.5065103745401
 20
-52.09380559678558
 30
0.0
 10
170.9153211378267
 20
-48.75654160022406
 30
0.0
 10
174.4582573348577
 20
-48.18431124012406
 30
0.0
 10
178.0032605891797
 20
-47.61173637047554
 30
0.0
 10
181.3394910570957
 20
-50.01985811466518
 30
0.0
 10
181.9113769076472
 20
-53.56313882124464
 30
0.0
  0
SPLINE
  5
4D
330
1F
100
AcDbEntity
  8
Layer 1
370
     0
100
AcDbSpline
210
0.0
220
0.0
230
1.0
 70
    11
 71
     3
 72
    17
 73
    13
 74
     0
 42
0.0000000001
 43
0.0000000001
 40
0.0
 40
0.0
 40
0.0
 40
0.0
 40
1.0
 40
1.0
 40
1.0
 40
2.0
 40
2.0
 40
2.0
 40
3.0
 40
3.0
 40
3.0
 40
4.0
 40
4.0
 40
4.0
 40
4.0
 10
179.4439995211112
 20
-53.9619086236623
 30
0.0
 10
179.7960882797038
 20
-56.14265406582545
 30
0.0
 10
178.3146972210463
 20
-58.19610322980861
 30
0.0
 10
176.1332627597861
 20
-58.54836424317541
 30
0.0
 10
173.952517317623
 20
-58.90045300176794
 30
0.0
 10
171.8992404084141
 20
-57.41837292401347
 30
0.0
 10
171.5464626307245
 20
-55.23797199139884
 30
0.0
 10
171.194373872132
 20
-53.05757105878422
 30
0.0
 10
172.6764539498865
 20
-51.00412189480105
 30
0.0
 10
174.8571993920496
 20
-50.65186088143426
 30
0.0
 10
177.0386338533098
 20
-50.29977212284172
 30
0.0
 10
179.0912217434216
 20
-51.78133543627342
 30
0.0
 10
179.4439995211112
 20
-53.9619086236623
 30
0.0
  0
SPLINE
  5
4E
330
1F
100
AcDbEntity
  8
Layer 1
370
     0
100
AcDbSpline
210
0.0
220
0.0
230
1.0
 70
    11
 71
     3
 72
    17
 73
    13
 74
     0
 42
0.0000000001
 43
0.0000000001
 40
0.0
 40
0.0
 40
0.0
 40
0.0
 40
1.0
 40
1.0
 40
1.0
 40
2.0
 40
2.0
 40
2.0
 40
3.0
 40
3.0
 40
3.0
 40
4.0
 40
4.0
 40
4.0
 40
4.0
 10
177.910932030175
 20
-68.32227238960347
 30
0.0
 10
178.4835068998236
 20
-71.86555309618292
 30
0.0
 10
176.076763193828
 20
-75.20247258319591
 30
0.0
 10
172.5317599395059
 20
-75.77504745284443
 30
0.0
 10
168.988823742475
 20
-76.34762232249295
 30
0.0
 10
165.651215236365
 20
-73.93881155920627
 30
0.0
 10
165.0786403667165
 20
-70.39587536217535
 30
0.0
 10
164.5060654970679
 20
-66.8529391651444
 30
0.0
 10
166.9148762603546
 20
-63.51567516858289
 30
0.0
 10
170.4578124573856
 20
-62.94344480848289
 30
0.0
 10
174.0028157117076
 20
-62.37086993883437
 30
0.0
 10
177.3390461796236
 20
-64.778991683024
 30
0.0
 10
177.910932030175
 20
-68.32227238960347
 30
0.0
  0
SPLINE
  5
4F
330
1F
100
AcDbEntity
  8
Layer 1
370
     0
100
AcDbSpline
210
0.0
220
0.0
230
1.0
 70
    11
 71
     3
 72
    17
 73
    13
 74
     0
 42
0.0000000001
 43
0.0000000001
 40
0.0
 40
0.0
 40
0.0
 40
0.0
 40
1.0
 40
1.0
 40
1.0
 40
2.0
 40
2.0
 40
2.0
 40
3.0
 40
3.0
 40
3.0
 40
4.0
 40
4.0
 40
4.0
 40
4.0
 10
175.4435546436391
 20
-68.72104219202113
 30
0.0
 10
175.7956434022317
 20
-70.90178763418427
 30
0.0
 10
174.3142523435742
 20
-72.95523679816745
 30
0.0
 10
172.132817882314
 20
-73.30749781153423
 30
0.0
 10
169.9520724401509
 20
-73.65958657012678
 30
0.0
 10
167.898795530942
 20
-72.17750649237229
 30
0.0
 10
167.5460177532524
 20
-69.99710555975767
 30
0.0
 10
167.1939289946599
 20
-67.81670462714305
 30
0.0
 10
168.6760090724143
 20
-65.76325546315988
 30
0.0
 10
170.8567545145775
 20
-65.4109944497931
 30
0.0
 10
173.0381889758377
 20
-65.05890569120055
 30
0.0
 10
175.0907768659495
 20
-66.54046900463224
 30
0.0
 10
175.4435546436391
 20
-68.72104219202113
 30
0.0
  0
SPLINE
  5
50
330
1F
100
AcDbEntity
  8
Layer 1
370
     0
100
AcDbSpline
210
0.0
220
0.0
230
1.0
 70
    11
 71
     3
 72
    17
 73
    13
 74
     0
 42
0.0000000001
 43
0.0000000001
 40
0.0
 40
0.0
 40
0.0
 40
0.0
 40
1.0
 40
1.0
 40
1.0
 40
2.0
 40
2.0
 40
2.0
 40
3.0
 40
3.0
 40
3.0
 40
4.0
 40
4.0
 40
4.0
 40
4.0
 10
197.5410861051286
 20
-53.56313882124464
 30
0.0
 10
198.1136609747772
 20
-57.10641952782409
 30
0.0
 10
195.7069172687816
 20
-60.44333901483709
 30
0.0
 10
192.1619140144595
 20
-61.01591388448561
 30
0.0
 10
188.6189778174286
 20
-61.58848875413413
 30
0.0
 10
185.2813693113185
 20
-59.17967799084744
 30
0.0
 10
184.70879444167
 20
-55.63674179381651
 30
0.0
 10
184.1362195720215
 20
-52.09380559678558
 30
0.0
 10
186.5450303353082
 20
-48.75654160022406
 30
0.0
 10
190.0879665323391
 20
-48.18431124012406
 30
0.0
 10
193.6329697866612
 20
-47.61173637047554
 30
0.0
 10
196.9692002545771
 20
-50.01985811466518
 30
0.0
 10
197.5410861051286
 20
-53.56313882124464
 30
0.0
  0
SPLINE
  5
51
330
1F
100
AcDbEntity
  8
Layer 1
370
     0
100
AcDbSpline
210
0.0
220
0.0
230
1.0
 70
    11
 71
     3
 72
    17
 73
    13
 74
     0
 42
0.0000000001
 43
0.0000000001
 40
0.0
 40
0.0
 40
0.0
 40
0.0
 40
1.0
 40
1.0
 40
1.0
 40
2.0
 40
2.0
 40
2.0
 40
3.0
 40
3.0
 40
3.0
 40
4.0
 40
4.0
 40
4.0
 40
4.0
 10
195.0737087185927
 20
-53.9619086236623
 30
0.0
 10
195.4257974771852
 20
-56.14265406582545
 30
0.0
 10
193.9444064185278
 20
-58.19610322980861
 30
0.0
 10
191.7629719572676
 20
-58.54836424317541
 30
0.0
 10
189.5822265151045
 20
-58.90045300176794
 30
0.0
 10
187.5289496058955
 20
-57.41837292401347
 30
0.0
 10
187.176171828206
 20
-55.23797199139884
 30
0.0
 10
186.8240830696134
 20
-53.05757105878422
 30
0.0
 10
188.3061631473679
 20
-51.00412189480105
 30
0.0
 10
190.4869085895311
 20
-50.65186088143426
 30
0.0
 10
192.6683430507913
 20
-50.29977212284172
 30
0.0
 10
194.7209309409031
 20
-51.78133543627342
 30
0.0
 10
195.0737087185927
 20
-53.9619086236623
 30
0.0
  0
SPLINE
  5
52
330
1F
100
AcDbEntity
  8
Layer 1
370
     0
100
AcDbSpline
210
0.0
220
0.0
230
1.0
 70
    11
 71
     3
 72
    17
 73
    13
 74
     0
 42
0.0000000001
 43
0.0000000001
 40
0.0
 40
0.0
 40
0.0
 40
0.0
 40
1.0
 40
1.0
 40
1.0
 40
2.0
 40
2.0
 40
2.0
 40
3.0
 40
3.0
 40
3.0
 40
4.0
 40
4.0
 40
4.0
 40
4.0
 10
213.1707953026101
 20
-53.56313882124464
 30
0.0
 10
213.7433701722586
 20
-57.10641952782409
 30
0.0
 10
211.3366264662631
 20
-60.44333901483709
 30
0.0
 10
207.791623211941
 20
-61.01591388448561
 30
0.0
 10
204.24868701491
 20
-61.58848875413413
 30
0.0
 10
200.9110785088
 20
-59.17967799084744
 30
0.0
 10
200.3385036391515
 20
-55.63674179381651
 30
0.0
 10
199.765928769503
 20
-52.09380559678558
 30
0.0
 10
202.1747395327897
 20
-48.75654160022406
 30
0.0
 10
205.7176757298206
 20
-48.18431124012406
 30
0.0
 10
209.2626789841427
 20
-47.61173637047554
 30
0.0
 10
212.5989094520586
 20
-50.01985811466518
 30
0.0
 10
213.1707953026101
 20
-53.56313882124464
 30
0.0
  0
SPLINE
  5
53
330
1F
100
AcDbEntity
  8
Layer 1
370
     0
100
AcDbSpline
210
0.0
220
0.0
230
1.0
 70
    11
 71
     3
 72
    17
 73
    13
 74
     0
 42
0.0000000001
 43
0.0000000001
 40
0.0
 40
0.0
 40
0.0
 40
0.0
 40
1.0
 40
1.0
 40
1.0
 40
2.0
 40
2.0
 40
2.0
 40
3.0
 40
3.0
 40
3.0
 40
4.0
 40
4.0
 40
4.0
 40
4.0
 10
210.7034179160742
 20
-53.9619086236623
 30
0.0
 10
211.0555066746667
 20
-56.14265406582545
 30
0.0
 10
209.5741156160093
 20
-58.19610322980861
 30
0.0
 10
207.3926811547491
 20
-58.54836424317541
 30
0.0
 10
205.2119357125859
 20
-58.90045300176794
 30
0.0
 10
203.158658803377
 20
-57.41837292401347
 30
0.0
 10
202.8058810256874
 20
-55.23797199139884
 30
0.0
 10
202.4537922670949
 20
-53.05757105878422
 30
0.0
 10
203.9358723448494
 20
-51.00412189480105
 30
0.0
 10
206.1166177870125
 20
-50.65186088143426
 30
0.0
 10
208.2980522482727
 20
-50.29977212284172
 30
0.0
 10
210.3506401383846
 20
-51.78133543627342
 30
0.0
 10
210.7034179160742
 20
-53.9619086236623
 30
0.0
  0
SPLINE
  5
54
330
1F
100
AcDbEntity
  8
Layer 1
370
     0
100
AcDbSpline
210
0.0
220
0.0
230
1.0
 70
    11
 71
     3
 72
    17
 73
    13
 74
     0
 42
0.0000000001
 43
0.0000000001
 40
0.0
 40
0.0
 40
0.0
 40
0.0
 40
1.0
 40
1.0
 40
1.0
 40
2.0
 40
2.0
 40
2.0
 40
3.0
 40
3.0
 40
3.0
 40
4.0
 40
4.0
 40
4.0
 40
4.0
 10
99.762558297542
 20
-68.32227238960347
 30
0.0
 10
100.3351331671905
 20
-71.86555309618292
 30
0.0
 10
97.928389461195
 20
-75.20247258319591
 30
0.0
 10
94.38338620687291
 20
-75.77504745284443
 30
0.0
 10
90.84045000984197
 20
-76.34762232249295
 30
0.0
 10
87.50284150373193
 20
-73.93881155920627
 30
0.0
 10
86.93026663408341
 20
-70.39587536217535
 30
0.0
 10
86.35769176443489
 20
-66.8529391651444
 30
0.0
 10
88.76650252772157
 20
-63.51567516858289
 30
0.0
 10
92.30943872475251
 20
-62.94344480848289
 30
0.0
 10
95.8544419790746
 20
-62.37086993883437
 30
0.0
 10
99.19067244699053
 20
-64.778991683024
 30
0.0
 10
99.762558297542
 20
-68.32227238960347
 30
0.0
  0
SPLINE
  5
55
330
1F
100
AcDbEntity
  8
Layer 1
370
     0
100
AcDbSpline
210
0.0
220
0.0
230
1.0
 70
    11
 71
     3
 72
    17
 73
    13
 74
     0
 42
0.0000000001
 43
0.0000000001
 40
0.0
 40
0.0
 40
0.0
 40
0.0
 40
1.0
 40
1.0
 40
1.0
 40
2.0
 40
2.0
 40
2.0
 40
3.0
 40
3.0
 40
3.0
 40
4.0
 40
4.0
 40
4.0
 40
4.0
 10
97.29518091100607
 20
-68.72104219202113
 30
0.0
 10
97.6472696695986
 20
-70.90178763418427
 30
0.0
 10
96.16587861094118
 20
-72.95523679816745
 30
0.0
 10
93.98444414968098
 20
-73.30749781153423
 30
0.0
 10
91.80369870751782
 20
-73.65958657012678
 30
0.0
 10
89.75042179830892
 20
-72.17750649237229
 30
0.0
 10
89.39764402061934
 20
-69.99710555975767
 30
0.0
 10
89.04555526202681
 20
-67.81670462714305
 30
0.0
 10
90.52763533978128
 20
-65.76325546315988
 30
0.0
 10
92.70838078194444
 20
-65.4109944497931
 30
0.0
 10
94.88981524320464
 20
-65.05890569120055
 30
0.0
 10
96.94240313331649
 20
-66.54046900463224
 30
0.0
 10
97.29518091100607
 20
-68.72104219202113
 30
0.0
  0
SPLINE
  5
56
330
1F
100
AcDbEntity
  8
Layer 1
370
     0
100
AcDbSpline
210
0.0
220
0.0
230
1.0
 70
    11
 71
     3
 72
    17
 73
    13
 74
     0
 42
0.0000000001
 43
0.0000000001
 40
0.0
 40
0.0
 40
0.0
 40
0.0
 40
1.0
 40
1.0
 40
1.0
 40
2.0
 40
2.0
 40
2.0
 40
3.0
 40
3.0
 40
3.0
 40
4.0
 40
4.0
 40
4.0
 40
4.0
 10
115.3920952402492
 20
-68.32227238960347
 30
0.0
 10
115.9646701098977
 20
-71.86555309618292
 30
0.0
 10
113.5579264039022
 20
-75.20247258319591
 30
0.0
 10
110.0129231495801
 20
-75.77504745284443
 30
0.0
 10
106.4699869525492
 20
-76.34762232249295
 30
0.0
 10
103.1325507012134
 20
-73.93881155920627
 30
0.0
 10
102.5599758315649
 20
-70.39587536217535
 30
0.0
 10
101.9874009619164
 20
-66.8529391651444
 30
0.0
 10
104.396211725203
 20
-63.51567516858289
 30
0.0
 10
107.9389756674597
 20
-62.94344480848289
 30
0.0
 10
111.4839789217818
 20
-62.37086993883437
 30
0.0
 10
114.8202093896977
 20
-64.778991683024
 30
0.0
 10
115.3920952402492
 20
-68.32227238960347
 30
0.0
  0
SPLINE
  5
57
330
1F
100
AcDbEntity
  8
Layer 1
370
     0
100
AcDbSpline
210
0.0
220
0.0
230
1.0
 70
    11
 71
     3
 72
    17
 73
    13
 74
     0
 42
0.0000000001
 43
0.0000000001
 40
0.0
 40
0.0
 40
0.0
 40
0.0
 40
1.0
 40
1.0
 40
1.0
 40
2.0
 40
2.0
 40
2.0
 40
3.0
 40
3.0
 40
3.0
 40
4.0
 40
4.0
 40
4.0
 40
4.0
 10
112.9247178537133
 20
-68.72104219202113
 30
0.0
 10
113.2768066123058
 20
-70.90178763418427
 30
0.0
 10
111.7954155536484
 20
-72.95523679816745
 30
0.0
 10
109.6139810923882
 20
-73.30749781153423
 30
0.0
 10
107.433235650225
 20
-73.65958657012678
 30
0.0
 10
105.3801309957904
 20
-72.17750649237229
 30
0.0
 10
105.0273532181008
 20
-69.99710555975767
 30
0.0
 10
104.6752644595083
 20
-67.81670462714305
 30
0.0
 10
106.1571722824885
 20
-65.76325546315988
 30
0.0
 10
108.3379177246516
 20
-65.4109944497931
 30
0.0
 10
110.5193521859118
 20
-65.05890569120055
 30
0.0
 10
112.5719400760237
 20
-66.54046900463224
 30
0.0
 10
112.9247178537133
 20
-68.72104219202113
 30
0.0
  0
SPLINE
  5
58
330
1F
100
AcDbEntity
  8
Layer 1
370
     0
100
AcDbSpline
210
0.0
220
0.0
230
1.0
 70
    11
 71
     3
 72
    17
 73
    13
 74
     0
 42
0.0000000001
 43
0.0000000001
 40
0.0
 40
0.0
 40
0.0
 40
0.0
 40
1.0
 40
1.0
 40
1.0
 40
2.0
 40
2.0
 40
2.0
 40
3.0
 40
3.0
 40
3.0
 40
4.0
 40
4.0
 40
4.0
 40
4.0
 10
131.0218044377307
 20
-68.32227238960347
 30
0.0
 10
131.5943793073792
 20
-71.86555309618292
 30
0.0
 10
129.1876356013836
 20
-75.20247258319591
 30
0.0
 10
125.6426323470616
 20
-75.77504745284443
 30
0.0
 10
122.0996961500306
 20
-76.34762232249295
 30
0.0
 10
118.7620876439206
 20
-73.93881155920627
 30
0.0
 10
118.1895127742721
 20
-70.39587536217535
 30
0.0
 10
117.6169379046236
 20
-66.8529391651444
 30
0.0
 10
120.0257486679102
 20
-63.51567516858289
 30
0.0
 10
123.5686848649412
 20
-62.94344480848289
 30
0.0
 10
127.1136881192632
 20
-62.37086993883437
 30
0.0
 10
130.4499185871792
 20
-64.778991683024
 30
0.0
 10
131.0218044377307
 20
-68.32227238960347
 30
0.0
  0
SPLINE
  5
59
330
1F
100
AcDbEntity
  8
Layer 1
370
     0
100
AcDbSpline
210
0.0
220
0.0
230
1.0
 70
    11
 71
     3
 72
    17
 73
    13
 74
     0
 42
0.0000000001
 43
0.0000000001
 40
0.0
 40
0.0
 40
0.0
 40
0.0
 40
1.0
 40
1.0
 40
1.0
 40
2.0
 40
2.0
 40
2.0
 40
3.0
 40
3.0
 40
3.0
 40
4.0
 40
4.0
 40
4.0
 40
4.0
 10
128.5544270511947
 20
-68.72104219202113
 30
0.0
 10
128.9065158097873
 20
-70.90178763418427
 30
0.0
 10
127.4251247511298
 20
-72.95523679816745
 30
0.0
 10
125.2436902898696
 20
-73.30749781153423
 30
0.0
 10
123.0629448477065
 20
-73.65958657012678
 30
0.0
 10
121.0096679384976
 20
-72.17750649237229
 30
0.0
 10
120.656890160808
 20
-69.99710555975767
 30
0.0
 10
120.3048014022155
 20
-67.81670462714305
 30
0.0
 10
121.7868814799699
 20
-65.76325546315988
 30
0.0
 10
123.9676269221331
 20
-65.4109944497931
 30
0.0
 10
126.1490613833933
 20
-65.05890569120055
 30
0.0
 10
128.2016492735052
 20
-66.54046900463224
 30
0.0
 10
128.5544270511947
 20
-68.72104219202113
 30
0.0
  0
SPLINE
  5
5A
330
1F
100
AcDbEntity
  8
Layer 1
370
     0
100
AcDbSpline
210
0.0
220
0.0
230
1.0
 70
    11
 71
     3
 72
    17
 73
    13
 74
     0
 42
0.0000000001
 43
0.0000000001
 40
0.0
 40
0.0
 40
0.0
 40
0.0
 40
1.0
 40
1.0
 40
1.0
 40
2.0
 40
2.0
 40
2.0
 40
3.0
 40
3.0
 40
3.0
 40
4.0
 40
4.0
 40
4.0
 40
4.0
 10
146.6515136352121
 20
-68.32227238960347
 30
0.0
 10
147.2240885048606
 20
-71.86555309618292
 30
0.0
 10
144.8173447988651
 20
-75.20247258319591
 30
0.0
 10
141.272341544543
 20
-75.77504745284443
 30
0.0
 10
137.7294053475121
 20
-76.34762232249295
 30
0.0
 10
134.3917968414021
 20
-73.93881155920627
 30
0.0
 10
133.8192219717535
 20
-70.39587536217535
 30
0.0
 10
133.246647102105
 20
-66.8529391651444
 30
0.0
 10
135.6554578653917
 20
-63.51567516858289
 30
0.0
 10
139.1983940624226
 20
-62.94344480848289
 30
0.0
 10
142.7433973167447
 20
-62.37086993883437
 30
0.0
 10
146.0796277846607
 20
-64.778991683024
 30
0.0
 10
146.6515136352121
 20
-68.32227238960347
 30
0.0
  0
SPLINE
  5
5B
330
1F
100
AcDbEntity
  8
Layer 1
370
     0
100
AcDbSpline
210
0.0
220
0.0
230
1.0
 70
    11
 71
     3
 72
    17
 73
    13
 74
     0
 42
0.0000000001
 43
0.0000000001
 40
0.0
 40
0.0
 40
0.0
 40
0.0
 40
1.0
 40
1.0
 40
1.0
 40
2.0
 40
2.0
 40
2.0
 40
3.0
 40
3.0
 40
3.0
 40
4.0
 40
4.0
 40
4.0
 40
4.0
 10
144.1841362486762
 20
-68.72104219202113
 30
0.0
 10
144.5362250072687
 20
-70.90178763418427
 30
0.0
 10
143.0548339486113
 20
-72.95523679816745
 30
0.0
 10
140.8733994873511
 20
-73.30749781153423
 30
0.0
 10
138.692654045188
 20
-73.65958657012678
 30
0.0
 10
136.6393771359791
 20
-72.17750649237229
 30
0.0
 10
136.2865993582895
 20
-69.99710555975767
 30
0.0
 10
135.9345105996969
 20
-67.81670462714305
 30
0.0
 10
137.4165906774514
 20
-65.76325546315988
 30
0.0
 10
139.5973361196146
 20
-65.4109944497931
 30
0.0
 10
141.7787705808747
 20
-65.05890569120055
 30
0.0
 10
143.8313584709866
 20
-66.54046900463224
 30
0.0
 10
144.1841362486762
 20
-68.72104219202113
 30
0.0
  0
SPLINE
  5
5C
330
1F
100
AcDbEntity
  8
Layer 1
370
     0
100
AcDbSpline
210
0.0
220
0.0
230
1.0
 70
    11
 71
     3
 72
    17
 73
    13
 74
     0
 42
0.0000000001
 43
0.0000000001
 40
0.0
 40
0.0
 40
0.0
 40
0.0
 40
1.0
 40
1.0
 40
1.0
 40
2.0
 40
2.0
 40
2.0
 40
3.0
 40
3.0
 40
3.0
 40
4.0
 40
4.0
 40
4.0
 40
4.0
 10
162.2812228326936
 20
-68.32227238960347
 30
0.0
 10
162.8537977023421
 20
-71.86555309618292
 30
0.0
 10
160.4470539963466
 20
-75.20247258319591
 30
0.0
 10
156.9020507420245
 20
-75.77504745284443
 30
0.0
 10
153.3591145449936
 20
-76.34762232249295
 30
0.0
 10
150.0215060388835
 20
-73.93881155920627
 30
0.0
 10
149.448931169235
 20
-70.39587536217535
 30
0.0
 10
148.8763562995865
 20
-66.8529391651444
 30
0.0
 10
151.2851670628732
 20
-63.51567516858289
 30
0.0
 10
154.8281032599041
 20
-62.94344480848289
 30
0.0
 10
158.3731065142262
 20
-62.37086993883437
 30
0.0
 10
161.7093369821421
 20
-64.778991683024
 30
0.0
 10
162.2812228326936
 20
-68.32227238960347
 30
0.0
  0
SPLINE
  5
5D
330
1F
100
AcDbEntity
  8
Layer 1
370
     0
100
AcDbSpline
210
0.0
220
0.0
230
1.0
 70
    11
 71
     3
 72
    17
 73
    13
 74
     0
 42
0.0000000001
 43
0.0000000001
 40
0.0
 40
0.0
 40
0.0
 40
0.0
 40
1.0
 40
1.0
 40
1.0
 40
2.0
 40
2.0
 40
2.0
 40
3.0
 40
3.0
 40
3.0
 40
4.0
 40
4.0
 40
4.0
 40
4.0
 10
159.8138454461576
 20
-68.72104219202113
 30
0.0
 10
160.1659342047502
 20
-70.90178763418427
 30
0.0
 10
158.6845431460928
 20
-72.95523679816745
 30
0.0
 10
156.5031086848326
 20
-73.30749781153423
 30
0.0
 10
154.3223632426694
 20
-73.65958657012678
 30
0.0
 10
152.2690863334605
 20
-72.17750649237229
 30
0.0
 10
151.9163085557709
 20
-69.99710555975767
 30
0.0
 10
151.5642197971784
 20
-67.81670462714305
 30
0.0
 10
153.0462998749329
 20
-65.76325546315988
 30
0.0
 10
155.227045317096
 20
-65.4109944497931
 30
0.0
 10
157.4084797783562
 20
-65.05890569120055
 30
0.0
 10
159.4610676684681
 20
-66.54046900463224
 30
0.0
 10
159.8138454461576
 20
-68.72104219202113
 30
0.0
  0
SPLINE
  5
5E
330
1F
100
AcDbEntity
  8
Layer 1
370
     0
100
AcDbSpline
210
0.0
220
0.0
230
1.0
 70
    11
 71
     3
 72
    17
 73
    13
 74
     0
 42
0.0000000001
 43
0.0000000001
 40
0.0
 40
0.0
 40
0.0
 40
0.0
 40
1.0
 40
1.0
 40
1.0
 40
2.0
 40
2.0
 40
2.0
 40
3.0
 40
3.0
 40
3.0
 40
4.0
 40
4.0
 40
4.0
 40
4.0
 10
-23.97769232256461
 20
-157.0277967272361
 30
0.0
 10
-27.52131753869259
 20
-157.6003715968846
 30
0.0
 10
-30.85823702570558
 20
-155.1936278908891
 30
0.0
 10
-31.4308118953541
 20
-151.648624636567
 30
0.0
 10
-32.00338676500262
 20
-148.1056884395361
 30
0.0
 10
-29.59457600171594
 20
-144.768079933426
 30
0.0
 10
-26.05163980468501
 20
-144.1955050637775
 30
0.0
 10
-22.50870360765407
 20
-143.622930194129
 30
0.0
 10
-19.17109510154403
 20
-146.0317409574157
 30
0.0
 10
-18.59920925099256
 20
-149.5746771544466
 30
0.0
 10
-18.02663438134404
 20
-153.1196804087687
 30
0.0
 10
-20.43475612553367
 20
-156.4559108766846
 30
0.0
 10
-23.97769232256461
 20
-157.0277967272361
 30
0.0
  0
SPLINE
  5
5F
330
1F
100
AcDbEntity
  8
Layer 1
370
     0
100
AcDbSpline
210
0.0
220
0.0
230
1.0
 70
    11
 71
     3
 72
    17
 73
    13
 74
     0
 42
0.0000000001
 43
0.0000000001
 40
0.0
 40
0.0
 40
0.0
 40
0.0
 40
1.0
 40
1.0
 40
1.0
 40
2.0
 40
2.0
 40
2.0
 40
3.0
 40
3.0
 40
3.0
 40
4.0
 40
4.0
 40
4.0
 40
4.0
 10
-24.37663437975654
 20
-154.5604193407002
 30
0.0
 10
-26.55737982191969
 20
-154.9125080992927
 30
0.0
 10
-28.61065673112859
 20
-153.4311170406353
 30
0.0
 10
-28.96308999926964
 20
-151.2496825793751
 30
0.0
 10
-29.31517875786218
 20
-149.0689371372119
 30
0.0
 10
-27.8330986801077
 20
-147.015660228003
 30
0.0
 10
-25.65269774749308
 20
-146.6628824503134
 30
0.0
 10
-23.47229681487845
 20
-146.3107936917209
 30
0.0
 10
-21.41867539612103
 20
-147.7928737694754
 30
0.0
 10
-21.06658663752849
 20
-149.9736192116385
 30
0.0
 10
-20.71449787893596
 20
-152.1550536728987
 30
0.0
 10
-22.19588893759339
 20
-154.2076415630106
 30
0.0
 10
-24.37663437975654
 20
-154.5604193407002
 30
0.0
  0
SPLINE
  5
60
330
1F
100
AcDbEntity
  8
Layer 1
370
     0
100
AcDbSpline
210
0.0
220
0.0
230
1.0
 70
    11
 71
     3
 72
    17
 73
    13
 74
     0
 42
0.0000000001
 43
0.0000000001
 40
0.0
 40
0.0
 40
0.0
 40
0.0
 40
1.0
 40
1.0
 40
1.0
 40
2.0
 40
2.0
 40
2.0
 40
3.0
 40
3.0
 40
3.0
 40
4.0
 40
4.0
 40
4.0
 40
4.0
 10
-23.97769232256461
 20
-172.6575059247176
 30
0.0
 10
-27.52131753869259
 20
-173.2300807943661
 30
0.0
 10
-30.85823702570558
 20
-170.8233370883706
 30
0.0
 10
-31.4308118953541
 20
-167.2783338340485
 30
0.0
 10
-32.00338676500262
 20
-163.7353976370175
 30
0.0
 10
-29.59457600171594
 20
-160.3977891309075
 30
0.0
 10
-26.05163980468501
 20
-159.825214261259
 30
0.0
 10
-22.50870360765407
 20
-159.2526393916105
 30
0.0
 10
-19.17109510154403
 20
-161.6614501548972
 30
0.0
 10
-18.59920925099256
 20
-165.2043863519281
 30
0.0
 10
-18.02663438134404
 20
-168.7493896062502
 30
0.0
 10
-20.43475612553367
 20
-172.0856200741661
 30
0.0
 10
-23.97769232256461
 20
-172.6575059247176
 30
0.0
  0
SPLINE
  5
61
330
1F
100
AcDbEntity
  8
Layer 1
370
     0
100
AcDbSpline
210
0.0
220
0.0
230
1.0
 70
    11
 71
     3
 72
    17
 73
    13
 74
     0
 42
0.0000000001
 43
0.0000000001
 40
0.0
 40
0.0
 40
0.0
 40
0.0
 40
1.0
 40
1.0
 40
1.0
 40
2.0
 40
2.0
 40
2.0
 40
3.0
 40
3.0
 40
3.0
 40
4.0
 40
4.0
 40
4.0
 40
4.0
 10
-24.37663437975654
 20
-170.1901285381817
 30
0.0
 10
-26.55737982191969
 20
-170.5422172967742
 30
0.0
 10
-28.61065673112859
 20
-169.0608262381167
 30
0.0
 10
-28.96308999926964
 20
-166.8793917768566
 30
0.0
 10
-29.31517875786218
 20
-164.6986463346934
 30
0.0
 10
-27.8330986801077
 20
-162.6453694254845
 30
0.0
 10
-25.65269774749308
 20
-162.2925916477949
 30
0.0
 10
-23.47229681487845
 20
-161.9405028892024
 30
0.0
 10
-21.41867539612103
 20
-163.4225829669569
 30
0.0
 10
-21.06658663752849
 20
-165.60332840912
 30
0.0
 10
-20.71449787893596
 20
-167.7847628703802
 30
0.0
 10
-22.19588893759339
 20
-169.8373507604921
 30
0.0
 10
-24.37663437975654
 20
-170.1901285381817
 30
0.0
  0
SPLINE
  5
62
330
1F
100
AcDbEntity
  8
Layer 1
370
     0
100
AcDbSpline
210
0.0
220
0.0
230
1.0
 70
    11
 71
     3
 72
    17
 73
    13
 74
     0
 42
0.0000000001
 43
0.0000000001
 40
0.0
 40
0.0
 40
0.0
 40
0.0
 40
1.0
 40
1.0
 40
1.0
 40
2.0
 40
2.0
 40
2.0
 40
3.0
 40
3.0
 40
3.0
 40
4.0
 40
4.0
 40
4.0
 40
4.0
 10
-23.97769232256461
 20
-188.287215122199
 30
0.0
 10
-27.52131753869259
 20
-188.8597899918475
 30
0.0
 10
-30.85823702570558
 20
-186.453046285852
 30
0.0
 10
-31.4308118953541
 20
-182.9080430315299
 30
0.0
 10
-32.00338676500262
 20
-179.365106834499
 30
0.0
 10
-29.59457600171594
 20
-176.027498328389
 30
0.0
 10
-26.05163980468501
 20
-175.4549234587404
 30
0.0
 10
-22.50870360765407
 20
-174.8823485890919
 30
0.0
 10
-19.17109510154403
 20
-177.2911593523786
 30
0.0
 10
-18.59920925099256
 20
-180.8340955494095
 30
0.0
 10
-18.02663438134404
 20
-184.3790988037316
 30
0.0
 10
-20.43475612553367
 20
-187.7153292716476
 30
0.0
 10
-23.97769232256461
 20
-188.287215122199
 30
0.0
  0
SPLINE
  5
63
330
1F
100
AcDbEntity
  8
Layer 1
370
     0
100
AcDbSpline
210
0.0
220
0.0
230
1.0
 70
    11
 71
     3
 72
    17
 73
    13
 74
     0
 42
0.0000000001
 43
0.0000000001
 40
0.0
 40
0.0
 40
0.0
 40
0.0
 40
1.0
 40
1.0
 40
1.0
 40
2.0
 40
2.0
 40
2.0
 40
3.0
 40
3.0
 40
3.0
 40
4.0
 40
4.0
 40
4.0
 40
4.0
 10
-24.37663437975654
 20
-185.8198377356631
 30
0.0
 10
-26.55737982191969
 20
-186.1719264942556
 30
0.0
 10
-28.61065673112859
 20
-184.6905354355982
 30
0.0
 10
-28.96308999926964
 20
-182.509100974338
 30
0.0
 10
-29.31517875786218
 20
-180.3283555321749
 30
0.0
 10
-27.8330986801077
 20
-178.275078622966
 30
0.0
 10
-25.65269774749308
 20
-177.9223008452764
 30
0.0
 10
-23.47229681487845
 20
-177.5702120866839
 30
0.0
 10
-21.41867539612103
 20
-179.0522921644383
 30
0.0
 10
-21.06658663752849
 20
-181.2330376066015
 30
0.0
 10
-20.71449787893596
 20
-183.4144720678617
 30
0.0
 10
-22.19588893759339
 20
-185.4670599579735
 30
0.0
 10
-24.37663437975654
 20
-185.8198377356631
 30
0.0
  0
SPLINE
  5
64
330
1F
100
AcDbEntity
  8
Layer 1
370
     0
100
AcDbSpline
210
0.0
220
0.0
230
1.0
 70
    11
 71
     3
 72
    17
 73
    13
 74
     0
 42
0.0000000001
 43
0.0000000001
 40
0.0
 40
0.0
 40
0.0
 40
0.0
 40
1.0
 40
1.0
 40
1.0
 40
2.0
 40
2.0
 40
2.0
 40
3.0
 40
3.0
 40
3.0
 40
4.0
 40
4.0
 40
4.0
 40
4.0
 10
-23.97769232256461
 20
-203.9169243196805
 30
0.0
 10
-27.52131753869259
 20
-204.489499189329
 30
0.0
 10
-30.85823702570558
 20
-202.0827554833335
 30
0.0
 10
-31.4308118953541
 20
-198.5377522290114
 30
0.0
 10
-32.00338676500262
 20
-194.9948160319805
 30
0.0
 10
-29.59457600171594
 20
-191.6572075258704
 30
0.0
 10
-26.05163980468501
 20
-191.0846326562219
 30
0.0
 10
-22.50870360765407
 20
-190.5120577865734
 30
0.0
 10
-19.17109510154403
 20
-192.9208685498601
 30
0.0
 10
-18.59920925099256
 20
-196.463804746891
 30
0.0
 10
-18.02663438134404
 20
-200.0088080012131
 30
0.0
 10
-20.43475612553367
 20
-203.345038469129
 30
0.0
 10
-23.97769232256461
 20
-203.9169243196805
 30
0.0
  0
SPLINE
  5
65
330
1F
100
AcDbEntity
  8
Layer 1
370
     0
100
AcDbSpline
210
0.0
220
0.0
230
1.0
 70
    11
 71
     3
 72
    17
 73
    13
 74
     0
 42
0.0000000001
 43
0.0000000001
 40
0.0
 40
0.0
 40
0.0
 40
0.0
 40
1.0
 40
1.0
 40
1.0
 40
2.0
 40
2.0
 40
2.0
 40
3.0
 40
3.0
 40
3.0
 40
4.0
 40
4.0
 40
4.0
 40
4.0
 10
-24.37663437975654
 20
-201.4495469331446
 30
0.0
 10
-26.55737982191969
 20
-201.8016356917371
 30
0.0
 10
-28.61065673112859
 20
-200.3202446330797
 30
0.0
 10
-28.96308999926964
 20
-198.1388101718195
 30
0.0
 10
-29.31517875786218
 20
-195.9580647296563
 30
0.0
 10
-27.8330986801077
 20
-193.9047878204474
 30
0.0
 10
-25.65269774749308
 20
-193.5520100427578
 30
0.0
 10
-23.47229681487845
 20
-193.1999212841653
 30
0.0
 10
-21.41867539612103
 20
-194.6820013619198
 30
0.0
 10
-21.06658663752849
 20
-196.8627468040829
 30
0.0
 10
-20.71449787893596
 20
-199.0441812653431
 30
0.0
 10
-22.19588893759339
 20
-201.096769155455
 30
0.0
 10
-24.37663437975654
 20
-201.4495469331446
 30
0.0
  0
SPLINE
  5
66
330
1F
100
AcDbEntity
  8
Layer 1
370
     0
100
AcDbSpline
210
0.0
220
0.0
230
1.0
 70
    11
 71
     3
 72
    17
 73
    13
 74
     0
 42
0.0000000001
 43
0.0000000001
 40
0.0
 40
0.0
 40
0.0
 40
0.0
 40
1.0
 40
1.0
 40
1.0
 40
2.0
 40
2.0
 40
2.0
 40
3.0
 40
3.0
 40
3.0
 40
4.0
 40
4.0
 40
4.0
 40
4.0
 10
-23.97769232256461
 20
-219.546633517162
 30
0.0
 10
-27.52131753869259
 20
-220.1192083868105
 30
0.0
 10
-30.85823702570558
 20
-217.7124646808149
 30
0.0
 10
-31.4308118953541
 20
-214.1674614264929
 30
0.0
 10
-32.00338676500262
 20
-210.6245252294619
 30
0.0
 10
-29.59457600171594
 20
-207.2869167233519
 30
0.0
 10
-26.05163980468501
 20
-206.7143418537034
 30
0.0
 10
-22.50870360765407
 20
-206.1417669840548
 30
0.0
 10
-19.17109510154403
 20
-208.5505777473415
 30
0.0
 10
-18.59920925099256
 20
-212.0935139443725
 30
0.0
 10
-18.02663438134404
 20
-215.6385171986946
 30
0.0
 10
-20.43475612553367
 20
-218.9747476666105
 30
0.0
 10
-23.97769232256461
 20
-219.546633517162
 30
0.0
  0
SPLINE
  5
67
330
1F
100
AcDbEntity
  8
Layer 1
370
     0
100
AcDbSpline
210
0.0
220
0.0
230
1.0
 70
    11
 71
     3
 72
    17
 73
    13
 74
     0
 42
0.0000000001
 43
0.0000000001
 40
0.0
 40
0.0
 40
0.0
 40
0.0
 40
1.0
 40
1.0
 40
1.0
 40
2.0
 40
2.0
 40
2.0
 40
3.0
 40
3.0
 40
3.0
 40
4.0
 40
4.0
 40
4.0
 40
4.0
 10
-24.37663437975654
 20
-217.079256130626
 30
0.0
 10
-26.55737982191969
 20
-217.4313448892186
 30
0.0
 10
-28.61065673112859
 20
-215.9499538305611
 30
0.0
 10
-28.96308999926964
 20
-213.7685193693009
 30
0.0
 10
-29.31517875786218
 20
-211.5877739271378
 30
0.0
 10
-27.8330986801077
 20
-209.5344970179289
 30
0.0
 10
-25.65269774749308
 20
-209.1817192402393
 30
0.0
 10
-23.47229681487845
 20
-208.8296304816468
 30
0.0
 10
-21.41867539612103
 20
-210.3117105594013
 30
0.0
 10
-21.06658663752849
 20
-212.4924560015644
 30
0.0
 10
-20.71449787893596
 20
-214.6738904628246
 30
0.0
 10
-22.19588893759339
 20
-216.7264783529365
 30
0.0
 10
-24.37663437975654
 20
-217.079256130626
 30
0.0
  0
SPLINE
  5
68
330
1F
100
AcDbEntity
  8
Layer 1
370
     0
100
AcDbSpline
210
0.0
220
0.0
230
1.0
 70
    11
 71
     3
 72
    17
 73
    13
 74
     0
 42
0.0000000001
 43
0.0000000001
 40
0.0
 40
0.0
 40
0.0
 40
0.0
 40
1.0
 40
1.0
 40
1.0
 40
2.0
 40
2.0
 40
2.0
 40
3.0
 40
3.0
 40
3.0
 40
4.0
 40
4.0
 40
4.0
 40
4.0
 10
210.2913844960383
 20
-101.775872099122
 30
0.0
 10
206.7477592799103
 20
-102.3484469687705
 30
0.0
 10
203.4108397928973
 20
-99.941703262775
 30
0.0
 10
202.8382649232488
 20
-96.39670000845291
 30
0.0
 10
202.2656900536003
 20
-92.85376381142198
 30
0.0
 10
204.6745008168869
 20
-89.51615530531194
 30
0.0
 10
208.2174370139179
 20
-88.94358043566342
 30
0.0
 10
211.7603732109488
 20
-88.37100556601489
 30
0.0
 10
215.0979817170588
 20
-90.77981632930158
 30
0.0
 10
215.6698675676103
 20
-94.32275252633251
 30
0.0
 10
216.2424424372588
 20
-97.86775578065459
 30
0.0
 10
213.8343206930692
 20
-101.2039862485705
 30
0.0
 10
210.2913844960383
 20
-101.775872099122
 30
0.0
  0
SPLINE
  5
69
330
1F
100
AcDbEntity
  8
Layer 1
370
     0
100
AcDbSpline
210
0.0
220
0.0
230
1.0
 70
    11
 71
     3
 72
    17
 73
    13
 74
     0
 42
0.0000000001
 43
0.0000000001
 40
0.0
 40
0.0
 40
0.0
 40
0.0
 40
1.0
 40
1.0
 40
1.0
 40
2.0
 40
2.0
 40
2.0
 40
3.0
 40
3.0
 40
3.0
 40
4.0
 40
4.0
 40
4.0
 40
4.0
 10
209.8924424388463
 20
-99.30849471258608
 30
0.0
 10
207.7116969966832
 20
-99.66058347117861
 30
0.0
 10
205.6584200874743
 20
-98.17919241252118
 30
0.0
 10
205.3063313288818
 20
-95.99775795126098
 30
0.0
 10
204.9542425702892
 20
-93.81701250909784
 30
0.0
 10
206.4363226480437
 20
-91.76373559988893
 30
0.0
 10
208.6163790711098
 20
-91.41095782219935
 30
0.0
 10
210.797124513273
 20
-91.05886906360682
 30
0.0
 10
212.8504014224819
 20
-92.5409491413613
 30
0.0
 10
213.2024901810744
 20
-94.72169458352444
 30
0.0
 10
213.5545789396669
 20
-96.90312904478463
 30
0.0
 10
212.0731878810095
 20
-98.95571693489649
 30
0.0
 10
209.8924424388463
 20
-99.30849471258608
 30
0.0
  0
SPLINE
  5
6A
330
1F
100
AcDbEntity
  8
Layer 1
370
     0
100
AcDbSpline
210
0.0
220
0.0
230
1.0
 70
    11
 71
     3
 72
    17
 73
    13
 74
     0
 42
0.0000000001
 43
0.0000000001
 40
0.0
 40
0.0
 40
0.0
 40
0.0
 40
1.0
 40
1.0
 40
1.0
 40
2.0
 40
2.0
 40
2.0
 40
3.0
 40
3.0
 40
3.0
 40
4.0
 40
4.0
 40
4.0
 40
4.0
 10
210.2913844960383
 20
-117.4055812966035
 30
0.0
 10
206.7477592799103
 20
-117.978156166252
 30
0.0
 10
203.4108397928973
 20
-115.5714124602565
 30
0.0
 10
202.8382649232488
 20
-112.0264092059344
 30
0.0
 10
202.2656900536003
 20
-108.4834730089034
 30
0.0
 10
204.6745008168869
 20
-105.1458645027934
 30
0.0
 10
208.2174370139179
 20
-104.5732896331449
 30
0.0
 10
211.7603732109488
 20
-104.0007147634963
 30
0.0
 10
215.0979817170588
 20
-106.409525526783
 30
0.0
 10
215.6698675676103
 20
-109.952461723814
 30
0.0
 10
216.2424424372588
 20
-113.4974649781361
 30
0.0
 10
213.8343206930692
 20
-116.833695446052
 30
0.0
 10
210.2913844960383
 20
-117.4055812966035
 30
0.0
  0
SPLINE
  5
6B
330
1F
100
AcDbEntity
  8
Layer 1
370
     0
100
AcDbSpline
210
0.0
220
0.0
230
1.0
 70
    11
 71
     3
 72
    17
 73
    13
 74
     0
 42
0.0000000001
 43
0.0000000001
 40
0.0
 40
0.0
 40
0.0
 40
0.0
 40
1.0
 40
1.0
 40
1.0
 40
2.0
 40
2.0
 40
2.0
 40
3.0
 40
3.0
 40
3.0
 40
4.0
 40
4.0
 40
4.0
 40
4.0
 10
209.8924424388463
 20
-114.9382039100675
 30
0.0
 10
207.7116969966832
 20
-115.2902926686601
 30
0.0
 10
205.6584200874743
 20
-113.8089016100026
 30
0.0
 10
205.3063313288818
 20
-111.6274671487424
 30
0.0
 10
204.9542425702892
 20
-109.4467217065793
 30
0.0
 10
206.4363226480437
 20
-107.3934447973704
 30
0.0
 10
208.6163790711098
 20
-107.0406670196808
 30
0.0
 10
210.797124513273
 20
-106.6885782610883
 30
0.0
 10
212.8504014224819
 20
-108.1706583388428
 30
0.0
 10
213.2024901810744
 20
-110.3514037810059
 30
0.0
 10
213.5545789396669
 20
-112.5328382422661
 30
0.0
 10
212.0731878810095
 20
-114.585426132378
 30
0.0
 10
209.8924424388463
 20
-114.9382039100675
 30
0.0
  0
SPLINE
  5
6C
330
1F
100
AcDbEntity
  8
Layer 1
370
     0
100
AcDbSpline
210
0.0
220
0.0
230
1.0
 70
    11
 71
     3
 72
    17
 73
    13
 74
     0
 42
0.0000000001
 43
0.0000000001
 40
0.0
 40
0.0
 40
0.0
 40
0.0
 40
1.0
 40
1.0
 40
1.0
 40
2.0
 40
2.0
 40
2.0
 40
3.0
 40
3.0
 40
3.0
 40
4.0
 40
4.0
 40
4.0
 40
4.0
 10
210.2913844960383
 20
-133.0352904940849
 30
0.0
 10
206.7477592799103
 20
-133.6078653637335
 30
0.0
 10
203.4108397928973
 20
-131.2011216577379
 30
0.0
 10
202.8382649232488
 20
-127.6561184034158
 30
0.0
 10
202.2656900536003
 20
-124.1131822063849
 30
0.0
 10
204.6745008168869
 20
-120.7755737002749
 30
0.0
 10
208.2174370139179
 20
-120.2029988306263
 30
0.0
 10
211.7603732109488
 20
-119.6304239609778
 30
0.0
 10
215.0979817170588
 20
-122.0392347242645
 30
0.0
 10
215.6698675676103
 20
-125.5821709212954
 30
0.0
 10
216.2424424372588
 20
-129.1271741756175
 30
0.0
 10
213.8343206930692
 20
-132.4634046435335
 30
0.0
 10
210.2913844960383
 20
-133.0352904940849
 30
0.0
  0
SPLINE
  5
6D
330
1F
100
AcDbEntity
  8
Layer 1
370
     0
100
AcDbSpline
210
0.0
220
0.0
230
1.0
 70
    11
 71
     3
 72
    17
 73
    13
 74
     0
 42
0.0000000001
 43
0.0000000001
 40
0.0
 40
0.0
 40
0.0
 40
0.0
 40
1.0
 40
1.0
 40
1.0
 40
2.0
 40
2.0
 40
2.0
 40
3.0
 40
3.0
 40
3.0
 40
4.0
 40
4.0
 40
4.0
 40
4.0
 10
209.8924424388463
 20
-130.567913107549
 30
0.0
 10
207.7116969966832
 20
-130.9200018661415
 30
0.0
 10
205.6584200874743
 20
-129.4386108074841
 30
0.0
 10
205.3063313288818
 20
-127.2571763462239
 30
0.0
 10
204.9542425702892
 20
-125.0764309040608
 30
0.0
 10
206.4363226480437
 20
-123.0231539948519
 30
0.0
 10
208.6163790711098
 20
-122.6703762171623
 30
0.0
 10
210.797124513273
 20
-122.3182874585697
 30
0.0
 10
212.8504014224819
 20
-123.8003675363242
 30
0.0
 10
213.2024901810744
 20
-125.9811129784874
 30
0.0
 10
213.5545789396669
 20
-128.1625474397476
 30
0.0
 10
212.0731878810095
 20
-130.2151353298594
 30
0.0
 10
209.8924424388463
 20
-130.567913107549
 30
0.0
  0
SPLINE
  5
6E
330
1F
100
AcDbEntity
  8
Layer 1
370
     0
100
AcDbSpline
210
0.0
220
0.0
230
1.0
 70
    11
 71
     3
 72
    17
 73
    13
 74
     0
 42
0.0000000001
 43
0.0000000001
 40
0.0
 40
0.0
 40
0.0
 40
0.0
 40
1.0
 40
1.0
 40
1.0
 40
2.0
 40
2.0
 40
2.0
 40
3.0
 40
3.0
 40
3.0
 40
4.0
 40
4.0
 40
4.0
 40
4.0
 10
210.2913844960383
 20
-148.845867204542
 30
0.0
 10
206.7477592799103
 20
-149.4186143289648
 30
0.0
 10
203.4108397928973
 20
-147.011698368195
 30
0.0
 10
202.8382649232488
 20
-143.4666951138729
 30
0.0
 10
202.2656900536003
 20
-139.923758916842
 30
0.0
 10
204.6745008168869
 20
-136.5861504107319
 30
0.0
 10
208.2174370139179
 20
-136.0135755410834
 30
0.0
 10
211.7603732109488
 20
-135.4410006714349
 30
0.0
 10
215.0979817170588
 20
-137.8498114347216
 30
0.0
 10
215.6698675676103
 20
-141.3927476317525
 30
0.0
 10
216.2424424372588
 20
-144.9377508860746
 30
0.0
 10
213.8343206930692
 20
-148.2739813539905
 30
0.0
 10
210.2913844960383
 20
-148.845867204542
 30
0.0
  0
SPLINE
  5
6F
330
1F
100
AcDbEntity
  8
Layer 1
370
     0
100
AcDbSpline
210
0.0
220
0.0
230
1.0
 70
    11
 71
     3
 72
    17
 73
    13
 74
     0
 42
0.0000000001
 43
0.0000000001
 40
0.0
 40
0.0
 40
0.0
 40
0.0
 40
1.0
 40
1.0
 40
1.0
 40
2.0
 40
2.0
 40
2.0
 40
3.0
 40
3.0
 40
3.0
 40
4.0
 40
4.0
 40
4.0
 40
4.0
 10
209.8924424388463
 20
-146.3784898180061
 30
0.0
 10
207.7116969966832
 20
-146.7305785765986
 30
0.0
 10
205.6584200874743
 20
-145.2491875179412
 30
0.0
 10
205.3063313288818
 20
-143.067753056681
 30
0.0
 10
204.9542425702892
 20
-140.8870076145178
 30
0.0
 10
206.4363226480437
 20
-138.8337307053089
 30
0.0
 10
208.6163790711098
 20
-138.4809529276193
 30
0.0
 10
210.797124513273
 20
-138.1288641690268
 30
0.0
 10
212.8504014224819
 20
-139.6109442467813
 30
0.0
 10
213.2024901810744
 20
-141.7916896889444
 30
0.0
 10
213.5545789396669
 20
-143.9731241502047
 30
0.0
 10
212.0731878810095
 20
-146.0257120403165
 30
0.0
 10
209.8924424388463
 20
-146.3784898180061
 30
0.0
  0
SPLINE
  5
70
330
1F
100
AcDbEntity
  8
Layer 1
370
     0
100
AcDbSpline
210
0.0
220
0.0
230
1.0
 70
    11
 71
     3
 72
    17
 73
    13
 74
     0
 42
0.0000000001
 43
0.0000000001
 40
0.0
 40
0.0
 40
0.0
 40
0.0
 40
1.0
 40
1.0
 40
1.0
 40
2.0
 40
2.0
 40
2.0
 40
3.0
 40
3.0
 40
3.0
 40
4.0
 40
4.0
 40
4.0
 40
4.0
 10
194.6616752985568
 20
-117.3154920496642
 30
0.0
 10
191.1180500824288
 20
-117.8880669193127
 30
0.0
 10
187.7811305954158
 20
-115.4813232133172
 30
0.0
 10
187.2085557257673
 20
-111.9363199589951
 30
0.0
 10
186.6359808561188
 20
-108.3933837619642
 30
0.0
 10
189.0447916194055
 20
-105.0557752558541
 30
0.0
 10
192.5877278164364
 20
-104.4832003862056
 30
0.0
 10
196.1306640134673
 20
-103.9106255165571
 30
0.0
 10
199.4682725195774
 20
-106.3194362798438
 30
0.0
 10
200.0401583701289
 20
-109.8623724768747
 30
0.0
 10
200.6127332397774
 20
-113.4073757311968
 30
0.0
 10
198.2046114955878
 20
-116.7436061991127
 30
0.0
 10
194.6616752985568
 20
-117.3154920496642
 30
0.0
  0
SPLINE
  5
71
330
1F
100
AcDbEntity
  8
Layer 1
370
     0
100
AcDbSpline
210
0.0
220
0.0
230
1.0
 70
    11
 71
     3
 72
    17
 73
    13
 74
     0
 42
0.0000000001
 43
0.0000000001
 40
0.0
 40
0.0
 40
0.0
 40
0.0
 40
1.0
 40
1.0
 40
1.0
 40
2.0
 40
2.0
 40
2.0
 40
3.0
 40
3.0
 40
3.0
 40
4.0
 40
4.0
 40
4.0
 40
4.0
 10
194.2627332413649
 20
-114.8481146631283
 30
0.0
 10
192.0819877992017
 20
-115.2002034217208
 30
0.0
 10
190.0287108899928
 20
-113.7188123630634
 30
0.0
 10
189.6766221314003
 20
-111.5373779018032
 30
0.0
 10
189.3245333728078
 20
-109.35663245964
 30
0.0
 10
190.8066134505623
 20
-107.3033555504311
 30
0.0
 10
192.9866698736283
 20
-106.9505777727415
 30
0.0
 10
195.1674153157915
 20
-106.598489014149
 30
0.0
 10
197.2206922250004
 20
-108.0805690919035
 30
0.0
 10
197.5727809835929
 20
-110.2613145340666
 30
0.0
 10
197.9248697421855
 20
-112.4427489953268
 30
0.0
 10
196.443478683528
 20
-114.4953368854387
 30
0.0
 10
194.2627332413649
 20
-114.8481146631283
 30
0.0
  0
SPLINE
  5
72
330
1F
100
AcDbEntity
  8
Layer 1
370
     0
100
AcDbSpline
210
0.0
220
0.0
230
1.0
 70
    11
 71
     3
 72
    17
 73
    13
 74
     0
 42
0.0000000001
 43
0.0000000001
 40
0.0
 40
0.0
 40
0.0
 40
0.0
 40
1.0
 40
1.0
 40
1.0
 40
2.0
 40
2.0
 40
2.0
 40
3.0
 40
3.0
 40
3.0
 40
4.0
 40
4.0
 40
4.0
 40
4.0
 10
194.6616752985568
 20
-132.9452012471457
 30
0.0
 10
191.1180500824288
 20
-133.5177761167942
 30
0.0
 10
187.7811305954158
 20
-131.1110324107986
 30
0.0
 10
187.2085557257673
 20
-127.5660291564766
 30
0.0
 10
186.6359808561188
 20
-124.0230929594456
 30
0.0
 10
189.0447916194055
 20
-120.6854844533356
 30
0.0
 10
192.5877278164364
 20
-120.1129095836871
 30
0.0
 10
196.1306640134673
 20
-119.5403347140385
 30
0.0
 10
199.4682725195774
 20
-121.9491454773252
 30
0.0
 10
200.0401583701289
 20
-125.4920816743562
 30
0.0
 10
200.6127332397774
 20
-129.0370849286782
 30
0.0
 10
198.2046114955878
 20
-132.3733153965942
 30
0.0
 10
194.6616752985568
 20
-132.9452012471457
 30
0.0
  0
SPLINE
  5
73
330
1F
100
AcDbEntity
  8
Layer 1
370
     0
100
AcDbSpline
210
0.0
220
0.0
230
1.0
 70
    11
 71
     3
 72
    17
 73
    13
 74
     0
 42
0.0000000001
 43
0.0000000001
 40
0.0
 40
0.0
 40
0.0
 40
0.0
 40
1.0
 40
1.0
 40
1.0
 40
2.0
 40
2.0
 40
2.0
 40
3.0
 40
3.0
 40
3.0
 40
4.0
 40
4.0
 40
4.0
 40
4.0
 10
194.2627332413649
 20
-130.4778238606097
 30
0.0
 10
192.0819877992017
 20
-130.8299126192022
 30
0.0
 10
190.0287108899928
 20
-129.3485215605448
 30
0.0
 10
189.6766221314003
 20
-127.1670870992846
 30
0.0
 10
189.3245333728078
 20
-124.9863416571215
 30
0.0
 10
190.8066134505623
 20
-122.9330647479126
 30
0.0
 10
192.9866698736283
 20
-122.580286970223
 30
0.0
 10
195.1674153157915
 20
-122.2281982116305
 30
0.0
 10
197.2206922250004
 20
-123.7102782893849
 30
0.0
 10
197.5727809835929
 20
-125.8910237315481
 30
0.0
 10
197.9248697421855
 20
-128.0724581928083
 30
0.0
 10
196.443478683528
 20
-130.1250460829201
 30
0.0
 10
194.2627332413649
 20
-130.4778238606097
 30
0.0
  0
SPLINE
  5
74
330
1F
100
AcDbEntity
  8
Layer 1
370
     0
100
AcDbSpline
210
0.0
220
0.0
230
1.0
 70
    11
 71
     3
 72
    17
 73
    13
 74
     0
 42
0.0000000001
 43
0.0000000001
 40
0.0
 40
0.0
 40
0.0
 40
0.0
 40
1.0
 40
1.0
 40
1.0
 40
2.0
 40
2.0
 40
2.0
 40
3.0
 40
3.0
 40
3.0
 40
4.0
 40
4.0
 40
4.0
 40
4.0
 10
194.6616752985568
 20
-148.7557779576027
 30
0.0
 10
191.1180500824288
 20
-149.3283528272513
 30
0.0
 10
187.7811305954158
 20
-146.9216091212557
 30
0.0
 10
187.2085557257673
 20
-143.3766058669336
 30
0.0
 10
186.6359808561188
 20
-139.8336696699027
 30
0.0
 10
189.0447916194055
 20
-136.4960611637927
 30
0.0
 10
192.5877278164364
 20
-135.9234862941441
 30
0.0
 10
196.1306640134673
 20
-135.3509114244956
 30
0.0
 10
199.4682725195774
 20
-137.7597221877823
 30
0.0
 10
200.0401583701289
 20
-141.3026583848132
 30
0.0
 10
200.6127332397774
 20
-144.8476616391353
 30
0.0
 10
198.2046114955878
 20
-148.1838921070513
 30
0.0
 10
194.6616752985568
 20
-148.7557779576027
 30
0.0
  0
SPLINE
  5
75
330
1F
100
AcDbEntity
  8
Layer 1
370
     0
100
AcDbSpline
210
0.0
220
0.0
230
1.0
 70
    11
 71
     3
 72
    17
 73
    13
 74
     0
 42
0.0000000001
 43
0.0000000001
 40
0.0
 40
0.0
 40
0.0
 40
0.0
 40
1.0
 40
1.0
 40
1.0
 40
2.0
 40
2.0
 40
2.0
 40
3.0
 40
3.0
 40
3.0
 40
4.0
 40
4.0
 40
4.0
 40
4.0
 10
194.2627332413649
 20
-146.2884005710668
 30
0.0
 10
192.0819877992017
 20
-146.6404893296593
 30
0.0
 10
190.0287108899928
 20
-145.1590982710019
 30
0.0
 10
189.6766221314003
 20
-142.9776638097417
 30
0.0
 10
189.3245333728078
 20
-140.7969183675785
 30
0.0
 10
190.8066134505623
 20
-138.7436414583696
 30
0.0
 10
192.9866698736283
 20
-138.3908636806801
 30
0.0
 10
195.1674153157915
 20
-138.0387749220875
 30
0.0
 10
197.2206922250004
 20
-139.520854999842
 30
0.0
 10
197.5727809835929
 20
-141.7016004420052
 30
0.0
 10
197.9248697421855
 20
-143.8830349032654
 30
0.0
 10
196.443478683528
 20
-145.9356227933772
 30
0.0
 10
194.2627332413649
 20
-146.2884005710668
 30
0.0
  0
SPLINE
  5
76
330
1F
100
AcDbEntity
  8
Layer 1
370
     0
100
AcDbSpline
210
0.0
220
0.0
230
1.0
 70
    11
 71
     3
 72
    17
 73
    13
 74
     0
 42
0.0000000001
 43
0.0000000001
 40
0.0
 40
0.0
 40
0.0
 40
0.0
 40
1.0
 40
1.0
 40
1.0
 40
2.0
 40
2.0
 40
2.0
 40
3.0
 40
3.0
 40
3.0
 40
4.0
 40
4.0
 40
4.0
 40
4.0
 10
210.2913844960383
 20
-164.6562716602248
 30
0.0
 10
206.7477592799103
 20
-165.2291910394219
 30
0.0
 10
203.4108397928973
 20
-162.8221028238778
 30
0.0
 10
202.8382649232488
 20
-159.2770995695557
 30
0.0
 10
202.2656900536003
 20
-155.7341633725248
 30
0.0
 10
204.6745008168869
 20
-152.3965548664148
 30
0.0
 10
208.2174370139179
 20
-151.8239799967662
 30
0.0
 10
211.7603732109488
 20
-151.2514051271177
 30
0.0
 10
215.0979817170588
 20
-153.6602158904044
 30
0.0
 10
215.6698675676103
 20
-157.2031520874353
 30
0.0
 10
216.2424424372588
 20
-160.7481553417574
 30
0.0
 10
213.8343206930692
 20
-164.0843858096734
 30
0.0
 10
210.2913844960383
 20
-164.6562716602248
 30
0.0
  0
SPLINE
  5
77
330
1F
100
AcDbEntity
  8
Layer 1
370
     0
100
AcDbSpline
210
0.0
220
0.0
230
1.0
 70
    11
 71
     3
 72
    17
 73
    13
 74
     0
 42
0.0000000001
 43
0.0000000001
 40
0.0
 40
0.0
 40
0.0
 40
0.0
 40
1.0
 40
1.0
 40
1.0
 40
2.0
 40
2.0
 40
2.0
 40
3.0
 40
3.0
 40
3.0
 40
4.0
 40
4.0
 40
4.0
 40
4.0
 10
209.8924424388463
 20
-162.1888942736889
 30
0.0
 10
207.7116969966832
 20
-162.5409830322814
 30
0.0
 10
205.6584200874743
 20
-161.059591973624
 30
0.0
 10
205.3063313288818
 20
-158.8781575123638
 30
0.0
 10
204.9542425702892
 20
-156.6974120702006
 30
0.0
 10
206.4363226480437
 20
-154.6441351609917
 30
0.0
 10
208.6163790711098
 20
-154.2913573833022
 30
0.0
 10
210.797124513273
 20
-153.9392686247096
 30
0.0
 10
212.8504014224819
 20
-155.4213487024641
 30
0.0
 10
213.2024901810744
 20
-157.6020941446273
 30
0.0
 10
213.5545789396669
 20
-159.7835286058875
 30
0.0
 10
212.0731878810095
 20
-161.8361164959993
 30
0.0
 10
209.8924424388463
 20
-162.1888942736889
 30
0.0
  0
SPLINE
  5
78
330
1F
100
AcDbEntity
  8
Layer 1
370
     0
100
AcDbSpline
210
0.0
220
0.0
230
1.0
 70
    11
 71
     3
 72
    17
 73
    13
 74
     0
 42
0.0000000001
 43
0.0000000001
 40
0.0
 40
0.0
 40
0.0
 40
0.0
 40
1.0
 40
1.0
 40
1.0
 40
2.0
 40
2.0
 40
2.0
 40
3.0
 40
3.0
 40
3.0
 40
4.0
 40
4.0
 40
4.0
 40
4.0
 10
210.2913844960383
 20
-180.4668483706819
 30
0.0
 10
206.7477592799103
 20
-181.039767749879
 30
0.0
 10
203.4108397928973
 20
-178.6326795343349
 30
0.0
 10
202.8382649232488
 20
-175.0876762800128
 30
0.0
 10
202.2656900536003
 20
-171.5447400829819
 30
0.0
 10
204.6745008168869
 20
-168.2071315768718
 30
0.0
 10
208.2174370139179
 20
-167.6345567072233
 30
0.0
 10
211.7603732109488
 20
-167.0619818375748
 30
0.0
 10
215.0979817170588
 20
-169.4707926008615
 30
0.0
 10
215.6698675676103
 20
-173.0137287978924
 30
0.0
 10
216.2424424372588
 20
-176.5587320522145
 30
0.0
 10
213.8343206930692
 20
-179.8949625201304
 30
0.0
 10
210.2913844960383
 20
-180.4668483706819
 30
0.0
  0
SPLINE
  5
79
330
1F
100
AcDbEntity
  8
Layer 1
370
     0
100
AcDbSpline
210
0.0
220
0.0
230
1.0
 70
    11
 71
     3
 72
    17
 73
    13
 74
     0
 42
0.0000000001
 43
0.0000000001
 40
0.0
 40
0.0
 40
0.0
 40
0.0
 40
1.0
 40
1.0
 40
1.0
 40
2.0
 40
2.0
 40
2.0
 40
3.0
 40
3.0
 40
3.0
 40
4.0
 40
4.0
 40
4.0
 40
4.0
 10
209.8924424388463
 20
-177.999470984146
 30
0.0
 10
207.7116969966832
 20
-178.3515597427385
 30
0.0
 10
205.6584200874743
 20
-176.8701686840811
 30
0.0
 10
205.3063313288818
 20
-174.6887342228209
 30
0.0
 10
204.9542425702892
 20
-172.5079887806577
 30
0.0
 10
206.4363226480437
 20
-170.4547118714488
 30
0.0
 10
208.6163790711098
 20
-170.1019340937592
 30
0.0
 10
210.797124513273
 20
-169.7498453351667
 30
0.0
 10
212.8504014224819
 20
-171.2319254129212
 30
0.0
 10
213.2024901810744
 20
-173.4126708550843
 30
0.0
 10
213.5545789396669
 20
-175.5941053163445
 30
0.0
 10
212.0731878810095
 20
-177.6466932064564
 30
0.0
 10
209.8924424388463
 20
-177.999470984146
 30
0.0
  0
SPLINE
  5
7A
330
1F
100
AcDbEntity
  8
Layer 1
370
     0
100
AcDbSpline
210
0.0
220
0.0
230
1.0
 70
    11
 71
     3
 72
    17
 73
    13
 74
     0
 42
0.0000000001
 43
0.0000000001
 40
0.0
 40
0.0
 40
0.0
 40
0.0
 40
1.0
 40
1.0
 40
1.0
 40
2.0
 40
2.0
 40
2.0
 40
3.0
 40
3.0
 40
3.0
 40
4.0
 40
4.0
 40
4.0
 40
4.0
 10
210.2913844960383
 20
-196.277425081139
 30
0.0
 10
206.7477592799103
 20
-196.850344460336
 30
0.0
 10
203.4108397928973
 20
-194.443256244792
 30
0.0
 10
202.8382649232488
 20
-190.8982529904699
 30
0.0
 10
202.2656900536003
 20
-187.355316793439
 30
0.0
 10
204.6745008168869
 20
-184.0177082873289
 30
0.0
 10
208.2174370139179
 20
-183.4451334176804
 30
0.0
 10
211.7603732109488
 20
-182.8725585480319
 30
0.0
 10
215.0979817170588
 20
-185.2813693113185
 30
0.0
 10
215.6698675676103
 20
-188.8243055083495
 30
0.0
 10
216.2424424372588
 20
-192.3693087626716
 30
0.0
 10
213.8343206930692
 20
-195.7055392305875
 30
0.0
 10
210.2913844960383
 20
-196.277425081139
 30
0.0
  0
SPLINE
  5
7B
330
1F
100
AcDbEntity
  8
Layer 1
370
     0
100
AcDbSpline
210
0.0
220
0.0
230
1.0
 70
    11
 71
     3
 72
    17
 73
    13
 74
     0
 42
0.0000000001
 43
0.0000000001
 40
0.0
 40
0.0
 40
0.0
 40
0.0
 40
1.0
 40
1.0
 40
1.0
 40
2.0
 40
2.0
 40
2.0
 40
3.0
 40
3.0
 40
3.0
 40
4.0
 40
4.0
 40
4.0
 40
4.0
 10
209.8924424388463
 20
-193.810047694603
 30
0.0
 10
207.7116969966832
 20
-194.1621364531956
 30
0.0
 10
205.6584200874743
 20
-192.6807453945381
 30
0.0
 10
205.3063313288818
 20
-190.499310933278
 30
0.0
 10
204.9542425702892
 20
-188.3185654911148
 30
0.0
 10
206.4363226480437
 20
-186.2652885819059
 30
0.0
 10
208.6163790711098
 20
-185.9125108042163
 30
0.0
 10
210.797124513273
 20
-185.5604220456238
 30
0.0
 10
212.8504014224819
 20
-187.0425021233783
 30
0.0
 10
213.2024901810744
 20
-189.2232475655414
 30
0.0
 10
213.5545789396669
 20
-191.4046820268016
 30
0.0
 10
212.0731878810095
 20
-193.4572699169135
 30
0.0
 10
209.8924424388463
 20
-193.810047694603
 30
0.0
  0
SPLINE
  5
7C
330
1F
100
AcDbEntity
  8
Layer 1
370
     0
100
AcDbSpline
210
0.0
220
0.0
230
1.0
 70
    11
 71
     3
 72
    17
 73
    13
 74
     0
 42
0.0000000001
 43
0.0000000001
 40
0.0
 40
0.0
 40
0.0
 40
0.0
 40
1.0
 40
1.0
 40
1.0
 40
2.0
 40
2.0
 40
2.0
 40
3.0
 40
3.0
 40
3.0
 40
4.0
 40
4.0
 40
4.0
 40
4.0
 10
-32.23713649367683
 20
-78.08946259983527
 30
0.0
 10
-35.78007269070776
 20
-78.6620374694838
 30
0.0
 10
-39.11699217772075
 20
-76.25529376348827
 30
0.0
 10
-39.68956704736927
 20
-72.71029050916619
 30
0.0
 10
-40.2621419170178
 20
-69.16735431213525
 30
0.0
 10
-37.85333115373111
 20
-65.8297458060252
 30
0.0
 10
-34.31039495670018
 20
-65.25717093637668
 30
0.0
 10
-30.76745875966925
 20
-64.68459606672816
 30
0.0
 10
-27.43053927265625
 20
-67.09340683001484
 30
0.0
 10
-26.85796440300773
 20
-70.63634302704578
 30
0.0
 10
-26.28538953335921
 20
-74.18134628136787
 30
0.0
 10
-28.69351127754885
 20
-77.5175767492838
 30
0.0
 10
-32.23713649367683
 20
-78.08946259983527
 30
0.0
  0
SPLINE
  5
7D
330
1F
100
AcDbEntity
  8
Layer 1
370
     0
100
AcDbSpline
210
0.0
220
0.0
230
1.0
 70
    11
 71
     3
 72
    17
 73
    13
 74
     0
 42
0.0000000001
 43
0.0000000001
 40
0.0
 40
0.0
 40
0.0
 40
0.0
 40
1.0
 40
1.0
 40
1.0
 40
2.0
 40
2.0
 40
2.0
 40
3.0
 40
3.0
 40
3.0
 40
4.0
 40
4.0
 40
4.0
 40
4.0
 10
-32.63573404132023
 20
-75.62208521329934
 30
0.0
 10
-34.81647948348338
 20
-75.97417397189187
 30
0.0
 10
-36.87010090224081
 20
-74.49278291323445
 30
0.0
 10
-37.22218966083334
 20
-72.31134845197425
 30
0.0
 10
-37.57427841942587
 20
-70.1306030098111
 30
0.0
 10
-36.0921983416714
 20
-68.07732610060219
 30
0.0
 10
-33.91179740905677
 20
-67.72454832291261
 30
0.0
 10
-31.73139647644215
 20
-67.37245956432008
 30
0.0
 10
-29.67811956723325
 20
-68.85453964207456
 30
0.0
 10
-29.32568629909219
 20
-71.03528508423771
 30
0.0
 10
-28.97359754049966
 20
-73.21671954549791
 30
0.0
 10
-30.45533310870561
 20
-75.26930743560976
 30
0.0
 10
-32.63573404132023
 20
-75.62208521329934
 30
0.0
  0
SPLINE
  5
7E
330
1F
100
AcDbEntity
  8
Layer 1
370
     0
100
AcDbSpline
210
0.0
220
0.0
230
1.0
 70
    11
 71
     3
 72
    17
 73
    13
 74
     0
 42
0.0000000001
 43
0.0000000001
 40
0.0
 40
0.0
 40
0.0
 40
0.0
 40
1.0
 40
1.0
 40
1.0
 40
2.0
 40
2.0
 40
2.0
 40
3.0
 40
3.0
 40
3.0
 40
4.0
 40
4.0
 40
4.0
 40
4.0
 10
-17.47834743486652
 20
-68.83111299277486
 30
0.0
 10
-21.02128363189746
 20
-69.40368786242338
 30
0.0
 10
-24.35820311891045
 20
-66.99694415642784
 30
0.0
 10
-24.93077798855897
 20
-63.45194090210577
 30
0.0
 10
-25.5033528582075
 20
-59.90900470507484
 30
0.0
 10
-23.09454209492081
 20
-56.57139619896479
 30
0.0
 10
-19.55160589788988
 20
-55.99882132931627
 30
0.0
 10
-16.00866970085895
 20
-55.42624645966774
 30
0.0
 10
-12.67175021384595
 20
-57.83505722295443
 30
0.0
 10
-12.09917534419743
 20
-61.37799341998537
 30
0.0
 10
-11.52660047454891
 20
-64.92299667430744
 30
0.0
 10
-13.93472221873854
 20
-68.2592271422234
 30
0.0
 10
-17.47834743486652
 20
-68.83111299277486
 30
0.0
  0
SPLINE
  5
7F
330
1F
100
AcDbEntity
  8
Layer 1
370
     0
100
AcDbSpline
210
0.0
220
0.0
230
1.0
 70
    11
 71
     3
 72
    17
 73
    13
 74
     0
 42
0.0000000001
 43
0.0000000001
 40
0.0
 40
0.0
 40
0.0
 40
0.0
 40
1.0
 40
1.0
 40
1.0
 40
2.0
 40
2.0
 40
2.0
 40
3.0
 40
3.0
 40
3.0
 40
4.0
 40
4.0
 40
4.0
 40
4.0
 10
-17.87694498250993
 20
-66.36373560623893
 30
0.0
 10
-20.05769042467308
 20
-66.71582436483146
 30
0.0
 10
-22.11131184343051
 20
-65.23443330617404
 30
0.0
 10
-22.46340060202304
 20
-63.05299884491384
 30
0.0
 10
-22.81548936061557
 20
-60.87225340275069
 30
0.0
 10
-21.33340928286109
 20
-58.81897649354179
 30
0.0
 10
-19.15300835024647
 20
-58.4661987158522
 30
0.0
 10
-16.97260741763185
 20
-58.11410995725967
 30
0.0
 10
-14.91933050842295
 20
-59.59619003501415
 30
0.0
 10
-14.56689724028189
 20
-61.7769354771773
 30
0.0
 10
-14.21480848168935
 20
-63.95836993843749
 30
0.0
 10
-15.69654404989531
 20
-66.01095782854935
 30
0.0
 10
-17.87694498250993
 20
-66.36373560623893
 30
0.0
  0
SPLINE
  5
80
330
1F
100
AcDbEntity
  8
Layer 1
370
     0
100
AcDbSpline
210
0.0
220
0.0
230
1.0
 70
    11
 71
     3
 72
    17
 73
    13
 74
     0
 42
0.0000000001
 43
0.0000000001
 40
0.0
 40
0.0
 40
0.0
 40
0.0
 40
1.0
 40
1.0
 40
1.0
 40
2.0
 40
2.0
 40
2.0
 40
3.0
 40
3.0
 40
3.0
 40
4.0
 40
4.0
 40
4.0
 40
4.0
 10
-32.23713649367683
 20
-62.45975340235381
 30
0.0
 10
-35.78007269070776
 20
-63.03232827200234
 30
0.0
 10
-39.11699217772075
 20
-60.6255845660068
 30
0.0
 10
-39.68956704736927
 20
-57.08058131168472
 30
0.0
 10
-40.2621419170178
 20
-53.53764511465378
 30
0.0
 10
-37.85333115373111
 20
-50.20003660854374
 30
0.0
 10
-34.31039495670018
 20
-49.62746173889522
 30
0.0
 10
-30.76745875966925
 20
-49.05488686924669
 30
0.0
 10
-27.43053927265625
 20
-51.46369763253338
 30
0.0
 10
-26.85796440300773
 20
-55.00663382956431
 30
0.0
 10
-26.28538953335921
 20
-58.5516370838864
 30
0.0
 10
-28.69351127754885
 20
-61.88786755180234
 30
0.0
 10
-32.23713649367683
 20
-62.45975340235381
 30
0.0
  0
SPLINE
  5
81
330
1F
100
AcDbEntity
  8
Layer 1
370
     0
100
AcDbSpline
210
0.0
220
0.0
230
1.0
 70
    11
 71
     3
 72
    17
 73
    13
 74
     0
 42
0.0000000001
 43
0.0000000001
 40
0.0
 40
0.0
 40
0.0
 40
0.0
 40
1.0
 40
1.0
 40
1.0
 40
2.0
 40
2.0
 40
2.0
 40
3.0
 40
3.0
 40
3.0
 40
4.0
 40
4.0
 40
4.0
 40
4.0
 10
-32.63573404132023
 20
-59.99237601581788
 30
0.0
 10
-34.81647948348338
 20
-60.34446477441041
 30
0.0
 10
-36.87010090224081
 20
-58.86307371575298
 30
0.0
 10
-37.22218966083334
 20
-56.68163925449279
 30
0.0
 10
-37.57427841942587
 20
-54.50089381232964
 30
0.0
 10
-36.0921983416714
 20
-52.44761690312074
 30
0.0
 10
-33.91179740905677
 20
-52.09483912543115
 30
0.0
 10
-31.73139647644215
 20
-51.74275036683862
 30
0.0
 10
-29.67811956723325
 20
-53.2248304445931
 30
0.0
 10
-29.32568629909219
 20
-55.40557588675625
 30
0.0
 10
-28.97359754049966
 20
-57.58701034801644
 30
0.0
 10
-30.45533310870561
 20
-59.6395982381283
 30
0.0
 10
-32.63573404132023
 20
-59.99237601581788
 30
0.0
  0
SPLINE
  5
82
330
1F
100
AcDbEntity
  8
Layer 1
370
     0
100
AcDbSpline
210
0.0
220
0.0
230
1.0
 70
    11
 71
     3
 72
   143
 73
   139
 74
     0
 42
0.0000000001
 43
0.0000000001
 40
0.0
 40
0.0
 40
0.0
 40
0.0
 40
1.0
 40
1.0
 40
1.0
 40
2.0
 40
2.0
 40
2.0
 40
3.0
 40
3.0
 40
3.0
 40
4.0
 40
4.0
 40
4.0
 40
5.0
 40
5.0
 40
5.0
 40
6.0
 40
6.0
 40
6.0
 40
7.0
 40
7.0
 40
7.0
 40
8.0
 40
8.0
 40
8.0
 40
9.0
 40
9.0
 40
9.0
 40
10.0
 40
10.0
 40
10.0
 40
11.0
 40
11.0
 40
11.0
 40
12.0
 40
12.0
 40
12.0
 40
13.0
 40
13.0
 40
13.0
 40
14.0
 40
14.0
 40
14.0
 40
15.0
 40
15.0
 40
15.0
 40
16.0
 40
16.0
 40
16.0
 40
17.0
 40
17.0
 40
17.0
 40
18.0
 40
18.0
 40
18.0
 40
19.0
 40
19.0
 40
19.0
 40
20.0
 40
20.0
 40
20.0
 40
21.0
 40
21.0
 40
21.0
 40
22.0
 40
22.0
 40
22.0
 40
23.0
 40
23.0
 40
23.0
 40
24.0
 40
24.0
 40
24.0
 40
25.0
 40
25.0
 40
25.0
 40
26.0
 40
26.0
 40
26.0
 40
27.0
 40
27.0
 40
27.0
 40
28.0
 40
28.0
 40
28.0
 40
29.0
 40
29.0
 40
29.0
 40
30.0
 40
30.0
 40
30.0
 40
31.0
 40
31.0
 40
31.0
 40
32.0
 40
32.0
 40
32.0
 40
33.0
 40
33.0
 40
33.0
 40
34.0
 40
34.0
 40
34.0
 40
35.0
 40
35.0
 40
35.0
 40
36.0
 40
36.0
 40
36.0
 40
37.0
 40
37.0
 40
37.0
 40
38.0
 40
38.0
 40
38.0
 40
39.0
 40
39.0
 40
39.0
 40
40.0
 40
40.0
 40
40.0
 40
41.0
 40
41.0
 40
41.0
 40
42.0
 40
42.0
 40
42.0
 40
43.0
 40
43.0
 40
43.0
 40
44.0
 40
44.0
 40
44.0
 40
45.0
 40
45.0
 40
45.0
 40
46.0
 40
46.0
 40
46.0
 40
46.0
 10
-41.67376979209892
 20
-138.8280462977583
 30
0.0
 10
-41.66429577951448
 20
-138.514198099052
 30
0.0
 10
-41.56145967927978
 20
-138.2117187154471
 30
0.0
 10
-41.37869736378727
 20
-137.9574706686356
 30
0.0
 10
-41.37869736378727
 20
-137.9574706686356
 30
0.0
 10
-30.9343736359296
 20
-123.4382880008245
 30
0.0
 10
-30.9343736359296
 20
-123.4382880008245
 30
0.0
 10
-30.69735106654441
 20
-123.1089368724346
 30
0.0
 10
-30.59658202360086
 20
-122.701037566981
 30
0.0
 10
-30.65325384433321
 20
-122.2989949238523
 30
0.0
 10
-30.65325384433321
 20
-122.2989949238523
 30
0.0
 10
-34.25768499577586
 20
-100.2348808885698
 30
0.0
 10
-34.25768499577586
 20
-100.2348808885698
 30
0.0
 10
-34.25768499577586
 20
-100.2348808885698
 30
0.0
 10
1.280369737093102
 20
-51.60563556652568
 30
0.0
 10
1.280369737093102
 20
-51.60563556652568
 30
0.0
 10
1.525488280868628
 20
-51.27215032355349
 30
0.0
 10
1.889979383208061
 20
-51.04718558836668
 30
0.0
 10
2.298739962532954
 20
-50.98035073595283
 30
0.0
 10
2.298739962532954
 20
-50.98035073595283
 30
0.0
 10
37.53465982134551
 20
-45.22394068964888
 30
0.0
 10
37.53465982134551
 20
-45.22394068964888
 30
0.0
 10
37.92567815892136
 20
-45.15951740407471
 30
0.0
 10
38.32599825430739
 20
-45.24598930075447
 30
0.0
 10
38.65689967566563
 20
-45.46303031632522
 30
0.0
 10
38.65689967566563
 20
-45.46303031632522
 30
0.0
 10
83.577327453064
 20
-75.0822387507607
 30
0.0
 10
83.577327453064
 20
-75.0822387507607
 30
0.0
 10
84.03673093602207
 20
-75.38540715346268
 30
0.0
 10
84.34782305834013
 20
-75.86634248320355
 30
0.0
 10
84.4370510314081
 20
-76.40791149348483
 30
0.0
 10
84.4370510314081
 20
-76.40791149348483
 30
0.0
 10
86.67205672746394
 20
-90.15797659421398
 30
0.0
 10
86.67205672746394
 20
-90.15797659421398
 30
0.0
 10
86.8081379991313
 20
-90.99031166345034
 30
0.0
 10
87.45960555539205
 20
-91.64384627700224
 30
0.0
 10
88.29125160553136
 20
-91.7826836250578
 30
0.0
 10
88.29125160553136
 20
-91.7826836250578
 30
0.0
 10
130.5181314777871
 20
-96.11420217866242
 30
0.0
 10
130.5181314777871
 20
-96.11420217866242
 30
0.0
 10
130.5181314777871
 20
-96.11420217866242
 30
0.0
 10
208.5867512499367
 20
-71.91343992342789
 30
0.0
 10
208.5867512499367
 20
-71.91343992342789
 30
0.0
 10
210.2696803944812
 20
-71.47040064402476
 30
0.0
 10
211.9925726466547
 20
-72.47430146842656
 30
0.0
 10
212.4363009451548
 20
-74.15757512251963
 30
0.0
 10
212.7112195648778
 20
-75.19937199725919
 30
0.0
 10
212.4332003592181
 20
-76.31007078170373
 30
0.0
 10
211.7011175686025
 20
-77.10037568602004
 30
0.0
 10
211.7011175686025
 20
-77.10037568602004
 30
0.0
 10
155.1829480948848
 20
-138.1331705383834
 30
0.0
 10
155.1843261330789
 20
-138.1328260288348
 30
0.0
 10
154.702012765144
 20
-138.6495903516223
 30
0.0
 10
154.453965890206
 20
-139.3751274608159
 30
0.0
 10
154.5766112894809
 20
-140.1261582766004
 30
0.0
 10
154.7361192104479
 20
-141.1059434326055
 30
0.0
 10
155.4771592493252
 20
-141.8435383759975
 30
0.0
 10
156.3897650433678
 20
-142.0498995955639
 30
0.0
 10
156.3897650433678
 20
-142.0498995955639
 30
0.0
 10
198.6111327628472
 20
-154.9169867234235
 30
0.0
 10
198.6111327628472
 20
-154.9169867234235
 30
0.0
 10
199.4438123416321
 20
-155.1702012415894
 30
0.0
 10
199.9123453276261
 20
-156.0500786285222
 30
0.0
 10
199.6587862999117
 20
-156.88206918821
 30
0.0
 10
199.4744736914508
 20
-157.4890950127111
 30
0.0
 10
198.9425509485283
 20
-157.9259331202408
 30
0.0
 10
198.3120984747275
 20
-157.991045424912
 30
0.0
 10
198.3120984747275
 20
-157.991045424912
 30
0.0
 10
171.7659152131349
 20
-160.6985459667698
 30
0.0
 10
171.7659152131349
 20
-160.6985459667698
 30
0.0
 10
171.6470594188938
 20
-160.7002685145124
 30
0.0
 10
171.5271700960071
 20
-160.7075032150315
 30
0.0
 10
171.4062472444748
 20
-160.7271402592974
 30
0.0
 10
170.1181260425399
 20
-160.9372910838976
 30
0.0
 10
169.2454833561261
 20
-162.1520317519967
 30
0.0
 10
169.4552896711779
 20
-163.4401529539316
 30
0.0
 10
169.5758680131616
 20
-164.1791259355177
 30
0.0
 10
170.0288980694719
 20
-164.7809841167909
 30
0.0
 10
170.6348903653274
 20
-165.120326022088
 30
0.0
 10
170.6348903653274
 20
-165.120326022088
 30
0.0
 10
182.6000514951486
 20
-173.0302652562216
 30
0.0
 10
182.6000514951486
 20
-173.0302652562216
 30
0.0
 10
183.3252440947937
 20
-173.5098225477684
 30
0.0
 10
183.5250596329382
 20
-174.4868516273852
 30
0.0
 10
183.0455023413914
 20
-175.2127332461274
 30
0.0
 10
182.7406113909468
 20
-175.6733425125053
 30
0.0
 10
182.2176458962859
 20
-175.9403374126121
 30
0.0
 10
181.6657415995489
 20
-175.9182888015065
 30
0.0
 10
181.6657415995489
 20
-175.9182888015065
 30
0.0
 10
169.1455755870539
 20
-175.3984238927823
 30
0.0
 10
169.1455755870539
 20
-175.3984238927823
 30
0.0
 10
168.9288790810317
 20
-175.3715521479974
 30
0.0
 10
168.7049478744904
 20
-175.37327469574
 30
0.0
 10
168.4792941202066
 20
-175.4104817269807
 30
0.0
 10
167.1908284087231
 20
-175.620632551581
 30
0.0
 10
166.3174967032123
 20
-176.8350287101315
 30
0.0
 10
166.5279920373611
 20
-178.1228054025179
 30
0.0
 10
166.6533935130242
 20
-178.8910616957286
 30
0.0
 10
167.1381184477988
 20
-179.510145354428
 30
0.0
 10
167.7806287557979
 20
-179.8412190305605
 30
0.0
 10
167.7806287557979
 20
-179.8412190305605
 30
0.0
 10
212.9816595604699
 20
-210.8288193917373
 30
0.0
 10
212.9816595604699
 20
-210.8288193917373
 30
0.0
 10
213.6985839309504
 20
-211.3197454983853
 30
0.0
 10
213.8818630107656
 20
-212.3009086925845
 30
0.0
 10
213.389903375472
 20
-213.0174885535165
 30
0.0
 10
213.046082846044
 20
-213.5194389657174
 30
0.0
 10
212.444913683868
 20
-213.7771321080141
 30
0.0
 10
211.845122559886
 20
-213.6827364917182
 30
0.0
 10
211.845122559886
 20
-213.6827364917182
 30
0.0
 10
137.6956434117567
 20
-201.9756130137422
 30
0.0
 10
137.6956434117567
 20
-201.9756130137422
 30
0.0
 10
137.6956434117567
 20
-201.9756130137422
 30
0.0
 10
25.22257757615963
 20
-220.2701035690644
 30
0.0
 10
25.22257757615963
 20
-220.2701035690644
 30
0.0
 10
24.67980278245852
 20
-220.3589870325839
 30
0.0
 10
24.12962103346412
 20
-220.1581379657938
 30
0.0
 10
23.77167561254667
 20
-219.7405923929815
 30
0.0
 10
23.77167561254667
 20
-219.7405923929815
 30
0.0
 10
-14.72726643512027
 20
-174.7438557505849
 30
0.0
 10
-14.72726643512027
 20
-174.7438557505849
 30
0.0
 10
-15.04852158911982
 20
-174.3690293617897
 30
0.0
 10
-15.17426757433143
 20
-173.8660454209432
 30
0.0
 10
-15.07022569067689
 20
-173.3844210721053
 30
0.0
 10
-15.07022569067689
 20
-173.3844210721053
 30
0.0
 10
-10.24313015151908
 20
-151.2520941462148
 30
0.0
 10
-10.24313015151908
 20
-151.2520941462148
 30
0.0
 10
-10.16010335032456
 20
-150.8731336428373
 30
0.0
 10
-10.22073703086495
 20
-150.4772921715821
 30
0.0
 10
-10.41142306597353
 20
-150.1407063426732
 30
0.0
 10
-10.41142306597353
 20
-150.1407063426732
 30
0.0
 10
-15.45900471618733
 20
-141.2185980549731
 30
0.0
 10
-15.45900471618733
 20
-141.2185980549731
 30
0.0
 10
-15.45900471618733
 20
-141.2185980549731
 30
0.0
 10
-40.14879827555308
 20
-140.451375290408
 30
0.0
 10
-40.14879827555308
 20
-140.451375290408
 30
0.0
 10
-41.01799586648161
 20
-140.4245035456231
 30
0.0
 10
-41.70064153688387
 20
-139.6972438886868
 30
0.0
 10
-41.67376979209892
 20
-138.8280462977583
 30
0.0
  0
ENDSEC
  0
SECTION
  2
OBJECTS
  0
DICTIONARY
  5
C
330
0
100
AcDbDictionary
281
     1
  3
ACAD_GROUP
350
D
  3
ACAD_LAYOUT
350
1A
  3
ACAD_MLINESTYLE
350
17
  3
ACAD_PLOTSETTINGS
350
19
  3
ACAD_PLOTSTYLENAME
350
E
  3
ACAD_TABLESTYLE
350
83
  3
ACAD_VISUALSTYLE
350
2A
  0
DICTIONARY
  5
D
102
{ACAD_REACTORS
330
C
102
}
330
C
100
AcDbDictionary
281
     1
  0
DICTIONARY
  5
1A
102
{ACAD_REACTORS
330
C
102
}
330
C
100
AcDbDictionary
281
     1
  3
Layout1
350
1E
  3
Layout2
350
26
  3
Model
350
22
  0
DICTIONARY
  5
17
102
{ACAD_REACTORS
330
C
102
}
330
C
100
AcDbDictionary
281
     1
  3
Standard
350
18
  0
DICTIONARY
  5
19
102
{ACAD_REACTORS
330
C
102
}
330
C
100
AcDbDictionary
281
     1
  0
ACDBDICTIONARYWDFLT
  5
E
102
{ACAD_REACTORS
330
C
102
}
330
C
100
AcDbDictionary
281
     1
  3
Normal
350
F
100
AcDbDictionaryWithDefault
340
F
  0
DICTIONARY
  5
83
102
{ACAD_REACTORS
330
C
102
}
330
C
100
AcDbDictionary
281
     1
  0
DICTIONARY
  5
2A
102
{ACAD_REACTORS
330
C
102
}
330
C
100
AcDbDictionary
281
     1
  3
2dWireframe
350
2F
  3
3D Hidden
350
31
  3
3dWireframe
350
30
  3
Basic
350
32
  3
Brighten
350
36
  3
ColorChange
350
3A
  3
Conceptual
350
34
  3
Dim
350
35
  3
Facepattern
350
39
  3
Flat
350
2B
  3
FlatWithEdges
350
2C
  3
Gouraud
350
2D
  3
GouraudWithEdges
350
2E
  3
Linepattern
350
38
  3
Realistic
350
33
  3
Thicken
350
37
  0
LAYOUT
  5
1E
102
{ACAD_REACTORS
330
1A
102
}
330
1A
100
AcDbPlotSettings
  1

  2
none_device
  4

  6

 40
0.0
 41
0.0
 42
0.0
 43
0.0
 44
0.0
 45
0.0
 46
0.0
 47
0.0
 48
0.0
 49
0.0
140
0.0
141
0.0
142
1.0
143
1.0
 70
   688
 72
     0
 73
     0
 74
     5
  7

 75
    16
147
1.0
148
0.0
149
0.0
100
AcDbLayout
  1
Layout1
 70
     1
 71
     1
 10
0.0
 20
0.0
 11
12.0
 21
9.0
 12
0.0
 22
0.0
 32
0.0
 14
1.000000000000000E+20
 24
1.000000000000000E+20
 34
1.000000000000000E+20
 15
-1.000000000000000E+20
 25
-1.000000000000000E+20
 35
-1.000000000000000E+20
146
0.0
 13
0.0
 23
0.0
 33
0.0
 16
1.0
 26
0.0
 36
0.0
 17
0.0
 27
1.0
 37
0.0
 76
     0
330
1B
  0
LAYOUT
  5
26
102
{ACAD_REACTORS
330
1A
102
}
330
1A
100
AcDbPlotSettings
  1

  2
none_device
  4

  6

 40
0.0
 41
0.0
 42
0.0
 43
0.0
 44
0.0
 45
0.0
 46
0.0
 47
0.0
 48
0.0
 49
0.0
140
0.0
141
0.0
142
1.0
143
1.0
 70
   688
 72
     0
 73
     0
 74
     5
  7

 75
    16
147
1.0
148
0.0
149
0.0
100
AcDbLayout
  1
Layout2
 70
     1
 71
     2
 10
0.0
 20
0.0
 11
0.0
 21
0.0
 12
0.0
 22
0.0
 32
0.0
 14
0.0
 24
0.0
 34
0.0
 15
0.0
 25
0.0
 35
0.0
146
0.0
 13
0.0
 23
0.0
 33
0.0
 16
1.0
 26
0.0
 36
0.0
 17
0.0
 27
1.0
 37
0.0
 76
     0
330
23
  0
LAYOUT
  5
22
102
{ACAD_REACTORS
330
1A
102
}
330
1A
100
AcDbPlotSettings
  1

  2
none_device
  4

  6

 40
0.0
 41
0.0
 42
0.0
 43
0.0
 44
0.0
 45
0.0
 46
0.0
 47
0.0
 48
0.0
 49
0.0
140
0.0
141
0.0
142
1.0
143
1.0
 70
  1712
 72
     0
 73
     0
 74
     0
  7

 75
     0
147
1.0
148
0.0
149
0.0
100
AcDbLayout
  1
Model
 70
     1
 71
     0
 10
0.0
 20
0.0
 11
12.0
 21
9.0
 12
0.0
 22
0.0
 32
0.0
 14
1.000000000000000E+20
 24
1.000000000000000E+20
 34
1.000000000000000E+20
 15
-1.000000000000000E+20
 25
-1.000000000000000E+20
 35
-1.000000000000000E+20
146
0.0
 13
0.0
 23
0.0
 33
0.0
 16
1.0
 26
0.0
 36
0.0
 17
0.0
 27
1.0
 37
0.0
 76
     0
330
1F
331
29
  0
MLINESTYLE
  5
18
102
{ACAD_REACTORS
330
17
102
}
330
17
100
AcDbMlineStyle
  2
Standard
 70
     0
  3

 62
   256
 51
90.0
 52
90.0
 71
     2
 49
0.5
 62
   256
  6
BYLAYER
 49
-0.5
 62
   256
  6
BYLAYER
  0
ACDBPLACEHOLDER
  5
F
102
{ACAD_REACTORS
330
E
102
}
330
E
  0
VISUALSTYLE
  5
2F
102
{ACAD_REACTORS
330
2A
102
}
330
2A
100
AcDbVisualStyle
  2
2dWireframe
 70
     4
 71
     0
 72
     2
 73
     0
 90
        0
 40
-0.6
 41
-30.0
 62
     5
 63
     7
 74
     1
 91
        4
 64
     7
 65
   257
 75
     1
175
     1
 42
1.0
 92
        0
 66
   257
 43
1.0
 76
     1
 77
     6
 78
     2
 67
     7
 79
     5
170
     0
171
     0
290
     0
174
     0
 93
        1
 44
0.0
173
     0
291
     0
 45
0.0
1001
ACAD
1000
AcDbSavedByObjectVersion
1070
     0
  0
VISUALSTYLE
  5
31
102
{ACAD_REACTORS
330
2A
102
}
330
2A
100
AcDbVisualStyle
  2
3D Hidden
 70
     6
 71
     1
 72
     2
 73
     2
 90
        0
 40
-0.6
 41
-30.0
 62
     5
 63
     7
 74
     2
 91
        2
 64
     7
 65
   257
 75
     2
175
     1
 42
40.0
 92
        0
 66
   257
 43
1.0
 76
     1
 77
     6
 78
     2
 67
     7
 79
     3
170
     0
171
     0
290
     0
174
     0
 93
        1
 44
0.0
173
     0
291
     0
 45
0.0
1001
ACAD
1000
AcDbSavedByObjectVersion
1070
     0
  0
VISUALSTYLE
  5
30
102
{ACAD_REACTORS
330
2A
102
}
330
2A
100
AcDbVisualStyle
  2
3dWireframe
 70
     5
 71
     0
 72
     2
 73
     0
 90
        0
 40
-0.6
 41
-30.0
 62
     5
 63
     7
 74
     1
 91
        4
 64
     7
 65
   257
 75
     1
175
     1
 42
1.0
 92
        0
 66
   257
 43
1.0
 76
     1
 77
     6
 78
     2
 67
     7
 79
     5
170
     0
171
     0
290
     0
174
     0
 93
        1
 44
0.0
173
     0
291
     0
 45
0.0
1001
ACAD
1000
AcDbSavedByObjectVersion
1070
     0
  0
VISUALSTYLE
  5
32
102
{ACAD_REACTORS
330
2A
102
}
330
2A
100
AcDbVisualStyle
  2
Basic
 70
     7
 71
     1
 72
     0
 73
     1
 90
        0
 40
-0.6
 41
-30.0
 62
     5
 63
     7
 74
     0
 91
        4
 64
     7
 65
   257
 75
     1
175
     1
 42
1.0
 92
        8
 66
     7
 43
1.0
 76
     1
 77
     6
 78
     2
 67
     7
 79
     5
170
     0
171
     0
290
     0
174
     0
 93
        1
 44
0.0
173
     0
291
     1
 45
0.0
1001
ACAD
1000
AcDbSavedByObjectVersion
1070
     0
  0
VISUALSTYLE
  5
36
102
{ACAD_REACTORS
330
2A
102
}
330
2A
100
AcDbVisualStyle
  2
Brighten
 70
    12
 71
     2
 72
     2
 73
     0
 90
        0
 40
-0.6
 41
-30.0
 62
     5
 63
     7
 74
     1
 91
        4
 64
     7
 65
   257
 75
     1
175
     1
 42
1.0
 92
        8
 66
     7
 43
1.0
 76
     1
 77
     6
 78
     2
 67
     7
 79
     5
170
     0
171
     0
290
     0
174
     0
 93
        1
 44
50.0
173
     0
291
     1
 45
0.0
1001
ACAD
1000
AcDbSavedByObjectVersion
1070
     0
  0
VISUALSTYLE
  5
3A
102
{ACAD_REACTORS
330
2A
102
}
330
2A
100
AcDbVisualStyle
  2
ColorChange
 70
    16
 71
     2
 72
     2
 73
     3
 90
        0
 40
-0.6
 41
-30.0
 62
     5
 63
     8
 74
     1
 91
        4
 64
     7
 65
   257
 75
     1
175
     1
 42
1.0
 92
        8
 66
     8
 43
1.0
 76
     1
 77
     6
 78
     2
 67
     7
 79
     5
170
     0
171
     0
290
     0
174
     0
 93
        1
 44
0.0
173
     0
291
     1
 45
0.0
1001
ACAD
1000
AcDbSavedByObjectVersion
1070
     0
  0
VISUALSTYLE
  5
34
102
{ACAD_REACTORS
330
2A
102
}
330
2A
100
AcDbVisualStyle
  2
Conceptual
 70
     9
 71
     3
 72
     2
 73
     0
 90
        0
 40
-0.6
 41
-30.0
 62
     5
 63
     7
 74
     2
 91
        2
 64
     7
 65
   257
 75
     1
175
     1
 42
40.0
 92
        8
 66
     7
 43
1.0
 76
     1
 77
     6
 78
     2
 67
     7
 79
     3
170
     0
171
     0
290
     0
174
     0
 93
        1
 44
0.0
173
     0
291
     0
 45
0.0
1001
ACAD
1000
AcDbSavedByObjectVersion
1070
     0
  0
VISUALSTYLE
  5
35
102
{ACAD_REACTORS
330
2A
102
}
330
2A
100
AcDbVisualStyle
  2
Dim
 70
    11
 71
     2
 72
     2
 73
     0
 90
        0
 40
-0.6
 41
-30.0
 62
     5
 63
     7
 74
     1
 91
        4
 64
     7
 65
   257
 75
     1
175
     1
 42
1.0
 92
        8
 66
     7
 43
1.0
 76
     1
 77
     6
 78
     2
 67
     7
 79
     5
170
     0
171
     0
290
     0
174
     0
 93
        1
 44
-50.0
173
     0
291
     1
 45
0.0
1001
ACAD
1000
AcDbSavedByObjectVersion
1070
     0
  0
VISUALSTYLE
  5
39
102
{ACAD_REACTORS
330
2A
102
}
330
2A
100
AcDbVisualStyle
  2
Facepattern
 70
    15
 71
     2
 72
     2
 73
     0
 90
        0
 40
-0.6
 41
-30.0
 62
     5
 63
     7
 74
     1
 91
        4
 64
     7
 65
   257
 75
     1
175
     1
 42
1.0
 92
        8
 66
     7
 43
1.0
 76
     1
 77
     6
 78
     2
 67
     7
 79
     5
170
     0
171
     0
290
     0
174
     0
 93
        1
 44
0.0
173
     0
291
     1
 45
0.0
1001
ACAD
1000
AcDbSavedByObjectVersion
1070
     0
  0
VISUALSTYLE
  5
2B
102
{ACAD_REACTORS
330
2A
102
}
330
2A
100
AcDbVisualStyle
  2
Flat
 70
     0
 71
     2
 72
     1
 73
     1
 90
        2
 40
-0.6
 41
30.0
 62
     5
 63
     7
 74
     0
 91
        4
 64
     7
 65
   257
 75
     1
175
     1
 42
1.0
 92
        8
 66
     7
 43
1.0
 76
     1
 77
     6
 78
     2
 67
     7
 79
     5
170
     0
171
     0
290
     0
174
     0
 93
       13
 44
0.0
173
     0
291
     1
 45
0.0
1001
ACAD
1000
AcDbSavedByObjectVersion
1070
     0
  0
VISUALSTYLE
  5
2C
102
{ACAD_REACTORS
330
2A
102
}
330
2A
100
AcDbVisualStyle
  2
FlatWithEdges
 70
     1
 71
     2
 72
     1
 73
     1
 90
        2
 40
-0.6
 41
30.0
 62
     5
 63
     7
 74
     1
 91
        4
 64
     7
 65
   257
 75
     1
175
     1
 42
1.0
 92
        0
 66
   257
 43
1.0
 76
     1
 77
     6
 78
     2
 67
     7
 79
     5
170
     0
171
     0
290
     0
174
     0
 93
       13
 44
0.0
173
     0
291
     1
 45
0.0
1001
ACAD
1000
AcDbSavedByObjectVersion
1070
     0
  0
VISUALSTYLE
  5
2D
102
{ACAD_REACTORS
330
2A
102
}
330
2A
100
AcDbVisualStyle
  2
Gouraud
 70
     2
 71
     2
 72
     2
 73
     1
 90
        2
 40
-0.6
 41
30.0
 62
     5
 63
     7
 74
     0
 91
        4
 64
     7
 65
   257
 75
     1
175
     1
 42
1.0
 92
        0
 66
     7
 43
1.0
 76
     1
 77
     6
 78
     2
 67
     7
 79
     5
170
     0
171
     0
290
     0
174
     0
 93
       13
 44
0.0
173
     0
291
     1
 45
0.0
1001
ACAD
1000
AcDbSavedByObjectVersion
1070
     0
  0
VISUALSTYLE
  5
2E
102
{ACAD_REACTORS
330
2A
102
}
330
2A
100
AcDbVisualStyle
  2
GouraudWithEdges
 70
     3
 71
     2
 72
     2
 73
     1
 90
        2
 40
-0.6
 41
30.0
 62
     5
 63
     7
 74
     1
 91
        4
 64
     7
 65
   257
 75
     1
175
     1
 42
1.0
 92
        0
 66
   257
 43
1.0
 76
     1
 77
     6
 78
     2
 67
     7
 79
     5
170
     0
171
     0
290
     0
174
     0
 93
       13
 44
0.0
173
     0
291
     1
 45
0.0
1001
ACAD
1000
AcDbSavedByObjectVersion
1070
     0
  0
VISUALSTYLE
  5
38
102
{ACAD_REACTORS
330
2A
102
}
330
2A
100
AcDbVisualStyle
  2
Linepattern
 70
    14
 71
     2
 72
     2
 73
     0
 90
        0
 40
-0.6
 41
-30.0
 62
     5
 63
     7
 74
     1
 91
        4
 64
     7
 65
   257
 75
     7
175
     7
 42
1.0
 92
        8
 66
     7
 43
1.0
 76
     1
 77
     6
 78
     2
 67
     7
 79
     5
170
     0
171
     0
290
     0
174
     0
 93
        1
 44
0.0
173
     0
291
     1
 45
0.0
1001
ACAD
1000
AcDbSavedByObjectVersion
1070
     0
  0
VISUALSTYLE
  5
33
102
{ACAD_REACTORS
330
2A
102
}
330
2A
100
AcDbVisualStyle
  2
Realistic
 70
     8
 71
     2
 72
     2
 73
     0
 90
        0
 40
-0.6
 41
-30.0
 62
     5
 63
     7
 74
     1
 91
        0
 64
     7
 65
   257
 75
     1
175
     1
 42
1.0
 92
        8
 66
     8
 43
1.0
 76
     1
 77
     6
 78
     2
 67
     7
 79
     5
170
     0
171
     0
290
     0
174
     0
 93
       13
 44
0.0
173
     0
291
     0
 45
0.0
1001
ACAD
1000
AcDbSavedByObjectVersion
1070
     0
  0
VISUALSTYLE
  5
37
102
{ACAD_REACTORS
330
2A
102
}
330
2A
100
AcDbVisualStyle
  2
Thicken
 70
    13
 71
     2
 72
     2
 73
     0
 90
        0
 40
-0.6
 41
-30.0
 62
     5
 63
     7
 74
     1
 91
        4
 64
     7
 65
   257
 75
     1
175
     1
 42
1.0
 92
       12
 66
     7
 43
1.0
 76
     1
 77
     6
 78
     2
 67
     7
 79
     5
170
     0
171
     0
290
     0
174
     0
 93
        1
 44
0.0
173
     0
291
     1
 45
0.0
1001
ACAD
1000
AcDbSavedByObjectVersion
1070
     0
  0
ENDSEC
  0
EOF
